<?xml version="1.0" standalone="no"?>
<!DOCTYPE svg PUBLIC "-//W3C//DTD SVG 20010904//EN"
 "http://www.w3.org/TR/2001/REC-SVG-20010904/DTD/svg10.dtd">
<svg version="1.0" xmlns="http://www.w3.org/2000/svg"
 width="128.000000pt" height="64.000000pt" viewBox="0 0 1280.000000 640.000000"
 preserveAspectRatio="xMidYMid meet">
<metadata>
Created by potrace 1.15, written by Peter Selinger 2001-2017
</metadata>
<g transform="translate(0.000000,640.000000) scale(0.100000,-0.100000)"
fill="#000000" stroke="none">
<path d="M3105 6009 c-27 -19 -38 -20 -125 -13 -143 12 -175 10 -298 -16 -96
-20 -122 -22 -173 -14 -55 9 -64 8 -87 -10 -21 -16 -44 -21 -121 -24 -73 -3
-112 -10 -161 -29 -55 -22 -88 -27 -215 -33 -165 -7 -193 -16 -289 -85 -38
-28 -57 -35 -95 -35 -83 0 -344 -96 -492 -181 l-88 -50 -25 -77 c-37 -110 -64
-242 -72 -351 -7 -92 -7 -93 14 -82 29 15 35 43 33 135 -1 73 1 83 34 143 69
126 162 225 255 273 53 27 138 50 185 50 25 0 69 12 107 30 373 168 931 268
1602 287 l238 6 -11 -21 c-14 -27 -11 -27 31 -3 88 51 274 77 378 52 53 -12
126 -15 386 -13 357 3 430 -2 781 -49 224 -31 244 -35 239 -52 -2 -10 4 -27
15 -38 21 -21 44 -26 36 -6 -3 6 -8 20 -12 30 -5 11 -3 17 5 17 31 0 551 -172
710 -235 310 -123 624 -333 658 -442 7 -21 21 -119 32 -218 10 -99 27 -204 36
-234 13 -46 14 -61 4 -92 -12 -36 -12 -61 6 -270 5 -64 3 -85 -16 -138 l-23
-62 17 -123 c14 -100 15 -132 6 -167 -15 -56 -68 -109 -108 -109 -37 0 -72
-39 -72 -81 0 -26 4 -29 30 -29 28 0 30 -3 30 -35 0 -20 -12 -58 -26 -86 -15
-27 -24 -52 -21 -55 11 -12 45 17 51 43 11 47 28 83 38 83 17 0 1 -55 -32
-106 -16 -26 -30 -57 -30 -68 0 -39 56 34 84 110 27 73 68 125 81 104 4 -6 9
-104 12 -218 6 -222 -5 -325 -48 -421 -24 -55 -24 -53 9 -45 117 25 342 114
342 135 0 5 -39 20 -87 35 -122 36 -179 94 -122 124 27 15 62 6 123 -31 45
-28 51 -29 80 -17 17 7 61 13 98 13 56 0 71 -4 89 -21 29 -29 17 -44 -34 -44
-52 0 -77 -14 -60 -31 10 -10 24 -10 66 0 60 13 97 35 97 57 0 9 10 14 28 14
26 -1 26 -1 8 -15 -32 -24 -13 -27 80 -11 49 9 119 18 157 21 37 4 67 11 67
17 0 6 -18 7 -48 3 l-49 -6 -26 59 c-35 78 -35 100 1 104 l27 4 -28 12 c-16 7
-51 12 -78 12 -72 0 -115 21 -124 60 -4 17 -4 34 -1 37 3 3 34 0 68 -7 79 -15
219 -15 294 0 53 11 59 11 73 -8 9 -11 32 -23 52 -26 37 -6 68 -31 56 -43 -4
-3 -38 -5 -76 -4 -40 1 -72 -2 -76 -8 -3 -6 1 -11 10 -11 15 0 248 -24 343
-35 33 -4 42 -1 42 10 0 9 -10 15 -24 15 -14 0 -28 5 -32 11 -5 9 1 9 22 3 16
-5 90 -9 164 -9 115 0 139 -3 162 -19 30 -20 29 -36 -3 -36 -39 0 -60 -19 -53
-48 10 -43 13 -44 48 -17 46 35 145 55 221 44 32 -4 62 -6 67 -3 13 8 9 33 -8
59 l-16 24 33 -16 c59 -29 114 -27 261 11 76 20 149 36 164 36 20 0 24 4 19
19 -7 22 9 36 50 45 l30 6 -22 -19 c-23 -19 -31 -51 -14 -51 4 0 20 9 34 20
14 11 35 20 47 20 17 0 20 -4 15 -21 -7 -21 -5 -21 51 -14 33 3 63 10 68 15
12 12 -2 30 -23 30 -10 0 -47 15 -82 34 -35 18 -76 36 -91 40 -46 11 -118 -12
-222 -71 -82 -46 -109 -56 -160 -60 l-61 -5 -88 66 c-127 94 -155 95 -289 16
-113 -68 -226 -77 -313 -25 -41 23 -145 130 -145 147 0 12 -103 10 -141 -4
-19 -6 -56 -26 -84 -43 -80 -51 -80 -51 -142 5 -68 60 -176 118 -235 126 -53
7 -113 -8 -162 -41 l-37 -25 -38 20 c-21 10 -64 48 -96 84 -33 38 -75 74 -101
87 l-45 21 21 32 c18 28 24 31 66 29 35 -1 66 -13 135 -53 114 -66 139 -73
191 -54 89 31 155 15 300 -74 88 -54 133 -62 186 -32 61 34 124 24 253 -40 76
-39 118 -54 161 -58 54 -4 61 -3 121 36 122 80 145 79 337 -18 141 -71 187
-81 253 -52 26 12 47 23 47 26 0 2 -24 2 -53 -1 -43 -4 -55 -2 -60 10 -10 26
21 41 82 39 61 -2 100 15 86 38 -11 18 -66 7 -174 -35 l-91 -35 -38 19 c-20
11 -73 40 -116 65 -115 66 -119 66 -229 7 -56 -31 -106 -51 -125 -51 -63 0
-24 39 65 65 59 17 93 49 74 68 -9 9 -28 6 -89 -17 -42 -16 -91 -31 -109 -33
-29 -5 -32 -8 -26 -34 8 -43 -18 -47 -64 -11 -76 61 -233 80 -342 43 l-54 -19
-69 45 c-131 85 -240 118 -310 94 -30 -11 -31 -10 -18 4 9 8 52 22 95 29 90
16 115 24 115 37 0 14 -15 11 -145 -20 -163 -40 -179 -40 -246 -7 -71 34 -151
56 -210 56 -43 0 -46 2 -42 24 3 13 -2 59 -11 101 -27 131 -26 136 57 226 71
78 117 155 116 194 0 18 -2 18 -17 -5 -25 -38 -69 -80 -82 -80 -8 0 -10 11 -6
34 4 21 2 37 -4 41 -20 12 -24 -4 -12 -53 12 -52 3 -73 -23 -52 -30 25 -46 71
-47 130 -1 74 17 120 46 120 59 0 268 88 243 102 -18 10 -67 -7 -127 -43 -94
-57 -125 -45 -37 15 68 47 148 78 332 131 162 47 284 90 300 106 12 12 6 11
-148 -26 -59 -14 -198 -55 -309 -90 -112 -35 -204 -63 -206 -61 -5 6 124 86
195 121 186 92 455 162 843 220 96 15 196 30 223 34 51 9 57 6 30 -15 -16 -12
-14 -13 17 -14 44 0 110 18 110 30 0 6 -7 10 -15 10 -13 0 -14 4 -5 20 16 29
4 41 -27 29 -14 -5 -28 -7 -31 -5 -11 12 208 76 362 105 248 48 337 55 686 55
365 0 483 -9 805 -64 256 -44 288 -53 337 -95 31 -26 49 -34 63 -30 36 12 54
7 212 -55 85 -34 214 -81 286 -105 97 -32 133 -48 137 -62 4 -15 16 -18 80
-18 61 0 86 -5 135 -28 70 -33 63 -47 -27 -47 -32 0 -58 -3 -58 -7 0 -5 57 -8
128 -8 101 -1 143 -5 207 -24 101 -28 204 -77 279 -133 l59 -43 -39 -3 c-61
-4 -84 -11 -84 -27 0 -11 7 -13 33 -7 17 4 70 7 117 6 66 0 99 -6 145 -25 l60
-24 -97 -3 c-94 -3 -123 -13 -75 -26 12 -4 85 -9 162 -13 81 -3 154 -11 174
-19 29 -12 33 -18 29 -43 -4 -28 -1 -31 45 -46 54 -18 135 -67 119 -73 -6 -2
-44 8 -86 22 -102 35 -149 41 -186 26 -48 -20 -35 -30 36 -30 64 0 104 -11
104 -30 0 -5 -12 -10 -27 -12 -14 -2 -28 -8 -30 -14 -2 -7 23 -13 69 -17 84
-6 154 -31 169 -60 12 -21 10 -21 -132 0 -21 3 -39 0 -43 -6 -7 -11 3 -14 114
-31 104 -15 160 -35 199 -71 29 -26 33 -34 28 -66 -7 -43 -48 -89 -91 -102
-17 -6 -74 -17 -126 -24 -157 -24 -195 -50 -239 -170 -55 -152 -119 -169 -238
-64 -106 92 -137 91 -280 -7 -59 -40 -126 -82 -148 -94 -88 -45 -160 -37 -241
24 -44 34 -50 36 -101 29 -30 -4 -129 -31 -221 -62 -152 -51 -172 -55 -234
-51 -69 5 -110 27 -163 85 -18 20 -24 21 -75 12 -30 -5 -115 -39 -189 -75
-192 -94 -241 -95 -333 -7 l-36 36 -84 -5 c-65 -3 -96 -11 -140 -32 -74 -37
-153 -102 -133 -110 13 -5 116 17 136 29 4 3 26 -4 49 -16 75 -39 205 -34 254
9 18 16 19 16 12 -21 -6 -34 -5 -38 11 -33 10 3 40 10 67 16 103 23 204 63
254 101 l52 39 0 -45 c0 -40 2 -45 23 -45 12 0 40 14 61 30 25 19 51 30 70 30
l31 -1 -27 -22 c-15 -12 -38 -30 -52 -40 -34 -23 -36 -61 -3 -52 12 4 35 20
50 36 15 16 38 29 49 29 21 0 21 0 -2 -25 -19 -21 -21 -25 -7 -30 8 -4 29 1
46 10 17 8 84 22 148 31 65 8 138 24 164 36 l47 20 84 -41 c46 -22 111 -47
145 -55 61 -14 61 -14 67 9 12 48 91 83 145 64 28 -10 39 -8 81 15 58 32 145
35 298 10 55 -8 117 -14 138 -12 37 3 39 5 39 36 0 31 2 33 25 29 14 -3 44 -2
67 2 42 8 84 -5 53 -16 -33 -12 -119 -114 -179 -213 -83 -138 -129 -198 -165
-217 -43 -22 -112 -17 -192 13 -139 53 -208 67 -269 55 -50 -10 -50 -10 171
-64 100 -24 207 -56 239 -71 l58 -26 25 22 c24 23 152 211 275 408 132 210
249 332 388 405 64 33 139 47 139 26 0 -18 41 2 66 32 20 23 24 38 20 59 -5
25 -3 28 13 23 22 -7 33 7 37 44 6 51 -193 258 -389 405 -150 112 -374 231
-485 257 -26 7 -95 33 -154 60 -237 108 -400 167 -987 359 -238 78 -493 166
-566 194 -115 46 -145 54 -226 59 -52 4 -150 18 -219 33 -95 21 -157 27 -258
29 -85 1 -137 6 -144 13 -17 17 -65 15 -93 -4 -21 -14 -32 -14 -74 -4 -55 13
-77 10 -198 -26 -50 -15 -130 -28 -205 -34 -233 -18 -423 -59 -833 -178 -132
-38 -341 -93 -465 -122 -304 -70 -461 -119 -695 -216 -6 -3 -16 15 -22 38 -6
24 -30 96 -54 161 -35 101 -50 129 -104 195 -169 205 -269 281 -430 322 -47
12 -95 33 -133 59 -92 63 -251 135 -434 195 -352 117 -533 148 -1123 192 -187
14 -236 15 -328 4 -89 -10 -149 -10 -324 0 -210 13 -217 13 -306 -8 -112 -27
-124 -27 -212 -2 -89 25 -132 25 -170 -1z"/>
<path d="M3141 5867 c-22 -51 -55 -66 -103 -46 -33 14 -35 20 -8 44 11 10 18
20 16 23 -6 5 -115 -80 -115 -91 -1 -4 23 -4 52 -1 29 3 69 2 89 -4 30 -8 40
-7 50 5 25 31 60 35 178 22 103 -11 118 -10 148 5 17 9 32 18 32 20 0 1 -36 1
-79 -2 -95 -5 -171 11 -212 45 l-29 25 -19 -45z"/>
<path d="M2870 5870 c-28 -21 -23 -35 9 -25 25 8 49 45 29 45 -7 0 -24 -9 -38
-20z"/>
<path d="M4114 5853 c-23 -4 -61 -40 -52 -48 3 -3 29 0 59 6 71 15 217 6 297
-19 71 -23 81 -9 16 22 -21 10 -47 25 -56 33 -14 13 -20 13 -33 3 -14 -12
-106 -9 -190 4 -11 2 -30 2 -41 -1z"/>
<path d="M3630 5815 c-32 -34 -78 -45 -185 -45 -85 0 -159 -12 -169 -28 -2 -4
66 -7 152 -7 143 1 161 3 200 23 49 26 61 47 40 68 -12 13 -17 11 -38 -11z"/>
<path d="M4580 5784 c0 -9 89 -34 122 -34 8 0 21 7 28 15 10 12 9 15 -7 15
-11 0 -48 3 -82 6 -35 4 -61 3 -61 -2z"/>
<path d="M2557 5766 c-21 -8 -74 -38 -118 -67 l-81 -53 4 -108 c3 -98 5 -110
27 -130 l23 -23 -6 118 c-7 116 -7 117 18 142 14 14 68 45 119 69 52 24 97 49
101 55 10 15 -39 14 -87 -3z"/>
<path d="M3079 5769 c-48 -7 -115 -36 -105 -46 3 -3 35 0 71 7 36 7 84 10 106
7 39 -5 49 2 27 20 -21 16 -50 20 -99 12z"/>
<path d="M1956 5671 c-29 -29 -47 -56 -44 -66 2 -14 14 -8 56 32 46 43 67 83
44 83 -4 0 -29 -22 -56 -49z"/>
<path d="M2076 5676 c-37 -35 -46 -56 -23 -56 15 0 33 19 60 63 24 37 6 34
-37 -7z"/>
<path d="M1870 5684 c-86 -13 -136 -30 -189 -64 -105 -68 -164 -189 -147 -302
6 -41 11 -47 35 -53 16 -3 41 -19 56 -35 31 -33 50 -38 58 -16 12 31 -9 71
-46 89 -49 23 -62 56 -47 117 26 102 133 221 210 232 21 2 24 -1 22 -19 -2
-13 1 -23 7 -23 12 0 71 58 71 71 0 5 -1 8 -2 8 -2 -1 -14 -3 -28 -5z"/>
<path d="M2265 5659 c-4 -12 -31 -48 -61 -80 -62 -68 -67 -93 -33 -183 39
-105 145 -196 281 -242 77 -26 241 -58 261 -51 23 9 -66 38 -176 58 -73 13
-116 25 -124 36 -7 9 -45 39 -84 67 -85 60 -104 92 -117 195 l-9 74 39 44 c25
30 38 54 38 74 0 34 -6 37 -15 8z"/>
<path d="M5495 5667 c-10 -8 -15 -19 -12 -25 10 -15 46 -3 58 19 8 15 6 19 -9
19 -10 0 -26 -6 -37 -13z"/>
<path d="M4792 5617 c-26 -27 -30 -62 -7 -53 9 3 51 -6 95 -20 76 -25 82 -25
105 -10 14 9 25 23 25 30 0 11 -7 12 -34 4 -46 -14 -83 -3 -124 38 -19 19 -35
34 -36 34 -1 0 -12 -10 -24 -23z"/>
<path d="M2543 5620 c-26 -10 -29 -20 -11 -38 16 -16 48 3 48 28 0 22 -4 23
-37 10z"/>
<path d="M5295 5620 c-8 -13 6 -17 70 -23 l50 -5 -24 19 c-25 20 -86 26 -96 9z"/>
<path d="M5563 5623 c-25 -10 -14 -33 16 -33 24 0 41 14 41 36 0 5 -42 4 -57
-3z"/>
<path d="M5573 5558 c-35 -17 -27 -30 15 -23 77 13 92 17 97 26 8 13 -85 10
-112 -3z"/>
<path d="M4414 5531 c-37 -17 -54 -36 -54 -62 0 -5 10 -3 23 4 12 8 47 22 78
31 31 10 65 24 75 31 17 13 14 14 -31 14 -28 1 -68 -8 -91 -18z"/>
<path d="M5886 5469 c-9 -44 -8 -49 9 -49 19 0 38 36 30 60 -10 30 -32 24 -39
-11z"/>
<path d="M3300 5450 c-8 -15 -8 -30 1 -54 10 -28 9 -37 -4 -57 -28 -40 -15
-86 17 -60 7 6 35 14 61 18 l48 6 -37 19 c-40 21 -50 45 -13 33 73 -23 100
-14 55 19 -22 15 -22 16 -5 30 17 13 16 16 -26 40 -53 31 -83 33 -97 6z"/>
<path d="M3524 5435 c-35 -35 -20 -54 24 -31 17 9 41 16 52 16 36 0 20 34 -17
38 -25 2 -39 -3 -59 -23z"/>
<path d="M4280 5430 c0 -14 7 -20 24 -20 23 0 41 22 29 34 -4 3 -17 6 -30 6
-16 0 -23 -6 -23 -20z"/>
<path d="M4461 5401 c-11 -19 -10 -26 5 -42 38 -42 62 -4 25 42 l-18 23 -12
-23z"/>
<path d="M6013 5365 c-41 -17 -45 -40 -5 -30 32 8 46 19 41 33 -3 7 -16 5 -36
-3z"/>
<path d="M2560 5347 c-19 -7 -36 -20 -38 -29 -3 -15 1 -15 43 -3 54 17 65 23
65 36 0 12 -27 11 -70 -4z"/>
<path d="M4056 5333 l-188 -3 7 -38 c12 -64 12 -64 84 -17 51 32 55 33 82 20
30 -16 106 -18 182 -6 72 12 120 -1 173 -45 77 -65 94 -72 259 -105 161 -32
197 -44 277 -98 33 -22 69 -33 157 -49 110 -19 114 -19 90 -1 -40 30 -162 78
-287 110 -84 23 -168 56 -302 119 -102 48 -201 93 -220 98 -53 15 -107 18
-314 15z"/>
<path d="M5642 5325 c4 -4 35 -18 70 -30 35 -12 90 -32 122 -44 69 -26 142
-29 182 -7 29 15 29 15 -21 9 -40 -4 -71 2 -157 30 -103 34 -210 57 -196 42z"/>
<path d="M5560 5300 c0 -18 -5 -20 -38 -14 -33 5 -202 -13 -296 -32 l-30 -6
25 -14 c32 -18 71 -17 165 2 47 10 101 14 135 11 56 -5 58 -4 69 23 7 16 9 34
5 39 -11 19 -35 12 -35 -9z"/>
<path d="M1140 5286 c0 -33 17 -76 30 -76 14 0 13 73 -2 88 -19 19 -28 14 -28
-12z"/>
<path d="M4930 5265 c-10 -13 -7 -17 25 -31 41 -17 68 -13 59 9 -5 14 -45 37
-63 37 -5 0 -14 -7 -21 -15z"/>
<path d="M3050 5235 c0 -9 11 -27 25 -40 18 -19 35 -25 70 -25 76 0 51 47 -37
69 -59 14 -58 14 -58 -4z"/>
<path d="M1726 5224 c-7 -18 2 -63 17 -81 5 -7 18 -13 29 -13 16 0 19 4 14 23
-4 12 -9 37 -13 55 -6 35 -36 45 -47 16z"/>
<path d="M3790 5210 c-30 -10 -88 -28 -128 -40 l-72 -21 -31 -60 c-17 -34 -57
-88 -93 -123 -55 -55 -66 -62 -94 -58 -50 7 -102 -31 -167 -119 -56 -77 -105
-119 -139 -119 -11 0 -16 -9 -16 -30 0 -32 -16 -51 -83 -103 -40 -30 -47 -47
-19 -47 35 0 99 50 172 135 86 101 114 124 161 134 30 6 34 11 37 44 3 29 7
37 23 37 31 0 59 18 130 85 41 38 78 64 98 68 17 4 31 13 31 21 0 29 53 77
129 116 43 22 91 54 106 70 33 34 30 35 -45 10z"/>
<path d="M1017 5206 c-15 -40 37 -136 74 -136 12 0 12 0 -6 51 -28 82 -56 116
-68 85z"/>
<path d="M8515 5196 c-33 -12 -70 -28 -82 -35 -44 -23 -22 -28 40 -9 98 31
117 39 117 54 0 17 -1 17 -75 -10z"/>
<path d="M3960 5183 c0 -22 -11 -35 -48 -60 -26 -18 -99 -75 -162 -128 -63
-53 -134 -108 -157 -123 -33 -21 -43 -33 -43 -54 0 -23 -7 -29 -55 -47 -128
-48 -216 -116 -255 -196 l-21 -43 26 -27 c14 -16 25 -32 25 -36 0 -5 5 -9 11
-9 8 0 10 21 7 65 -3 46 0 66 9 69 15 6 48 -57 40 -76 -3 -7 -12 -29 -21 -49
-15 -36 -15 -38 12 -72 15 -20 30 -36 35 -37 4 0 7 24 7 54 0 62 16 84 49 67
37 -20 44 -14 37 32 -9 54 -20 65 -44 44 -25 -23 -37 -21 -38 6 -1 12 -5 37
-9 55 -7 28 -5 32 13 32 12 0 26 -9 32 -20 16 -30 32 -24 62 25 21 34 33 45
53 45 27 0 32 9 13 28 -6 6 -8 15 -4 19 5 5 15 -2 23 -14 18 -27 45 -30 42 -5
-3 32 1 42 16 42 18 0 18 5 4 31 -6 12 -8 28 -4 37 4 12 14 4 41 -33 41 -59
50 -65 92 -65 29 0 32 3 32 28 0 32 -22 56 -60 67 -34 10 -70 33 -70 45 0 6
18 10 40 10 31 0 43 5 56 26 l17 25 41 -39 c41 -40 75 -62 95 -62 22 0 10 17
-33 47 -83 58 -97 113 -24 93 27 -8 30 -6 54 43 29 58 61 97 80 97 6 0 12 -10
11 -22 0 -13 4 -42 8 -65 7 -43 7 -43 -22 -43 -20 0 -40 -11 -66 -38 -37 -38
-37 -39 -18 -56 23 -21 41 -14 41 18 0 22 17 46 32 46 4 0 8 -8 8 -18 0 -10 8
-28 17 -42 12 -17 13 -25 5 -28 -32 -10 -42 -35 -42 -102 0 -63 2 -69 22 -72
31 -4 34 -26 4 -38 -29 -10 -32 -21 -15 -52 9 -16 8 -23 -2 -29 -22 -13 -24
-12 -43 32 -19 43 -71 77 -100 66 -13 -5 -9 -14 21 -45 26 -25 47 -63 66 -115
16 -42 39 -90 53 -106 13 -16 24 -32 24 -35 0 -4 -21 -16 -47 -28 l-48 -22 40
-5 c35 -5 42 -11 60 -48 16 -36 24 -42 55 -45 28 -2 36 -8 38 -26 3 -23 4 -23
29 -6 43 28 96 23 147 -14 26 -17 66 -46 90 -63 35 -25 53 -31 95 -31 44 1 53
-3 62 -21 8 -17 28 -26 83 -39 39 -10 81 -18 92 -18 11 0 31 -12 45 -26 36
-39 128 -108 176 -133 45 -23 102 -27 134 -11 32 18 21 30 -26 30 -59 0 -94
18 -144 77 -22 26 -43 44 -47 40 -4 -3 -1 -13 6 -22 7 -9 10 -18 7 -22 -12
-12 -38 20 -48 62 -10 40 -12 42 -68 53 -31 7 -69 12 -84 12 -22 0 -27 5 -27
25 0 21 -5 25 -29 25 -15 0 -40 9 -54 20 -30 24 -47 26 -47 5 0 -19 2 -19 -75
6 -73 23 -83 32 -60 55 9 9 15 24 13 33 -4 20 -48 28 -48 9 -1 -38 -17 -40
-79 -8 -48 24 -73 30 -111 29 -37 -2 -55 2 -71 17 -31 28 -43 54 -30 67 16 16
13 43 -9 79 -11 18 -20 43 -20 56 0 26 25 30 39 5 21 -39 24 2 4 58 -21 56
-21 60 -5 91 15 28 17 67 17 264 0 214 1 233 19 253 21 23 62 27 101 9 22 -10
25 -16 20 -40 -5 -21 -3 -28 9 -28 9 0 21 9 28 20 22 34 47 24 68 -26 16 -37
24 -45 42 -42 17 2 22 9 21 26 -3 26 18 29 41 6 23 -22 20 -39 -9 -58 -37 -24
-33 -51 8 -51 26 0 33 5 38 25 3 16 11 23 20 21 47 -13 69 -12 75 3 9 23 18
20 54 -15 26 -27 30 -37 25 -63 -4 -17 -14 -37 -23 -44 -15 -11 -14 -15 10
-37 31 -29 38 -31 38 -10 0 8 14 22 31 31 26 13 33 14 40 2 5 -7 9 -16 9 -20
0 -4 9 -9 20 -13 23 -7 54 7 92 42 32 30 48 23 48 -22 0 -41 10 -48 44 -35 23
8 25 12 14 29 -7 11 -9 23 -5 27 11 11 39 -18 55 -56 15 -38 40 -70 54 -70 13
0 9 29 -8 55 -15 24 -12 45 7 45 5 0 28 -29 51 -65 29 -45 45 -62 52 -55 7 7
4 21 -8 45 -11 19 -16 38 -13 41 9 9 45 -35 53 -63 8 -29 20 -29 35 -2 l11 21
15 -22 c13 -18 21 -20 54 -15 41 7 79 0 79 -16 0 -5 -11 -9 -25 -9 -29 0 -35
-30 -9 -51 12 -10 27 -10 74 -1 54 12 90 9 90 -7 0 -14 -25 -31 -46 -31 -27 0
-41 -17 -25 -33 8 -8 24 -6 58 9 46 19 49 19 66 2 16 -17 57 -25 57 -11 0 3
-7 15 -17 25 -15 17 -14 18 15 18 22 0 36 -7 49 -25 10 -14 25 -36 34 -47 l16
-22 26 29 c15 17 27 32 27 36 0 3 -33 15 -72 28 -40 13 -215 76 -388 141 -285
107 -486 174 -625 211 -27 7 -97 39 -153 70 -155 86 -339 139 -484 139 -57 0
-58 -1 -58 -27z"/>
<path d="M1211 5181 c-13 -23 -14 -61 -3 -61 15 0 32 24 32 46 0 31 -17 39
-29 15z"/>
<path d="M1814 5138 c8 -38 11 -42 31 -34 25 9 30 37 10 52 -33 24 -48 18 -41
-18z"/>
<path d="M2105 5109 c50 -50 173 -111 284 -139 46 -12 85 -19 88 -17 8 9 -102
57 -157 68 -40 8 -69 23 -105 53 -73 62 -97 76 -124 76 -24 0 -24 -1 14 -41z"/>
<path d="M6290 5142 c0 -6 17 -12 37 -14 20 -2 38 -9 41 -17 4 -11 -9 -12 -67
-6 -49 5 -71 4 -71 -4 0 -6 13 -11 28 -11 38 0 59 -18 67 -57 6 -29 4 -33 -21
-39 -15 -4 -63 -1 -106 6 -43 7 -81 10 -84 7 -14 -14 11 -25 66 -29 33 -2 66
-10 72 -16 9 -9 -12 -11 -88 -9 -93 2 -164 -12 -164 -33 0 -4 25 -10 56 -13
61 -6 89 -22 61 -33 -10 -3 -32 -3 -50 0 -97 19 -117 19 -117 2 0 -12 9 -16
35 -16 26 0 35 -4 35 -16 0 -14 -7 -16 -43 -11 -24 3 -52 9 -62 12 -17 6 -17
4 4 -14 33 -30 93 -27 166 7 33 16 74 40 90 54 17 13 51 32 77 42 57 21 122
89 137 142 15 53 14 64 -6 64 -10 0 -35 3 -55 6 -24 4 -38 3 -38 -4z"/>
<path d="M1270 5115 c-13 -35 -13 -41 6 -59 26 -27 35 -18 32 31 -3 53 -23 68
-38 28z"/>
<path d="M8573 5125 c-73 -16 -99 -29 -113 -55 -6 -11 -9 -20 -6 -20 13 0 166
63 182 75 23 17 17 17 -63 0z"/>
<path d="M5681 5086 c-10 -11 -7 -17 11 -30 28 -20 58 -21 58 -2 0 7 -11 21
-25 30 -30 19 -30 19 -44 2z"/>
<path d="M8645 5061 c-59 -27 -135 -84 -135 -102 0 -14 49 11 128 64 107 73
109 86 7 38z"/>
<path d="M8815 5060 c-27 -16 -68 -48 -90 -70 l-40 -42 65 32 c80 40 117 66
130 91 15 28 -5 24 -65 -11z"/>
<path d="M970 5059 c0 -13 28 -50 69 -93 84 -87 95 -107 86 -155 l-7 -36 -18
41 c-26 59 -45 68 -37 19 8 -48 54 -97 114 -120 50 -19 60 -16 43 15 -6 12 -9
24 -6 27 10 11 37 -20 107 -121 75 -109 104 -146 114 -146 3 0 3 5 0 10 -3 6
-3 20 0 31 5 16 13 20 32 16 22 -4 24 -2 18 21 l-6 26 18 -21 c17 -20 63 -41
63 -29 0 3 -19 27 -43 54 -34 38 -47 46 -59 38 -12 -7 -24 -3 -48 17 -17 15
-36 25 -41 21 -12 -7 8 -45 33 -62 10 -7 18 -19 18 -27 0 -22 -128 120 -136
149 -3 14 -3 41 0 59 5 28 2 35 -23 50 -55 32 -133 95 -205 166 -41 39 -76 71
-80 71 -3 0 -6 -9 -6 -21z"/>
<path d="M8050 5062 l-45 -17 66 -3 c68 -3 125 11 114 28 -9 15 -84 11 -135
-8z"/>
<path d="M1377 5063 c-11 -11 -8 -48 5 -61 18 -18 48 -15 48 6 0 21 -43 66
-53 55z"/>
<path d="M6197 5054 c-13 -13 5 -24 39 -24 24 0 34 4 32 13 -5 13 -60 22 -71
11z"/>
<path d="M7735 5026 c-79 -22 -131 -44 -122 -52 6 -6 188 40 215 55 53 28 14
27 -93 -3z"/>
<path d="M9018 5034 c-34 -18 -37 -44 -5 -44 28 0 67 26 67 46 0 18 -27 17
-62 -2z"/>
<path d="M4072 4988 c-16 -16 -15 -33 3 -48 19 -16 21 -14 30 28 7 34 -9 44
-33 20z"/>
<path d="M4532 4984 c-7 -8 -22 -14 -32 -14 -22 0 -25 -16 -10 -40 8 -13 13
-13 37 0 29 16 42 46 26 60 -4 5 -14 2 -21 -6z"/>
<path d="M6447 4951 c-40 -29 -84 -53 -105 -56 -64 -11 -64 -11 -47 -51 8 -20
15 -40 15 -44 0 -5 -33 -14 -72 -20 -108 -18 -216 -55 -280 -95 -32 -20 -58
-40 -58 -45 0 -13 102 -21 138 -11 35 10 100 45 196 104 33 21 69 37 80 37 25
0 38 9 52 35 6 11 36 37 68 59 66 44 89 74 84 111 l-3 26 -68 -50z"/>
<path d="M5230 4980 c0 -49 135 -160 195 -160 58 -1 107 -19 188 -68 75 -46
170 -82 183 -69 7 7 -96 77 -165 112 -71 35 -132 53 -209 61 -61 7 -63 8 -88
50 -27 47 -68 84 -90 84 -8 0 -14 -5 -14 -10z"/>
<path d="M7674 4951 c-85 -26 -171 -67 -160 -78 8 -9 230 67 256 87 34 26 14
25 -96 -9z"/>
<path d="M9125 4970 c-42 -9 -165 -77 -165 -91 0 -8 127 9 147 20 10 5 31 23
46 39 31 33 23 43 -28 32z"/>
<path d="M2592 4953 c-15 -27 3 -59 38 -72 31 -10 32 -10 26 15 -8 31 -35 74
-47 74 -4 0 -12 -8 -17 -17z"/>
<path d="M7969 4950 c-50 -9 -89 -26 -89 -39 0 -11 78 4 124 23 36 15 47 27
24 25 -7 -1 -34 -5 -59 -9z"/>
<path d="M846 4913 c-19 -96 -48 -349 -53 -468 -5 -125 5 -276 23 -342 5 -17
2 -21 -13 -17 -17 5 -18 -4 -21 -106 -4 -100 -2 -110 13 -104 20 8 35 -11 35
-43 0 -13 -11 -28 -28 -38 l-27 -17 3 -330 4 -331 -30 6 c-33 7 -49 -5 -35
-25 4 -7 8 -29 8 -48 0 -29 3 -35 20 -33 11 1 31 4 45 5 29 3 30 -5 4 -100
-15 -54 -15 -72 -5 -132 14 -77 50 -160 115 -259 36 -56 51 -70 78 -76 56 -12
103 -42 151 -95 37 -41 59 -55 114 -74 37 -13 160 -58 272 -100 217 -82 372
-126 511 -147 59 -8 89 -17 97 -29 10 -14 32 -19 110 -22 89 -4 109 -9 218
-53 108 -44 128 -49 205 -50 66 -2 95 -7 128 -24 37 -19 44 -20 65 -7 34 22
75 26 160 18 77 -8 78 -8 123 25 26 17 51 34 58 36 6 2 -7 32 -34 73 -55 83
-73 121 -60 129 18 11 29 75 18 106 -9 27 -34 49 -55 49 -5 0 -4 -56 2 -123
10 -103 16 -132 38 -172 15 -26 27 -49 27 -51 0 -6 -75 -24 -103 -24 -15 0
-62 11 -105 26 l-77 25 -44 -19 c-42 -19 -44 -19 -104 -1 -34 11 -154 37 -267
60 -469 93 -562 118 -699 188 -56 29 -97 43 -155 51 -211 28 -357 100 -435
214 -25 36 -37 44 -71 49 -88 12 -153 83 -185 202 -19 72 -22 287 -5 421 9 67
9 135 -1 274 -9 138 -9 206 -1 265 14 98 36 176 60 204 l17 22 58 -52 c54 -48
97 -111 97 -142 0 -34 176 -86 247 -72 l38 7 -75 22 c-212 64 -205 60 -175
100 8 11 15 27 15 35 0 17 -164 109 -230 130 l-36 11 1 88 c0 48 -4 143 -8
212 -7 105 -6 134 8 180 9 30 16 66 14 80 -3 38 -3 164 0 265 4 93 -7 134 -42
164 -13 10 -16 7 -21 -16z"/>
<path d="M2706 4931 c-12 -18 13 -58 43 -71 40 -16 46 -9 27 29 -21 39 -58 62
-70 42z"/>
<path d="M996 4855 c9 -55 21 -75 44 -75 18 0 18 2 4 38 -9 20 -25 46 -36 57
-19 20 -19 20 -12 -20z"/>
<path d="M4232 4878 c-18 -18 -14 -28 12 -28 20 0 36 16 36 36 0 9 -37 3 -48
-8z"/>
<path d="M1579 4873 c-6 -42 14 -93 37 -93 12 0 14 8 8 38 -4 20 -11 43 -17
50 -11 13 -26 16 -28 5z"/>
<path d="M9088 4849 c-39 -20 -51 -49 -20 -49 26 0 82 38 82 55 0 20 -17 18
-62 -6z"/>
<path d="M11035 4858 c-33 -5 -78 -11 -100 -14 -38 -4 -112 -40 -103 -49 9
-10 187 24 231 43 41 18 62 35 40 31 -5 -1 -35 -6 -68 -11z"/>
<path d="M4646 4844 c-9 -22 11 -54 34 -54 24 0 26 18 4 48 -18 26 -30 28 -38
6z"/>
<path d="M1720 4843 c-8 -3 -18 -11 -22 -17 -11 -16 -10 -46 2 -46 15 0 50 38
50 55 0 16 -5 17 -30 8z"/>
<path d="M4121 4814 c-22 -27 -26 -46 -14 -57 11 -12 53 35 53 60 0 30 -14 29
-39 -3z"/>
<path d="M4337 4814 c-13 -14 22 -64 45 -64 4 0 8 8 8 19 0 19 -43 55 -53 45z"/>
<path d="M7526 4794 c-62 -21 -143 -70 -133 -80 10 -11 149 48 191 81 31 24
15 24 -58 -1z"/>
<path d="M7808 4790 c-50 -27 -57 -41 -16 -34 82 14 128 27 139 40 18 22 -78
18 -123 -6z"/>
<path d="M10027 4799 c-16 -4 -35 -13 -42 -19 -17 -14 -50 -98 -42 -107 9 -9
84 43 103 71 8 14 14 33 12 44 -2 15 -8 17 -31 11z"/>
<path d="M1350 4790 c0 -12 68 -64 116 -88 22 -11 102 -39 178 -62 l138 -41
24 26 c13 15 22 30 19 34 -2 5 -48 11 -102 14 -113 6 -232 41 -319 93 -30 18
-54 29 -54 24z"/>
<path d="M1889 4764 l-24 -26 24 4 c28 4 64 48 39 48 -8 0 -25 -12 -39 -26z"/>
<path d="M2018 4769 c-35 -18 -66 -55 -55 -66 7 -6 100 60 105 75 5 16 -7 15
-50 -9z"/>
<path d="M6446 4714 c-19 -83 -15 -102 15 -66 22 28 34 82 25 117 -11 42 -21
28 -40 -51z"/>
<path d="M4891 4771 c-17 -11 -8 -27 19 -34 16 -4 20 0 20 19 0 25 -15 30 -39
15z"/>
<path d="M2120 4739 c-83 -68 -84 -71 -40 -94 53 -27 85 -20 140 33 46 45 62
72 41 72 -4 0 -29 -18 -54 -40 -25 -22 -52 -40 -61 -40 -30 0 -30 30 0 61 32
34 13 40 -26 8z"/>
<path d="M10077 4743 c-2 -5 -7 -21 -11 -38 -4 -16 -14 -38 -23 -47 -13 -15
-11 -17 24 -27 54 -15 59 -14 82 18 25 34 27 61 6 61 -8 0 -20 9 -27 20 -13
20 -43 27 -51 13z"/>
<path d="M6342 4672 c-12 -38 -22 -74 -22 -80 0 -20 30 -1 45 29 16 29 21 119
7 119 -4 0 -18 -31 -30 -68z"/>
<path d="M8153 4729 c-12 -4 -27 -17 -33 -28 -9 -18 -8 -21 8 -21 21 0 56 34
51 48 -3 6 -13 6 -26 1z"/>
<path d="M3630 4699 c12 -22 37 -35 47 -25 9 8 -27 46 -44 46 -11 0 -11 -4 -3
-21z"/>
<path d="M7728 4690 c-48 -16 -116 -44 -150 -61 -103 -52 -264 -169 -232 -169
12 0 136 72 239 138 58 38 97 55 140 63 61 11 105 32 105 49 0 14 -5 13 -102
-20z"/>
<path d="M2292 4672 c-32 -27 -40 -42 -23 -42 13 0 71 50 71 61 0 15 -13 10
-48 -19z"/>
<path d="M4140 4686 c0 -12 10 -16 36 -16 45 0 42 24 -4 28 -24 2 -32 -1 -32
-12z"/>
<path d="M6261 4643 c-17 -38 -21 -57 -13 -65 7 -7 16 4 31 37 22 50 26 71 14
78 -5 3 -19 -20 -32 -50z"/>
<path d="M7440 4665 c-80 -27 -122 -48 -141 -71 -35 -43 135 18 196 70 36 30
30 30 -55 1z"/>
<path d="M6498 4642 c-10 -20 -27 -53 -38 -73 -12 -21 -18 -43 -14 -53 5 -14
11 -9 31 23 35 60 51 104 44 123 -5 13 -10 9 -23 -20z"/>
<path d="M4235 4656 c-18 -13 -17 -14 8 -30 14 -10 31 -15 37 -11 16 10 12 42
-6 49 -20 8 -17 8 -39 -8z"/>
<path d="M5100 4634 c0 -28 3 -35 18 -32 11 2 18 14 20 36 3 27 0 32 -17 32
-17 0 -21 -6 -21 -36z"/>
<path d="M2395 4651 c-32 -8 -79 -31 -73 -36 1 -2 39 -10 83 -18 44 -9 110
-25 147 -36 l67 -19 36 39 c54 60 44 84 -13 29 -18 -16 -36 -30 -41 -30 -15 0
-41 30 -41 46 0 11 -4 12 -19 4 -11 -5 -36 -10 -55 -10 -29 0 -36 4 -36 20 0
21 -7 22 -55 11z"/>
<path d="M5211 4620 c-25 -49 -25 -50 -4 -50 9 0 27 -10 40 -22 13 -12 25 -19
28 -16 7 6 -20 107 -32 119 -7 7 -18 -4 -32 -31z"/>
<path d="M3510 4624 c-12 -22 -12 -27 0 -34 21 -13 30 -12 30 3 0 6 3 22 6 35
9 31 -19 29 -36 -4z"/>
<path d="M4605 4608 c9 -51 10 -52 30 -45 32 13 13 87 -23 87 -11 0 -12 -10
-7 -42z"/>
<path d="M7932 4621 c-18 -11 -19 -55 -1 -59 19 -3 49 23 49 43 0 14 -33 26
-48 16z"/>
<path d="M2766 4601 c-36 -24 -52 -49 -39 -62 6 -6 24 4 46 26 54 52 49 73 -7
36z"/>
<path d="M1876 4592 c-2 -4 12 -8 32 -9 20 -1 80 -22 132 -47 130 -61 209 -74
153 -24 -60 53 -297 112 -317 80z"/>
<path d="M2857 4552 c-15 -20 -24 -38 -18 -40 17 -6 49 17 56 39 12 38 -9 38
-38 1z"/>
<path d="M6786 4575 c-66 -23 -71 -63 -6 -45 19 5 49 21 65 35 l30 24 -25 0
c-14 0 -43 -6 -64 -14z"/>
<path d="M5863 4523 c30 -90 28 -196 -6 -265 l-27 -56 20 -48 c33 -77 78 -104
52 -30 -15 40 -15 53 3 162 30 190 23 238 -41 281 l-21 13 20 -57z"/>
<path d="M10288 4559 c-25 -26 -23 -35 11 -49 45 -18 66 -10 69 28 2 21 -1 32
-10 32 -7 0 -22 2 -33 5 -12 2 -27 -4 -37 -16z"/>
<path d="M1600 4557 c0 -20 30 -57 46 -57 20 0 17 27 -6 50 -23 23 -40 26 -40
7z"/>
<path d="M1677 4563 c-2 -5 22 -30 54 -56 52 -42 59 -45 59 -26 0 30 21 19 47
-26 26 -47 53 -65 53 -37 0 22 -31 65 -74 102 -45 39 -57 44 -67 29 -7 -11
-13 -11 -38 4 -16 9 -32 14 -34 10z"/>
<path d="M8540 4538 c-27 -36 -25 -56 4 -64 36 -9 57 1 106 51 l43 44 -66 -2
c-60 -2 -69 -5 -87 -29z"/>
<path d="M7579 4516 c-111 -45 -273 -128 -299 -152 -35 -34 349 138 406 181
31 24 4 16 -107 -29z"/>
<path d="M7983 4543 c-18 -7 -16 -48 2 -63 9 -7 17 -11 18 -9 7 11 27 61 27
69 0 10 -26 12 -47 3z"/>
<path d="M8145 4539 c-9 -14 12 -29 43 -29 17 0 23 5 20 18 -4 20 -52 29 -63
11z"/>
<path d="M9040 4530 c-9 -17 -8 -20 13 -20 43 0 129 -31 153 -55 22 -22 24
-23 24 -5 0 11 -7 35 -16 54 -13 27 -24 35 -53 40 -71 12 -110 7 -121 -14z"/>
<path d="M4140 4530 c0 -6 -12 -15 -27 -21 -18 -6 -23 -13 -16 -20 22 -22 94
16 78 41 -8 13 -35 13 -35 0z"/>
<path d="M8700 4491 c0 -36 4 -50 17 -55 20 -8 33 10 33 46 0 39 -10 58 -31
58 -16 0 -19 -8 -19 -49z"/>
<path d="M8826 4493 c7 -55 23 -123 29 -123 2 0 15 5 28 11 22 10 24 14 15 51
-15 67 -43 108 -74 108 -2 0 -1 -21 2 -47z"/>
<path d="M9362 4524 c-34 -24 -26 -34 27 -34 55 0 74 16 46 37 -25 17 -45 17
-73 -3z"/>
<path d="M9640 4523 c-12 -8 -20 -25 -20 -42 0 -26 4 -29 46 -35 81 -11 104
-8 104 12 0 25 -49 68 -82 74 -15 3 -37 -1 -48 -9z"/>
<path d="M10162 4518 c2 -12 11 -24 21 -26 14 -3 18 1 15 20 -2 12 -11 24 -21
26 -14 3 -18 -1 -15 -20z"/>
<path d="M3168 4514 c-53 -28 -74 -113 -43 -173 16 -32 33 -41 76 -41 33 0 38
22 14 54 -10 13 -21 17 -39 12 -24 -6 -26 -4 -26 30 0 36 1 37 19 20 19 -17
20 -17 32 6 6 13 17 26 23 30 8 5 7 13 -1 28 -7 11 -13 27 -13 35 0 18 -7 18
-42 -1z"/>
<path d="M2328 4513 c-26 -7 -22 -23 5 -23 13 0 60 -18 106 -40 94 -46 159
-63 197 -54 25 6 23 9 -37 47 -102 65 -198 89 -271 70z"/>
<path d="M6430 4452 c-67 -67 -70 -92 -5 -52 44 27 85 76 85 101 0 10 -3 18
-7 18 -5 -1 -37 -31 -73 -67z"/>
<path d="M1955 4423 c30 -49 61 -97 70 -108 15 -19 16 -17 12 32 -3 37 -12 62
-32 88 -24 33 -79 75 -97 75 -4 0 18 -39 47 -87z"/>
<path d="M5138 4479 c-42 -16 -42 -36 0 -43 41 -6 69 12 59 38 -7 18 -20 19
-59 5z"/>
<path d="M3567 4473 c-13 -12 15 -33 44 -33 40 0 44 16 7 29 -36 13 -42 13
-51 4z"/>
<path d="M5730 4456 c0 -14 -14 -55 -32 -90 -34 -69 -33 -86 1 -64 34 21 64
92 57 133 -8 42 -26 56 -26 21z"/>
<path d="M7595 4451 c-126 -45 -219 -88 -311 -142 -163 -97 -54 -62 161 51 72
38 150 71 175 75 45 7 70 20 70 36 0 13 -6 11 -95 -20z"/>
<path d="M2035 4443 c7 -30 60 -91 70 -81 11 10 -7 57 -31 83 -31 34 -48 33
-39 -2z"/>
<path d="M5425 4438 c-62 -27 -58 -23 -51 -46 4 -12 27 -27 61 -40 l55 -20 0
39 c0 21 4 41 10 44 5 3 15 15 20 26 9 17 7 19 -17 19 -15 -1 -50 -10 -78 -22z"/>
<path d="M6051 4446 c-47 -15 -51 -33 -7 -28 19 2 37 11 41 19 8 22 5 22 -34
9z"/>
<path d="M8145 4453 c-54 -13 -35 -53 25 -53 36 0 49 14 50 53 0 8 -42 8 -75
0z"/>
<path d="M2745 4440 c-3 -6 6 -15 22 -21 33 -13 143 -25 143 -16 0 4 -18 16
-40 27 -41 21 -114 27 -125 10z"/>
<path d="M3416 4434 c-20 -19 -21 -48 -3 -63 11 -8 16 -5 25 15 24 52 11 81
-22 48z"/>
<path d="M2120 4436 c0 -23 31 -75 54 -89 32 -21 32 -17 2 31 -23 37 -56 71
-56 58z"/>
<path d="M7837 4410 c-44 -38 -56 -83 -31 -111 19 -21 44 -25 44 -7 0 6 13 32
29 57 16 25 31 55 33 66 5 33 -35 30 -75 -5z"/>
<path d="M12045 4433 c-44 -11 -34 -22 26 -27 35 -4 78 -3 94 2 l30 9 -40 11
c-41 12 -74 13 -110 5z"/>
<path d="M2981 4404 c-41 -34 -41 -81 -2 -158 24 -48 27 -63 20 -99 -9 -47 -1
-125 13 -133 5 -4 23 6 39 22 28 27 28 28 9 41 -16 12 -19 21 -14 52 4 25 -2
74 -16 136 -14 60 -20 109 -16 131 4 19 5 34 2 34 -2 0 -18 -12 -35 -26z"/>
<path d="M3820 4422 c0 -13 54 -35 77 -30 10 2 18 10 18 18 0 11 -14 16 -47
18 -27 2 -48 -1 -48 -6z"/>
<path d="M6994 4401 c-67 -31 -133 -90 -160 -143 l-16 -33 33 31 c19 17 73 61
122 98 48 37 87 69 87 72 0 6 2 7 -66 -25z"/>
<path d="M8566 4423 c-23 -23 14 -93 49 -93 17 0 20 32 5 60 -12 23 -44 42
-54 33z"/>
<path d="M9012 4398 c2 -25 8 -34 26 -36 17 -3 22 1 22 20 0 27 -17 48 -38 48
-9 0 -12 -10 -10 -32z"/>
<path d="M5074 4405 c-8 -20 13 -45 37 -45 23 0 24 9 3 38 -18 26 -32 28 -40
7z"/>
<path d="M9090 4388 c0 -17 8 -40 17 -50 16 -18 17 -18 39 3 l23 22 -36 28
c-20 16 -37 29 -39 29 -2 0 -4 -14 -4 -32z"/>
<path d="M2220 4396 c0 -23 47 -79 84 -101 42 -24 88 -31 134 -19 32 9 27 18
-17 39 -22 10 -50 28 -62 41 -27 29 -39 30 -39 5 0 -36 -21 -34 -61 5 -21 21
-39 34 -39 30z"/>
<path d="M6462 4368 c-13 -35 -2 -58 16 -35 15 18 20 59 7 63 -6 3 -16 -10
-23 -28z"/>
<path d="M8421 4368 c-6 -17 -11 -53 -11 -79 0 -54 18 -73 60 -62 21 5 22 10
17 57 -10 95 -46 141 -66 84z"/>
<path d="M9352 4382 c-35 -27 -19 -49 44 -62 61 -13 74 -9 74 26 0 28 -30 33
-50 9 -16 -19 -30 -10 -30 21 0 28 -7 30 -38 6z"/>
<path d="M10544 4385 c-26 -18 -47 -65 -42 -97 2 -18 8 -22 28 -20 32 3 71 31
90 65 13 23 13 28 -4 46 -22 25 -44 26 -72 6z"/>
<path d="M5590 4372 c0 -24 25 -46 43 -39 8 3 13 16 12 29 -2 31 -55 41 -55
10z"/>
<path d="M9610 4371 c-23 -44 3 -71 66 -71 22 0 24 3 18 28 -11 46 -24 62 -49
62 -14 0 -29 -8 -35 -19z"/>
<path d="M7520 4351 c-145 -54 -284 -135 -345 -201 l-30 -33 45 27 c25 15 72
41 105 58 33 17 110 58 170 91 174 95 185 106 55 58z"/>
<path d="M4962 4358 c-20 -20 -14 -40 11 -36 14 2 23 11 25 26 4 24 -16 30
-36 10z"/>
<path d="M6064 4363 c-12 -2 -30 -14 -40 -25 -19 -21 -19 -21 21 -14 22 4 49
16 60 27 19 19 19 19 0 18 -11 -1 -30 -4 -41 -6z"/>
<path d="M6290 4315 c-12 -45 -8 -81 9 -71 5 3 16 27 25 53 13 37 13 48 4 55
-21 13 -25 10 -38 -37z"/>
<path d="M1011 4321 c13 -36 41 -66 80 -87 38 -19 47 -12 26 20 -16 24 -98 96
-110 96 -3 0 -1 -13 4 -29z"/>
<path d="M2615 4291 c57 -79 151 -155 131 -106 -3 8 -9 22 -12 30 -8 20 24 20
76 -1 23 -9 43 -15 45 -13 10 11 -28 71 -56 88 -25 15 -174 51 -211 51 -5 0 8
-22 27 -49z"/>
<path d="M3282 4317 c-29 -31 -28 -43 4 -51 32 -8 31 -9 36 33 4 42 -11 49
-40 18z"/>
<path d="M1130 4280 c76 -70 130 -113 130 -105 0 28 -77 117 -122 141 -60 31
-64 14 -8 -36z"/>
<path d="M2470 4321 c0 -16 43 -41 70 -41 23 0 23 1 -12 25 -39 26 -58 31 -58
16z"/>
<path d="M6494 4313 c-1 -10 -4 -30 -9 -45 -5 -21 -4 -28 7 -28 15 0 33 29 41
68 4 17 1 22 -17 22 -14 0 -22 -6 -22 -17z"/>
<path d="M7003 4299 c-57 -33 -113 -91 -113 -116 0 -14 3 -14 23 3 12 11 44
39 71 62 42 37 84 83 74 82 -2 0 -26 -14 -55 -31z"/>
<path d="M3360 4301 c0 -24 -31 -51 -58 -51 -31 0 -27 -22 8 -48 16 -12 32
-22 35 -22 3 0 5 18 5 39 0 31 4 38 18 37 23 -1 30 49 8 57 -11 4 -16 1 -16
-12z"/>
<path d="M5748 4299 c-17 -11 -9 -17 26 -21 16 -2 31 2 33 8 5 14 -41 24 -59
13z"/>
<path d="M1297 4223 c115 -132 136 -148 113 -87 -20 52 -63 105 -105 130 -68
39 -70 28 -8 -43z"/>
<path d="M5580 4271 c0 -21 23 -45 33 -34 4 3 7 17 7 30 0 16 -6 23 -20 23
-13 0 -20 -7 -20 -19z"/>
<path d="M6194 4276 c-9 -23 0 -79 13 -83 16 -5 27 39 19 72 -7 27 -24 33 -32
11z"/>
<path d="M9312 4273 c-10 -4 -8 -11 9 -29 26 -28 52 -32 47 -8 -4 21 -39 43
-56 37z"/>
<path d="M9875 4270 c-12 -4 -26 -14 -32 -21 -13 -16 -34 -120 -26 -131 2 -5
27 -8 54 -8 l50 0 -3 82 c-3 83 -8 93 -43 78z"/>
<path d="M3888 4263 c-35 -5 -35 -13 -3 -41 33 -29 23 -46 -21 -37 -34 6 -34
6 -34 -33 0 -22 -6 -45 -14 -51 -12 -10 -18 -7 -31 18 -19 38 -22 38 -22 1 0
-39 -28 -69 -73 -76 -30 -5 -40 -13 -60 -50 -13 -25 -38 -58 -57 -74 l-34 -30
28 0 c64 0 134 47 255 173 113 116 118 123 118 164 0 29 -4 42 -12 42 -7 -1
-25 -4 -40 -6z"/>
<path d="M6038 4249 c-60 -31 -45 -53 19 -28 26 10 43 25 43 42 0 12 -23 7
-62 -14z"/>
<path d="M3167 4253 c-16 -4 -17 -21 -1 -71 2 -7 -3 -63 -12 -125 -8 -62 -13
-131 -9 -154 7 -50 48 -96 100 -113 l35 -12 -26 -34 c-15 -19 -37 -37 -50 -40
-19 -5 -22 -11 -17 -35 3 -18 -4 -55 -22 -103 -30 -83 -28 -120 7 -129 31 -8
55 8 78 53 12 24 30 42 44 46 17 4 26 15 30 38 8 42 33 68 117 122 96 61 135
128 87 149 -13 6 -26 24 -30 43 -11 42 -33 50 -62 23 -28 -26 -52 -27 -66 -2
-13 25 -13 54 0 46 18 -11 48 14 60 49 16 50 33 61 67 44 36 -17 43 -48 11
-48 -30 0 -52 -15 -44 -29 12 -19 81 -13 101 9 26 29 24 95 -4 124 -34 36 -61
40 -61 10 0 -22 -4 -24 -50 -24 -46 0 -51 -3 -61 -27 -6 -16 -17 -36 -26 -45
-15 -16 -17 -16 -34 6 -11 14 -42 30 -79 40 -72 20 -72 42 -1 32 89 -13 86
-14 84 18 -1 16 -9 36 -17 44 -12 12 -16 11 -31 -12 -20 -31 -35 -34 -35 -7 0
10 -7 24 -15 31 -21 17 -19 37 5 43 12 3 20 14 20 26 0 18 -6 21 -37 20 -21
-1 -46 -3 -56 -6z"/>
<path d="M4807 4243 c-14 -13 -6 -30 17 -41 19 -8 27 -8 36 3 19 22 -32 60
-53 38z"/>
<path d="M5667 4239 c-30 -18 -8 -29 53 -27 65 2 74 8 35 26 -32 15 -64 15
-88 1z"/>
<path d="M10303 4243 c-19 -7 -16 -41 5 -52 21 -11 62 11 62 33 0 21 -37 32
-67 19z"/>
<path d="M5200 4216 c0 -35 20 -42 60 -21 38 20 30 33 -23 42 -35 5 -37 4 -37
-21z"/>
<path d="M1427 4214 c-6 -7 39 -93 85 -161 36 -54 58 -66 100 -55 28 7 35 5
43 -12 6 -11 32 -29 59 -38 l48 -18 -31 38 c-17 22 -49 56 -72 77 -36 33 -46
37 -79 32 -37 -5 -38 -4 -61 46 -38 81 -70 113 -92 91z"/>
<path d="M5510 4194 c0 -21 4 -25 23 -22 14 2 23 11 25 26 3 18 -1 22 -22 22
-21 0 -26 -5 -26 -26z"/>
<path d="M7053 4205 c-44 -19 -73 -75 -39 -75 13 0 49 40 70 78 9 15 9 15 -31
-3z"/>
<path d="M6740 4146 c0 -22 2 -23 40 -13 30 9 37 14 28 24 -6 7 -23 13 -39 13
-24 0 -29 -4 -29 -24z"/>
<path d="M5650 4145 c0 -8 26 -27 61 -44 49 -23 62 -26 66 -14 7 17 10 15 -61
47 -69 31 -66 30 -66 11z"/>
<path d="M7360 4137 c-50 -21 -180 -102 -180 -112 0 -7 189 83 220 105 52 37
39 39 -40 7z"/>
<path d="M10643 4140 c-40 -24 -42 -40 -7 -40 36 0 64 17 64 40 0 25 -16 25
-57 0z"/>
<path d="M3610 4110 c0 -12 49 -45 56 -37 3 3 1 15 -6 26 -11 21 -50 30 -50
11z"/>
<path d="M5532 4103 c5 -26 41 -27 69 -4 l24 20 -48 1 c-41 0 -48 -3 -45 -17z"/>
<path d="M6838 4096 c-55 -12 -98 -38 -98 -59 0 -6 8 -3 18 6 10 9 46 23 81
31 35 8 69 20 74 25 14 14 0 13 -75 -3z"/>
<path d="M12222 4101 c-18 -11 17 -21 76 -21 43 0 55 -12 25 -25 -13 -5 5 -13
57 -27 72 -18 120 -18 120 1 0 17 -60 60 -98 71 -45 12 -162 13 -180 1z"/>
<path d="M2040 4092 c0 -28 133 -152 148 -138 8 8 -37 63 -85 105 -45 40 -63
49 -63 33z"/>
<path d="M1908 4031 c60 -57 116 -90 129 -77 7 7 -76 82 -126 113 -65 41 -67
23 -3 -36z"/>
<path d="M6060 4070 c-14 -10 -21 -22 -17 -26 12 -12 61 10 65 29 4 22 -17 21
-48 -3z"/>
<path d="M6980 4070 c-36 -10 -105 -33 -155 -52 -70 -26 -84 -34 -63 -36 42
-5 141 24 232 67 89 43 85 49 -14 21z"/>
<path d="M8251 4066 c-13 -13 -21 -32 -19 -42 3 -15 7 -13 36 10 33 28 42 56
19 56 -8 0 -24 -11 -36 -24z"/>
<path d="M9405 4070 c-32 -20 -82 -96 -71 -107 11 -11 55 16 72 44 9 15 25 40
36 56 23 33 7 36 -37 7z"/>
<path d="M5380 4067 c-30 -15 -37 -42 -14 -51 21 -8 54 20 54 46 0 21 -6 22
-40 5z"/>
<path d="M5660 4065 c0 -11 11 -15 40 -15 29 0 40 4 40 15 0 11 -11 15 -40 15
-29 0 -40 -4 -40 -15z"/>
<path d="M8336 4060 c-49 -25 -71 -44 -107 -97 -36 -52 -36 -57 -1 -39 22 11
163 157 150 156 -2 -1 -21 -10 -42 -20z"/>
<path d="M2230 4034 c21 -54 81 -117 96 -101 12 11 -30 84 -59 105 -43 28 -49
28 -37 -4z"/>
<path d="M4068 4044 c15 -29 43 -51 85 -69 46 -19 67 -19 67 0 0 23 -38 52
-85 64 -23 6 -50 14 -60 17 -15 6 -16 4 -7 -12z"/>
<path d="M7820 4039 c-38 -15 -70 -50 -70 -75 l0 -23 48 26 c50 28 72 49 72
70 0 15 -15 16 -50 2z"/>
<path d="M10600 4035 c-79 -8 -100 -14 -85 -21 36 -16 196 -10 233 9 17 10 32
20 32 22 0 7 -60 4 -180 -10z"/>
<path d="M12060 4015 c-81 -41 -127 -89 -145 -148 -21 -69 -5 -75 55 -21 46
42 68 38 44 -8 -11 -22 -13 -33 -5 -41 8 -8 30 9 79 63 37 40 73 82 81 93 15
22 22 22 -81 -9 -32 -10 -61 -15 -64 -11 -11 11 17 37 68 63 26 13 48 31 48
39 0 20 -5 19 -80 -20z"/>
<path d="M1750 4025 c0 -24 48 -64 87 -71 19 -4 36 -4 38 -2 3 3 -19 21 -47
40 -75 50 -78 51 -78 33z"/>
<path d="M3979 4026 c-20 -7 -53 -23 -73 -36 -21 -12 -56 -28 -79 -35 -38 -11
-42 -15 -52 -63 -12 -50 -37 -91 -102 -163 -25 -28 -39 -35 -58 -31 -30 5 -40
-14 -26 -51 10 -26 9 -26 -37 -29 -46 -3 -47 -4 -56 -43 -14 -68 -17 -73 -27
-47 -4 12 -13 22 -19 22 -20 0 -23 -32 -6 -62 16 -26 16 -31 2 -53 -9 -13 -33
-37 -53 -52 -69 -52 -123 -110 -123 -132 0 -12 5 -31 11 -43 9 -16 7 -24 -11
-43 -25 -27 -24 -68 3 -73 10 -2 30 11 49 32 17 20 35 36 40 36 12 0 10 -68
-3 -92 -10 -18 -17 -20 -66 -14 -46 5 -58 4 -69 -11 -19 -26 -17 -46 11 -99
14 -26 25 -60 25 -76 0 -28 1 -28 53 -27 28 0 61 -1 71 -3 16 -2 22 8 37 67
24 92 24 95 -10 95 -28 0 -29 -2 -24 -33 6 -41 -18 -69 -56 -65 -25 3 -26 5
-25 63 l2 60 33 3 c40 4 59 25 59 63 0 38 19 47 41 18 10 -13 19 -22 21 -19
35 54 30 85 -13 76 -27 -5 -29 -3 -29 25 0 16 -7 44 -16 61 -20 39 -8 52 35
37 29 -10 31 -14 26 -40 -7 -33 -8 -33 33 -18 28 10 31 13 20 32 -6 12 -24 33
-39 47 -16 14 -30 36 -32 50 -2 21 3 26 26 28 16 2 38 -5 54 -17 32 -26 39
-21 24 20 -40 114 33 237 134 226 22 -2 48 -7 57 -11 15 -7 17 -4 12 21 -5 24
-2 31 20 41 22 10 27 9 36 -8 6 -11 15 -20 20 -20 17 0 11 26 -10 45 -21 19
-27 45 -11 45 21 0 101 -119 101 -150 0 -5 -10 -10 -23 -10 -24 0 -67 -25 -67
-40 0 -6 10 -6 25 0 15 6 51 6 92 1 84 -11 86 -9 107 106 9 47 23 99 31 116
19 38 19 37 -3 37 -19 0 -54 33 -91 87 l-22 33 38 -3 c31 -2 38 1 37 16 0 9
-1 40 -2 67 -2 55 -2 55 -53 36z"/>
<path d="M5107 4034 c-13 -13 7 -34 33 -34 33 0 49 18 29 31 -16 10 -53 12
-62 3z"/>
<path d="M2365 4008 c15 -49 94 -128 128 -128 9 0 -41 67 -87 118 -35 37 -50
41 -41 10z"/>
<path d="M5545 3984 c17 -13 62 -34 100 -45 39 -11 85 -30 104 -40 38 -23 47
-20 31 10 -17 33 -53 51 -152 77 -115 29 -120 29 -83 -2z"/>
<path d="M5913 3995 c-5 -16 22 -55 39 -55 9 0 11 31 2 54 -8 20 -33 21 -41 1z"/>
<path d="M8337 3980 c-35 -30 -65 -85 -53 -97 8 -9 46 28 85 82 39 54 21 62
-32 15z"/>
<path d="M6100 3988 c-42 -16 -54 -48 -17 -48 32 0 49 14 45 37 -2 17 -7 19
-28 11z"/>
<path d="M7435 3994 c-171 -20 -273 -46 -354 -90 -26 -14 -35 -22 -21 -19 14
4 104 26 200 51 96 24 183 44 192 44 9 0 20 5 23 10 3 6 3 9 -2 9 -4 -1 -21
-4 -38 -5z"/>
<path d="M2967 3973 c-12 -11 -7 -41 9 -57 22 -22 34 -11 34 30 0 26 -4 34
-18 34 -10 0 -22 -3 -25 -7z"/>
<path d="M2510 3960 c0 -21 96 -106 133 -117 20 -6 37 -8 37 -3 0 4 -20 26
-44 48 -48 44 -126 89 -126 72z"/>
<path d="M10711 3944 c-36 -8 -76 -22 -90 -32 l-26 -17 26 -3 c31 -4 132 33
149 53 7 8 11 15 9 14 -2 -1 -33 -7 -68 -15z"/>
<path d="M9421 3936 c-7 -8 -16 -28 -21 -45 -7 -26 -6 -31 8 -31 27 0 40 13
57 53 15 37 15 37 -9 37 -13 0 -29 -6 -35 -14z"/>
<path d="M4286 3918 c-9 -35 -8 -38 15 -38 11 0 17 -4 14 -10 -3 -5 -15 -10
-26 -10 -29 0 -18 -24 12 -28 14 -2 38 2 54 8 23 9 26 13 15 20 -31 20 44 13
84 -7 18 -9 41 -12 62 -8 32 6 35 4 40 -25 5 -20 12 -30 25 -30 10 0 37 -20
61 -44 32 -32 43 -51 43 -75 0 -43 19 -40 25 5 7 53 26 53 52 0 25 -52 43 -63
58 -36 10 19 11 19 35 -2 14 -12 25 -26 25 -32 0 -7 26 -11 68 -11 53 0 85 -7
150 -34 83 -34 103 -51 57 -51 -14 0 -25 -4 -25 -9 0 -15 36 -23 75 -15 31 5
35 4 35 -15 0 -14 13 -27 40 -41 45 -23 47 -28 23 -45 -10 -8 -14 -19 -9 -30
6 -17 9 -16 34 7 39 36 72 42 98 17 17 -15 44 -23 103 -30 90 -10 121 -20 140
-43 20 -24 9 -28 -31 -12 -44 19 -78 12 -71 -15 3 -10 -2 -31 -12 -45 -9 -14
-15 -37 -12 -50 4 -21 1 -24 -29 -24 -45 0 -43 -17 4 -29 55 -16 112 -14 112
3 0 9 -12 16 -27 18 -23 2 -28 7 -25 27 3 34 5 35 43 12 20 -13 52 -21 79 -22
40 0 42 -2 23 -11 -35 -17 -29 -38 12 -38 43 0 44 9 10 115 -24 71 -24 79 -10
101 17 26 21 24 -90 38 -27 4 -48 14 -64 33 -22 25 -31 28 -90 29 -79 2 -126
20 -246 92 -139 85 -188 105 -261 106 -63 1 -64 2 -64 29 0 25 -3 27 -40 27
-25 0 -63 11 -98 29 -32 16 -75 33 -95 36 -23 5 -37 13 -37 22 0 8 -27 41 -59
74 -58 58 -60 59 -104 53 -40 -6 -63 -1 -178 32 -11 3 -19 -3 -23 -18z"/>
<path d="M8404 3921 c-35 -16 -90 -78 -79 -89 9 -9 90 45 113 76 28 37 23 39
-34 13z"/>
<path d="M5383 3923 c-28 -11 1 -73 34 -73 18 0 22 37 6 59 -15 22 -19 23 -40
14z"/>
<path d="M2781 3854 c35 -25 72 -50 82 -55 30 -17 5 22 -43 64 -28 26 -49 37
-72 37 -31 0 -30 -1 33 -46z"/>
<path d="M2897 3894 c-3 -3 13 -20 36 -38 114 -87 132 -277 35 -379 l-37 -40
21 -30 c28 -39 30 -136 4 -185 l-17 -33 -74 7 c-47 4 -75 3 -75 -3 0 -15 97
-43 151 -43 l48 0 16 52 c8 28 15 71 15 95 0 45 9 53 30 28 13 -15 45 -22 38
-7 -37 71 -40 89 -34 177 4 50 9 127 13 171 6 91 -5 138 -41 177 -16 17 -30
23 -47 20 -16 -3 -31 2 -43 16 -20 22 -29 25 -39 15z"/>
<path d="M5892 3873 c-25 -35 -44 -101 -31 -109 5 -3 19 -24 32 -47 19 -37 22
-56 21 -150 -2 -96 0 -106 14 -95 23 19 42 72 42 115 0 21 -12 70 -26 108 -13
39 -27 78 -31 88 -3 10 0 36 7 58 18 53 1 73 -28 32z"/>
<path d="M5671 3877 c-25 -12 -68 -74 -58 -83 3 -3 19 2 36 10 33 17 54 48 49
71 -2 12 -7 12 -27 2z"/>
<path d="M10750 3871 c-111 -29 -154 -66 -48 -41 51 12 128 45 128 55 0 7 -5
6 -80 -14z"/>
<path d="M5490 3856 c0 -32 27 -35 61 -6 l24 19 -27 1 c-14 0 -33 3 -42 6 -12
5 -16 0 -16 -20z"/>
<path d="M7600 3861 c-99 -27 -130 -46 -130 -83 0 -15 5 -14 36 7 20 14 44 25
53 25 21 0 117 45 125 59 9 14 -5 13 -84 -8z"/>
<path d="M8675 3844 c-33 -13 -73 -38 -90 -54 l-30 -31 64 23 c35 13 80 37
100 55 43 38 36 39 -44 7z"/>
<path d="M11476 3845 c-33 -14 -65 -25 -72 -25 -9 0 -12 -9 -8 -28 4 -20 -1
-34 -20 -55 -46 -49 -29 -76 22 -36 27 21 27 21 30 1 6 -39 26 -43 68 -15 70
48 224 122 268 128 60 9 74 19 56 40 -16 19 -49 14 -123 -21 -51 -23 -71 -24
-49 -2 39 39 -8 27 -83 -21 -33 -21 -62 -31 -87 -31 -36 0 -53 16 -25 24 56
17 106 39 111 51 8 22 -19 18 -88 -10z"/>
<path d="M9564 3845 c-22 -15 -51 -72 -41 -81 12 -12 49 9 68 39 32 54 19 75
-27 42z"/>
<path d="M9810 3853 c-26 -10 -60 -46 -60 -64 0 -25 35 -13 65 23 35 41 33 55
-5 41z"/>
<path d="M7745 3833 c-94 -20 -153 -45 -185 -78 l-35 -36 107 45 c155 65 189
86 113 69z"/>
<path d="M10988 3823 c-9 -10 -19 -28 -22 -40 -7 -23 -15 -27 -76 -38 -39 -8
-80 -30 -80 -44 0 -12 102 19 157 47 51 27 90 72 71 84 -20 12 -33 10 -50 -9z"/>
<path d="M5307 3823 c-11 -10 -8 -51 4 -59 14 -8 29 14 29 44 0 21 -19 30 -33
15z"/>
<path d="M8756 3811 c-26 -15 -37 -36 -18 -36 29 2 72 19 72 30 0 21 -23 23
-54 6z"/>
<path d="M9640 3816 c0 -8 -3 -22 -6 -30 -5 -13 -2 -15 17 -8 12 5 26 18 30
30 7 19 5 22 -16 22 -15 0 -25 -6 -25 -14z"/>
<path d="M6429 3804 c-15 -7 -43 -36 -63 -64 -29 -40 -42 -50 -65 -50 -26 0
-32 -7 -58 -62 -52 -111 -115 -151 -172 -112 -17 12 -26 13 -34 5 -6 -6 -24
-11 -39 -11 -18 0 -28 -5 -28 -15 0 -20 32 -35 90 -42 l50 -6 0 -54 c0 -30 -5
-63 -10 -74 -9 -15 -7 -19 5 -19 8 0 24 5 35 12 29 18 37 1 12 -25 -30 -31
-29 -59 1 -55 15 2 30 18 47 54 34 70 48 85 78 82 27 -3 32 7 46 91 l7 44 -49
-7 c-27 -3 -51 -3 -55 0 -4 4 14 25 38 47 25 21 68 78 96 126 28 47 63 98 77
113 30 33 27 41 -9 22z"/>
<path d="M5141 3794 c24 -29 101 -76 259 -158 133 -69 159 -80 167 -67 5 8 31
20 58 26 27 5 50 15 52 20 2 6 -15 24 -37 40 -41 31 -56 56 -51 88 2 15 -1 16
-22 6 -20 -9 -36 -8 -76 6 -73 24 -126 8 -86 -25 16 -13 21 -40 8 -40 -14 0
-113 40 -162 64 -25 13 -63 31 -85 40 -35 14 -37 14 -25 0z"/>
<path d="M8828 3766 c-57 -21 -106 -55 -63 -43 11 3 37 9 57 12 33 6 78 39 67
49 -2 2 -30 -6 -61 -18z"/>
<path d="M4342 3747 c-29 -31 -29 -59 0 -55 26 3 48 52 32 68 -7 7 -17 3 -32
-13z"/>
<path d="M8610 3744 c-62 -22 -104 -54 -80 -62 19 -7 162 71 149 81 -2 2 -33
-6 -69 -19z"/>
<path d="M10362 3744 c-29 -7 -95 -36 -146 -64 -134 -72 -159 -74 -287 -15
-171 77 -265 73 -419 -19 -70 -43 -80 -46 -145 -46 -85 0 -174 22 -234 57 -39
23 -48 24 -81 14 -45 -13 -60 -14 -60 -2 0 5 16 15 35 21 19 6 35 18 35 26 0
21 -21 17 -71 -15 -52 -33 -116 -99 -84 -86 11 5 54 10 95 13 63 3 98 -2 219
-33 182 -47 211 -45 304 18 121 83 195 87 347 17 75 -34 110 -44 166 -48 82
-5 107 5 183 72 100 89 213 97 426 31 147 -45 221 -57 236 -38 18 20 103 41
217 53 118 11 152 18 152 31 0 21 -137 9 -240 -21 -144 -41 -187 -46 -235 -25
l-40 17 43 21 c23 11 42 25 42 29 0 15 -35 8 -79 -17 -54 -31 -70 -31 -159 0
-80 28 -141 31 -220 9z"/>
<path d="M4530 3730 c0 -23 31 -27 49 -7 14 17 4 27 -26 27 -16 0 -23 -6 -23
-20z"/>
<path d="M2290 3701 c21 -43 54 -71 82 -71 24 0 23 8 -4 34 -13 12 -33 34 -45
49 -13 15 -30 27 -38 27 -13 0 -12 -6 5 -39z"/>
<path d="M920 3721 c0 -5 7 -12 16 -15 13 -5 15 -15 11 -41 -3 -21 -2 -33 3
-30 5 3 28 1 50 -5 28 -8 65 -34 123 -89 142 -134 185 -148 112 -37 -25 38
-45 73 -45 79 0 5 -11 7 -25 4 -22 -4 -30 2 -47 33 -14 23 -33 40 -51 46 -25
7 -41 24 -53 52 -1 1 -14 -3 -29 -10 -23 -10 -28 -10 -36 5 -11 18 -29 23 -29
8z"/>
<path d="M2194 3678 c-8 -13 22 -38 48 -38 21 0 24 20 6 38 -15 15 -45 15 -54
0z"/>
<path d="M2406 3675 c-6 -16 70 -94 92 -95 32 0 -15 68 -70 100 -11 7 -18 6
-22 -5z"/>
<path d="M8601 3672 c-19 -9 -37 -23 -39 -29 -5 -18 52 3 74 28 21 24 9 24
-35 1z"/>
<path d="M9340 3671 c-88 -13 -97 -41 -12 -41 55 0 102 18 102 41 0 10 -20 10
-90 0z"/>
<path d="M2540 3622 c0 -4 14 -27 31 -50 33 -45 93 -82 131 -82 22 1 22 2 -7
23 -16 12 -54 43 -83 70 -50 45 -72 57 -72 39z"/>
<path d="M4187 3613 c-12 -11 -8 -22 14 -34 28 -14 48 3 29 26 -13 16 -32 20
-43 8z"/>
<path d="M4748 3609 c-10 -5 -18 -17 -18 -26 0 -12 6 -14 27 -8 35 8 37 11 30
30 -7 17 -15 18 -39 4z"/>
<path d="M1425 3576 c-30 -12 -29 -13 33 -19 34 -4 100 -17 145 -28 112 -30
241 -32 282 -4 l30 20 -85 6 c-47 4 -114 14 -150 23 -78 19 -213 20 -255 2z"/>
<path d="M2730 3581 c0 -13 41 -41 60 -41 8 0 21 4 29 9 12 8 12 12 2 25 -15
17 -91 23 -91 7z"/>
<path d="M3583 3543 c-22 -8 -14 -41 17 -75 l29 -33 1 32 c0 32 -18 84 -29 82
-3 0 -12 -3 -18 -6z"/>
<path d="M6576 3522 c-23 -25 -25 -31 -12 -41 11 -10 18 -6 35 18 38 53 23 70
-23 23z"/>
<path d="M4405 3530 c-4 -6 -1 -17 5 -25 15 -17 50 -3 50 20 0 17 -45 21 -55
5z"/>
<path d="M1305 3485 c57 -51 84 -62 114 -46 16 9 27 8 48 -2 33 -17 164 -50
170 -43 7 7 -80 55 -139 78 -36 13 -70 19 -108 16 -44 -2 -61 2 -87 20 -52 37
-51 24 2 -23z"/>
<path d="M5650 3505 c20 -24 102 -75 122 -75 39 0 11 34 -59 69 -51 25 -82 29
-63 6z"/>
<path d="M5033 3479 c-4 -12 -17 -22 -35 -26 -39 -8 -44 -21 -13 -33 36 -14
45 -13 45 5 0 8 11 22 25 31 31 20 32 30 4 37 -15 4 -23 0 -26 -14z"/>
<path d="M1550 3481 c0 -17 43 -41 72 -41 36 0 35 11 -1 33 -32 18 -71 23 -71
8z"/>
<path d="M3945 3481 c-3 -6 5 -15 17 -22 13 -7 36 -23 51 -35 36 -30 50 -30
42 -1 -14 47 -91 88 -110 58z"/>
<path d="M1822 3430 c17 -10 229 -63 233 -58 8 10 25 49 25 57 0 7 -47 11
-137 11 -94 -1 -133 -4 -121 -10z"/>
<path d="M3791 3365 c-13 -36 -20 -69 -16 -73 12 -12 43 36 50 79 12 69 -9 65
-34 -6z"/>
<path d="M1660 3417 c0 -11 154 -154 190 -175 50 -30 100 -45 100 -29 0 6 -42
51 -92 100 -70 67 -101 90 -123 92 -16 1 -40 6 -52 10 -13 4 -23 5 -23 2z"/>
<path d="M4100 3391 c0 -33 20 -67 30 -51 10 16 2 46 -16 61 -11 9 -14 7 -14
-10z"/>
<path d="M2130 3394 c0 -3 11 -22 25 -42 34 -50 32 -69 -7 -63 -41 6 111 -140
224 -216 51 -34 95 -60 97 -57 10 10 -59 69 -150 129 -53 35 -104 76 -114 91
l-18 27 89 -6 c49 -4 123 -14 164 -23 41 -10 113 -17 160 -18 74 -1 89 2 118
22 17 13 37 33 43 44 11 20 10 21 -39 15 -27 -3 -80 -19 -117 -36 -65 -30 -68
-30 -103 -15 -21 9 -88 33 -150 54 -62 22 -137 52 -167 68 -30 17 -55 28 -55
26z"/>
<path d="M3960 3383 c0 -9 -8 -25 -17 -35 -16 -18 -15 -19 5 -34 12 -8 22 -24
22 -34 0 -10 8 -20 18 -22 14 -3 12 -9 -15 -35 -29 -27 -31 -32 -18 -49 20
-26 18 -41 -5 -64 -13 -13 -20 -33 -20 -59 0 -23 -8 -48 -18 -62 l-19 -22 -44
20 c-50 24 -119 38 -119 25 0 -19 27 -32 65 -32 46 0 53 -9 81 -100 15 -49 13
-58 -6 -35 -16 20 -71 19 -114 -2 -33 -15 -34 -18 -20 -37 23 -34 17 -46 -22
-46 -36 0 -36 -1 -30 -31 3 -17 6 -40 6 -50 0 -12 7 -19 19 -19 10 0 24 -7 31
-15 20 -24 29 -18 36 24 5 33 11 40 36 45 30 6 58 32 168 154 68 76 80 77 229
26 100 -35 106 -36 137 -20 38 18 48 9 34 -28 -9 -26 1 -43 20 -31 17 10 74
-21 135 -74 45 -40 64 -51 80 -46 11 4 34 9 50 12 28 4 30 8 27 38 -2 18 3 45
11 61 14 28 14 29 -7 30 -11 1 -31 5 -42 9 -19 6 -21 4 -17 -19 7 -34 -10 -34
-50 0 -23 19 -38 24 -58 20 -23 -4 -31 0 -48 29 -21 36 -59 50 -46 18 3 -10 7
-20 8 -23 2 -5 -8 -10 -22 -10 -5 0 -16 19 -26 43 -17 43 -42 77 -57 77 -4 0
-8 -18 -8 -40 0 -38 -2 -40 -29 -40 -39 0 -47 14 -21 40 26 26 25 32 -7 79
l-28 40 -86 1 c-71 0 -89 3 -103 19 -40 44 -38 120 4 174 19 24 19 25 1 30
-12 3 -23 19 -30 42 -11 42 -37 75 -58 75 -7 0 -13 -8 -13 -17z"/>
<path d="M3706 3374 c-22 -13 -26 -18 -15 -25 8 -5 26 -9 42 -9 22 0 27 4 27
25 0 29 -13 31 -54 9z"/>
<path d="M7530 3379 c0 -6 14 -36 31 -66 22 -38 30 -63 27 -84 -4 -23 -1 -28
11 -25 92 24 112 30 117 38 4 6 -14 9 -46 7 l-52 -4 -34 67 c-33 65 -54 91
-54 67z"/>
<path d="M10052 3369 c16 -45 -40 -75 -167 -91 -82 -10 -134 -9 -328 7 l-232
18 -135 -22 c-247 -41 -257 -42 -372 -31 -241 23 -353 10 -434 -48 -29 -21
-45 -27 -60 -21 -11 4 -54 12 -95 18 -99 15 -216 2 -423 -49 -203 -49 -259
-58 -426 -65 -165 -7 -181 -11 -348 -87 -116 -52 -145 -61 -220 -68 -154 -14
-198 -29 -442 -145 -107 -51 -217 -100 -244 -109 -50 -17 -86 -51 -189 -179
-60 -75 -93 -139 -112 -219 -22 -96 -20 -153 9 -191 14 -18 46 -70 71 -117 56
-102 104 -154 162 -176 51 -20 101 -78 263 -309 62 -88 125 -175 141 -193 16
-18 29 -38 29 -45 0 -46 140 -247 217 -311 50 -42 160 -93 327 -151 204 -72
254 -93 261 -115 9 -27 77 -41 249 -50 176 -9 202 -15 352 -83 56 -25 128 -50
160 -56 168 -29 389 -52 470 -49 49 1 145 -5 214 -15 188 -26 374 -36 817 -43
356 -6 407 -5 440 9 29 12 86 17 233 21 301 8 617 55 970 147 449 116 718 237
898 404 90 83 127 143 351 573 73 140 155 291 182 337 53 91 57 100 34 91 -30
-11 -14 14 28 41 41 28 42 31 48 93 3 36 15 93 27 127 26 74 29 135 6 154 -26
22 -44 66 -44 111 -1 40 -5 47 -61 96 -71 61 -112 71 -103 23 3 -16 1 -38 -5
-50 -10 -17 -9 -21 3 -21 28 0 83 -65 105 -125 13 -33 25 -93 28 -133 6 -70 5
-73 -16 -79 -26 -7 -57 -70 -68 -136 -5 -36 -23 -60 -135 -178 -145 -154 -187
-182 -339 -225 -52 -14 -177 -52 -279 -84 -313 -99 -525 -156 -798 -215 -68
-15 -138 -33 -157 -41 -49 -20 -98 -18 -120 6 -10 11 -16 22 -13 25 10 10 190
56 472 121 629 144 836 214 1046 351 76 50 194 152 186 160 -6 6 -33 -8 -168
-93 -128 -80 -218 -127 -260 -138 l-28 -6 0 74 c0 61 -7 94 -35 172 -19 53
-35 99 -35 102 0 3 9 -3 19 -12 11 -10 32 -49 48 -87 15 -38 38 -82 50 -97
l22 -27 1 38 c0 49 -29 106 -99 192 -65 80 -91 116 -91 127 0 17 25 7 46 -19
26 -32 37 -19 19 23 -10 24 -31 40 -90 70 -69 35 -105 64 -105 86 0 35 131
-36 221 -119 111 -103 149 -130 149 -104 0 28 -90 117 -184 181 -104 71 -133
96 -124 106 11 11 83 -28 153 -81 39 -30 82 -55 94 -55 21 0 22 2 10 16 -8 9
-50 44 -94 77 -91 68 -135 107 -135 119 0 17 29 7 88 -32 66 -42 73 -40 45 9
-15 26 -16 34 -5 52 7 11 12 22 10 23 -2 1 -15 8 -29 15 -15 7 -32 25 -38 39
-11 22 -9 29 16 55 36 38 81 57 135 57 64 0 109 -15 268 -91 80 -38 152 -69
159 -69 10 0 9 7 -4 28 -51 80 -123 124 -276 168 -52 14 -149 48 -216 75 -181
72 -373 129 -736 218 -439 108 -493 118 -710 131 -221 12 -307 29 -391 73 -57
30 -61 34 -58 65 2 25 -2 32 -15 32 -10 0 -29 3 -42 7 -18 4 -22 3 -19 -8z"/>
<path d="M3610 3352 c0 -19 69 -96 78 -87 8 8 -34 79 -55 93 -21 13 -23 13
-23 -6z"/>
<path d="M4334 3323 c0 -10 -4 -28 -8 -40 -6 -18 -3 -23 9 -23 15 0 35 37 35
66 0 21 -36 17 -36 -3z"/>
<path d="M5342 3328 c-7 -7 -12 -20 -12 -30 0 -15 7 -18 43 -16 41 3 42 2 39
-25 -2 -15 1 -43 7 -61 13 -49 -3 -61 -46 -35 -37 23 -59 18 -43 -11 11 -20
23 -25 88 -35 l42 -7 0 81 0 81 31 -2 c19 -2 34 2 36 10 3 6 -1 12 -9 12 -7 0
-40 11 -73 25 -68 28 -86 30 -103 13z"/>
<path d="M10287 3333 c-8 -13 138 -44 238 -50 94 -6 94 7 0 32 -73 20 -230 32
-238 18z"/>
<path d="M1965 3285 c50 -44 252 -162 261 -152 12 11 -106 99 -196 146 -54 28
-101 51 -106 51 -5 -1 14 -21 41 -45z"/>
<path d="M4170 3300 c0 -16 4 -30 9 -30 25 0 41 14 41 36 0 19 -5 24 -25 24
-21 0 -25 -5 -25 -30z"/>
<path d="M4736 3317 c-24 -17 -17 -51 11 -55 24 -4 60 39 48 58 -9 14 -38 13
-59 -3z"/>
<path d="M10210 3318 l-25 -9 25 -19 c28 -22 40 -25 40 -10 0 6 -5 10 -11 10
-8 0 -8 4 0 14 16 19 2 26 -29 14z"/>
<path d="M3828 3293 c-17 -19 -48 -77 -48 -89 0 -15 43 33 61 69 20 39 13 49
-13 20z"/>
<path d="M5900 3279 c0 -20 10 -40 29 -60 41 -40 55 -38 46 9 -9 49 -31 82
-55 82 -16 0 -20 -7 -20 -31z"/>
<path d="M4511 3241 c-28 -21 -23 -51 8 -51 14 0 23 9 27 26 9 36 -6 46 -35
25z"/>
<path d="M4195 3233 c-41 -10 -46 -23 -18 -47 l26 -23 29 32 c15 18 28 35 28
39 0 7 -35 6 -65 -1z"/>
<path d="M1057 3167 c-5 -53 4 -90 17 -68 14 22 52 11 90 -28 35 -35 76 -59
76 -43 0 3 -14 20 -31 38 -59 61 -24 56 63 -9 76 -57 149 -89 164 -74 3 3 -37
31 -88 63 -51 32 -114 78 -140 102 -45 42 -47 43 -58 23 -15 -28 -36 -26 -44
4 -3 13 -15 29 -25 34 -17 9 -19 5 -24 -42z"/>
<path d="M3626 3177 c-9 -34 -7 -42 6 -29 7 7 34 12 60 12 39 0 48 3 48 18 0
14 -10 17 -54 19 -48 2 -54 0 -60 -20z"/>
<path d="M4395 3189 c-9 -14 12 -29 43 -29 17 0 23 5 20 18 -4 20 -52 29 -63
11z"/>
<path d="M4852 3178 c2 -18 9 -23 33 -23 23 0 30 4 30 20 0 15 -8 21 -33 23
-30 3 -33 1 -30 -20z"/>
<path d="M5070 3156 c0 -8 -6 -16 -12 -19 -19 -7 -7 -14 35 -20 41 -6 50 9 21
37 -19 20 -44 21 -44 2z"/>
<path d="M502 3135 c-79 -37 -192 -150 -192 -194 0 -11 56 -45 90 -54 19 -5
32 0 56 24 31 30 32 30 58 14 34 -22 33 -35 -2 -35 -16 0 -57 -14 -92 -31
l-62 -32 7 -41 c4 -22 9 -55 12 -71 4 -24 15 -37 53 -58 65 -37 81 -34 41 7
-35 36 -61 98 -54 127 7 27 88 71 123 67 21 -2 34 4 49 23 11 15 36 42 55 61
57 57 68 146 23 196 -28 31 -95 30 -165 -3z"/>
<path d="M2505 3147 c20 -16 5 -33 -20 -23 -18 7 -20 -15 -3 -32 18 -18 56
-15 67 5 9 16 11 16 28 1 28 -26 117 -61 121 -48 2 6 20 17 40 26 l37 16 -45
23 c-25 13 -54 24 -64 25 -18 0 -18 -1 3 -24 14 -15 18 -26 12 -30 -10 -6 -35
5 -121 54 -19 11 -43 20 -54 20 -19 0 -19 0 -1 -13z"/>
<path d="M3816 3123 c4 -21 14 -43 23 -50 20 -15 31 -16 31 -3 0 6 -4 10 -9
10 -6 0 -11 17 -13 37 -2 27 -8 39 -21 41 -16 3 -17 -1 -11 -35z"/>
<path d="M5180 3155 c0 -8 74 -74 84 -75 11 0 -21 51 -42 68 -16 12 -42 17
-42 7z"/>
<path d="M5902 3073 c-23 -96 -20 -138 10 -154 27 -15 32 -6 18 35 -17 53 -2
65 31 25 31 -37 35 -31 23 44 -5 28 -11 37 -27 37 -18 0 -19 4 -13 50 5 39 4
50 -7 50 -9 0 -21 -30 -35 -87z"/>
<path d="M5650 3058 l0 -45 48 -6 c26 -2 54 -7 62 -11 11 -4 19 3 27 24 10 28
9 31 -21 49 -18 11 -51 23 -74 27 l-42 7 0 -45z"/>
<path d="M3010 3019 c-12 -41 -26 -87 -31 -103 -8 -25 -5 -34 15 -55 13 -14
36 -50 50 -78 15 -29 28 -53 30 -53 3 0 12 -3 21 -7 16 -5 16 -4 4 18 -9 15
-15 75 -19 166 -5 129 -7 145 -27 164 l-22 22 -21 -74z"/>
<path d="M6465 3036 c-19 -50 -15 -67 13 -50 28 18 39 61 20 80 -14 15 -17 12
-33 -30z"/>
<path d="M5541 3025 c23 -34 37 -45 56 -45 20 0 24 4 18 18 -4 9 -9 24 -12 32
-5 17 -48 40 -75 40 -15 0 -13 -7 13 -45z"/>
<path d="M3495 3040 c-17 -19 -15 -50 3 -50 9 0 26 60 19 67 -2 2 -12 -6 -22
-17z"/>
<path d="M5400 3040 c-39 -21 -82 -25 -111 -10 -22 12 -22 13 -8 -29 11 -30
15 -32 42 -27 47 9 99 38 115 64 17 27 8 27 -38 2z"/>
<path d="M6538 3053 c-31 -8 -21 -33 12 -33 23 0 30 4 30 20 0 20 -8 22 -42
13z"/>
<path d="M1580 3020 c0 -15 41 -38 83 -45 31 -6 36 -5 31 8 -10 27 -114 61
-114 37z"/>
<path d="M5174 2973 c1 -37 7 -53 25 -70 26 -25 51 -32 33 -10 -6 7 -14 32
-18 55 -3 22 -14 48 -24 57 -16 15 -17 13 -16 -32z"/>
<path d="M3683 2978 c-38 -18 -37 -38 2 -38 31 0 35 3 35 25 0 27 -4 29 -37
13z"/>
<path d="M6370 2934 c-11 -52 -37 -94 -59 -94 -5 0 -3 21 5 47 8 25 12 48 10
50 -10 10 -35 -12 -41 -35 -8 -34 -23 -52 -42 -52 -15 0 -15 12 2 53 5 12 2
17 -9 17 -9 0 -19 -13 -24 -32 -10 -41 -29 -47 -42 -13 -13 33 -24 26 -45 -29
-14 -35 -15 -48 -5 -66 14 -26 8 -34 -42 -50 -21 -6 -38 -16 -38 -21 0 -15 51
1 125 41 39 20 103 49 142 64 76 29 94 43 73 56 -9 6 -9 13 3 31 21 34 26 89
8 89 -5 0 -15 -25 -21 -56z"/>
<path d="M5510 2950 c0 -25 44 -75 58 -66 8 5 5 17 -11 41 -26 41 -47 52 -47
25z"/>
<path d="M4960 2953 c1 -27 52 -57 80 -48 30 9 24 24 -15 41 -38 15 -65 18
-65 7z"/>
<path d="M3480 2901 c-14 -44 -9 -61 14 -42 20 17 26 48 12 67 -11 14 -14 10
-26 -25z"/>
<path d="M985 2870 c-17 -38 -17 -39 4 -69 13 -17 25 -31 29 -31 4 0 15 14 25
31 19 34 38 34 44 0 7 -49 60 -90 78 -61 12 19 25 10 45 -31 19 -35 24 -40 48
-35 23 5 31 0 54 -34 18 -26 36 -40 49 -40 20 0 20 2 7 23 -8 12 -37 59 -64
105 -48 80 -69 98 -80 67 -10 -26 -32 -17 -50 20 -14 30 -21 35 -51 35 -22 0
-50 11 -77 30 l-43 29 -18 -39z"/>
<path d="M5678 2874 c-37 -20 -35 -24 12 -24 33 0 40 3 40 20 0 24 -15 25 -52
4z"/>
<path d="M3590 2860 c0 -22 27 -70 40 -70 8 0 -3 60 -14 79 -11 18 -26 13 -26
-9z"/>
<path d="M5060 2865 c0 -26 30 -29 53 -6 l21 21 -37 0 c-27 0 -37 -4 -37 -15z"/>
<path d="M5937 2812 c3 -43 0 -88 -10 -125 -9 -32 -12 -57 -9 -55 4 2 26 12
50 22 23 10 42 24 42 32 0 8 -6 11 -16 7 -15 -6 -15 -4 -1 18 9 13 19 43 23
67 7 46 1 55 -57 87 l-26 14 4 -67z"/>
<path d="M213 2850 c-42 -25 -57 -54 -43 -80 8 -16 7 -34 -7 -75 -10 -30 -22
-55 -27 -55 -4 0 -5 10 -2 23 26 88 14 118 -18 41 -10 -25 -33 -61 -51 -79
-25 -27 -31 -41 -27 -65 2 -17 -5 -56 -17 -90 -19 -53 -20 -61 -7 -92 8 -18
22 -67 31 -110 32 -147 122 -293 242 -393 84 -70 224 -153 369 -220 61 -28
142 -72 180 -97 189 -125 355 -182 973 -338 440 -110 662 -141 1144 -160 383
-14 818 1 1712 60 440 29 905 78 945 100 9 5 95 25 191 45 187 38 280 66 402
122 76 36 94 52 60 55 -34 3 -59 -3 -120 -27 -71 -29 -82 -30 -108 -11 -17 12
-16 14 16 24 19 6 59 16 89 22 30 6 66 19 79 29 l24 19 -64 73 c-136 157 -247
254 -190 166 12 -17 33 -54 47 -81 l26 -50 -26 -19 c-27 -20 -33 -46 -16 -77
8 -16 5 -21 -17 -32 -20 -9 -32 -27 -42 -57 l-14 -43 -56 6 c-31 4 -117 24
-191 46 -118 34 -240 60 -290 60 -9 0 -37 -43 -70 -105 -48 -93 -57 -105 -80
-105 -18 0 -34 -10 -48 -30 -27 -36 -31 -36 -96 -6 -28 13 -64 28 -79 35 -17
7 -34 24 -40 42 -12 32 -17 32 -83 13 -17 -4 -26 2 -43 30 -27 43 -57 66 -88
66 -36 0 -161 -99 -175 -137 -11 -30 -16 -33 -54 -33 -40 0 -42 -2 -58 -45
-19 -49 -29 -53 -72 -30 -17 9 -50 15 -79 14 -48 -2 -53 0 -102 48 -63 62
-154 123 -183 123 -11 0 -35 -7 -51 -16 -18 -9 -48 -14 -71 -12 -39 2 -42 1
-62 -42 -19 -40 -26 -45 -64 -52 -23 -4 -83 -25 -133 -48 -50 -22 -113 -46
-140 -52 -43 -10 -51 -9 -69 7 -11 10 -44 30 -73 44 -36 18 -57 36 -67 58 -12
25 -21 33 -43 33 -36 0 -63 14 -105 53 -32 31 -32 31 -89 19 -73 -15 -167 -60
-269 -127 l-82 -55 -45 16 c-46 16 -112 72 -123 106 -4 15 -12 18 -33 13 -38
-8 -68 5 -131 59 -94 80 -173 84 -198 11 -19 -56 -26 -61 -93 -69 -33 -3 -81
-15 -106 -26 -50 -22 -73 -25 -73 -10 0 6 -36 49 -80 96 -53 57 -84 100 -92
126 -21 71 -80 76 -212 17 -79 -36 -98 -41 -144 -37 -52 5 -55 4 -64 -24 -8
-23 -16 -28 -41 -28 -65 0 -102 41 -133 145 -7 23 -18 32 -46 39 -33 8 -36 12
-41 55 -7 65 -49 101 -118 101 -50 0 -95 -16 -118 -43 -10 -13 -16 -11 -41 14
-39 40 -44 39 -133 -23 -16 -11 -22 -9 -44 16 -23 27 -25 36 -20 85 3 31 8 64
12 73 5 13 -1 19 -27 26 -41 10 -47 35 -18 74 12 17 20 40 18 56 -4 35 -54 50
-174 51 l-91 1 -31 51 -32 50 -57 -3 -58 -3 -5 70 -6 70 71 69 c66 65 73 69
111 67 72 -4 96 45 49 101 -24 29 -27 36 -29 87 -1 18 -11 27 -46 40 -52 19
-60 42 -35 91 18 34 13 80 -8 80 -6 0 -26 -9 -44 -20z"/>
<path d="M703 2831 c-13 -3 -32 -14 -44 -24 l-21 -19 21 -14 c19 -14 24 -13
56 12 19 14 35 30 35 34 0 12 -23 17 -47 11z"/>
<path d="M5287 2823 c8 -23 34 -53 45 -53 15 0 8 30 -12 50 -25 25 -41 26 -33
3z"/>
<path d="M4073 2823 c-18 -7 -16 -33 2 -33 17 0 75 27 75 35 0 6 -61 5 -77 -2z"/>
<path d="M5396 2823 c-3 -4 -6 -17 -6 -30 0 -31 34 -28 38 3 3 21 -20 39 -32
27z"/>
<path d="M5675 2806 c-11 -8 -16 -19 -12 -30 12 -31 45 -16 60 27 8 21 -20 23
-48 3z"/>
<path d="M3247 2713 c14 -110 10 -161 -17 -196 -18 -22 -18 -26 -3 -68 21 -58
29 -236 13 -308 -6 -31 -22 -75 -35 -97 l-22 -42 21 -10 c45 -22 50 -20 81 42
17 34 50 87 73 118 23 31 42 62 42 67 0 6 -14 23 -31 39 -21 19 -30 36 -26 46
9 24 40 19 67 -9 28 -30 36 -31 50 -5 8 14 7 29 -4 55 -14 32 -19 35 -55 35
-40 0 -41 1 -41 35 0 32 2 35 19 25 11 -5 23 -15 26 -20 15 -25 35 -9 35 28 0
31 4 39 29 50 38 17 58 7 82 -40 l20 -40 24 26 c14 16 30 23 39 20 12 -5 16 1
16 25 0 17 13 52 30 78 28 43 29 48 13 55 -29 11 -31 10 -70 -27 -50 -47 -73
-46 -74 3 l-1 37 -8 -32 c-7 -30 -43 -72 -63 -73 -4 0 -10 7 -13 15 -10 24
-32 17 -36 -11 -2 -15 -13 -33 -26 -42 -22 -14 -22 -14 -20 14 1 16 -4 53 -11
82 -7 29 -10 63 -7 77 5 21 3 24 -23 23 -38 -1 -51 8 -51 37 0 20 5 23 28 22
22 -2 26 2 24 18 -5 29 -31 45 -72 45 l-36 0 13 -97z"/>
<path d="M5522 2783 c2 -10 19 -22 38 -28 19 -5 41 -14 48 -18 20 -13 14 21
-8 43 -26 26 -83 28 -78 3z"/>
<path d="M495 2769 c-7 -10 21 -38 38 -39 4 0 7 11 7 25 0 18 -5 25 -19 25
-11 0 -23 -5 -26 -11z"/>
<path d="M4735 2731 c-10 -73 21 -117 55 -76 17 21 37 19 45 -5 10 -32 63 -63
111 -64 40 -1 43 -3 49 -33 4 -25 12 -34 33 -38 140 -29 358 -119 523 -215
l67 -40 34 30 c18 17 50 45 71 64 43 40 48 72 13 86 -13 5 -38 29 -56 54 -25
37 -37 46 -60 46 -18 0 -30 -5 -30 -13 0 -15 41 -55 83 -81 l28 -17 -23 -22
c-13 -12 -32 -33 -43 -47 -43 -54 -51 -55 -90 -16 -20 20 -58 47 -86 61 -71
37 -127 90 -141 136 -16 56 -4 66 63 51 28 -7 55 -10 59 -7 17 10 -3 37 -48
66 -41 26 -46 27 -57 12 -8 -10 -21 -14 -38 -11 -15 3 -27 2 -27 -1 0 -3 7
-41 15 -84 27 -140 21 -145 -67 -56 -58 60 -61 61 -129 70 -111 14 -186 65
-214 145 -16 47 -32 55 -37 17 -2 -22 -9 -29 -30 -31 -22 -3 -28 2 -38 32 -16
49 -27 45 -35 -13z"/>
<path d="M1330 2765 c0 -2 25 -43 55 -90 55 -84 125 -165 145 -165 12 0 12 2
0 34 -9 25 2 37 14 17 3 -5 26 -18 51 -30 60 -28 154 -31 193 -5 l27 19 -90 5
c-104 6 -158 28 -190 78 -22 35 -37 39 -55 17 -20 -24 -28 -18 -59 43 -18 36
-39 63 -56 70 -28 13 -35 14 -35 7z"/>
<path d="M4155 2760 c-67 -10 -95 -19 -95 -32 0 -14 96 -3 144 17 61 26 48 29
-49 15z"/>
<path d="M5211 2756 c-54 -11 -55 -11 -31 -27 17 -11 24 -24 22 -43 -1 -21 2
-26 21 -26 32 0 42 11 43 45 0 17 4 38 8 48 9 19 11 19 -63 3z"/>
<path d="M5788 2763 c-31 -8 -21 -33 12 -33 23 0 30 4 30 20 0 20 -8 22 -42
13z"/>
<path d="M3455 2746 c-28 -20 -9 -36 43 -36 44 1 46 2 27 16 -39 30 -52 34
-70 20z"/>
<path d="M620 2731 c0 -23 15 -43 41 -56 53 -28 66 -9 28 39 -20 25 -69 37
-69 17z"/>
<path d="M4220 2693 c-43 -5 -90 -22 -90 -34 0 -21 138 1 186 29 16 10 13 11
-21 10 -22 -1 -56 -3 -75 -5z"/>
<path d="M2996 2661 c-24 -27 -16 -96 19 -159 16 -28 25 -60 25 -87 0 -28 6
-47 18 -58 10 -10 20 -17 23 -17 10 0 7 268 -3 300 -12 38 -9 40 -40 -35 -12
-30 -12 -30 -18 24 -5 53 -5 53 -24 32z"/>
<path d="M3400 2651 c0 -22 35 -51 62 -51 26 0 22 15 -13 44 -37 31 -49 33
-49 7z"/>
<path d="M5540 2666 c0 -1 5 -18 11 -35 10 -28 9 -37 -10 -62 -28 -38 -7 -39
42 -1 35 26 38 35 22 74 -5 12 0 18 17 21 13 2 -1 5 -29 6 -29 0 -53 -1 -53
-3z"/>
<path d="M5759 2663 c-9 -2 -19 -17 -23 -34 -5 -24 -10 -29 -36 -29 -33 0 -35
-2 -20 -31 12 -22 89 -64 98 -54 4 4 9 40 12 81 5 74 4 77 -31 67z"/>
<path d="M4372 2631 c-60 -21 -75 -31 -45 -31 39 0 79 12 103 31 32 24 13 24
-58 0z"/>
<path d="M455 2590 c-8 -13 21 -60 35 -60 13 0 32 48 24 61 -7 12 -51 11 -59
-1z"/>
<path d="M1925 2490 c38 -38 71 -70 72 -70 2 0 -5 17 -16 38 -23 45 -84 102
-109 102 -10 0 8 -25 53 -70z"/>
<path d="M2045 2481 c80 -81 165 -150 165 -133 0 37 -123 153 -204 194 -38 19
-36 15 39 -61z"/>
<path d="M4358 2523 c-27 -4 -56 -29 -45 -39 8 -8 114 24 122 36 6 10 -24 11
-77 3z"/>
<path d="M656 2505 c-39 -21 -55 -44 -56 -80 0 -27 6 -32 53 -53 82 -35 94
-30 51 21 -23 27 -26 38 -21 79 4 26 5 48 4 48 -1 0 -15 -7 -31 -15z"/>
<path d="M396 2468 c-88 -19 -136 -61 -136 -119 0 -42 46 -104 98 -132 65 -35
120 -36 179 -1 25 14 43 27 41 29 -2 1 -29 -2 -60 -8 -81 -15 -158 3 -194 46
-23 27 -25 37 -20 76 8 58 17 67 77 75 30 4 52 13 56 22 8 21 3 22 -41 12z"/>
<path d="M4501 2471 c-28 -7 -41 -31 -17 -31 24 0 66 19 66 30 0 11 -13 11
-49 1z"/>
<path d="M5542 2464 c-29 -20 -28 -50 3 -70 27 -17 47 -12 28 7 -7 7 -8 22 -3
40 10 35 0 43 -28 23z"/>
<path d="M4772 2458 c-17 -17 -16 -44 1 -30 6 5 23 12 37 14 14 1 24 8 23 13
-3 15 -46 18 -61 3z"/>
<path d="M2274 2421 c18 -33 89 -91 113 -91 29 0 -21 61 -75 92 l-54 31 16
-32z"/>
<path d="M3490 2395 c0 -30 37 -55 46 -30 6 15 -21 55 -38 55 -4 0 -8 -11 -8
-25z"/>
<path d="M4925 2410 c-50 -10 -95 -27 -95 -36 0 -11 101 6 132 22 48 25 37 29
-37 14z"/>
<path d="M4483 2388 c-26 -13 -29 -23 -10 -31 16 -6 77 21 77 34 0 12 -40 10
-67 -3z"/>
<path d="M424 2348 c-7 -10 20 -38 38 -38 11 0 28 36 21 44 -11 10 -51 7 -59
-6z"/>
<path d="M2898 2343 c-16 -2 -28 -8 -28 -12 0 -16 26 -31 53 -31 23 0 28 4 25
22 -3 24 -10 27 -50 21z"/>
<path d="M4675 2340 c-11 -5 -38 -9 -60 -9 -43 -1 -86 -19 -92 -37 -3 -9 15
-8 66 1 74 15 111 29 111 45 0 6 -1 10 -2 9 -2 0 -12 -4 -23 -9z"/>
<path d="M5060 2339 c-14 -5 -38 -11 -53 -14 -43 -9 -22 -24 26 -18 41 5 77
26 60 35 -4 3 -19 1 -33 -3z"/>
<path d="M2990 2321 c-11 -21 -5 -47 17 -73 23 -26 43 -12 36 25 -12 65 -33
84 -53 48z"/>
<path d="M12420 2331 c0 -5 21 -37 46 -71 58 -78 68 -109 60 -171 -4 -29 -3
-49 3 -49 18 0 71 52 71 69 0 45 -34 126 -68 162 -36 38 -112 79 -112 60z"/>
<path d="M5135 2260 c-247 -54 -280 -62 -360 -87 -44 -14 -84 -29 -89 -33 -22
-22 537 113 583 140 23 13 11 12 -134 -20z"/>
<path d="M4770 2265 c-30 -8 -84 -14 -119 -15 -57 0 -62 -2 -50 -16 11 -13 26
-15 79 -11 56 4 160 38 160 52 0 7 -6 6 -70 -10z"/>
<path d="M5680 2240 c15 -27 57 -53 75 -46 24 9 7 33 -36 50 -50 20 -52 20
-39 -4z"/>
<path d="M607 2203 c-16 -15 -6 -34 15 -31 29 4 38 38 10 38 -10 0 -22 -3 -25
-7z"/>
<path d="M5310 2201 c-43 -9 -60 -18 -60 -34 0 -8 3 -8 12 1 7 7 31 12 54 12
25 0 47 6 54 15 14 17 3 18 -60 6z"/>
<path d="M926 2172 c-20 -38 -11 -74 18 -70 26 4 45 52 30 75 -17 28 -32 26
-48 -5z"/>
<path d="M2982 2119 c-17 -74 -15 -105 11 -134 l22 -26 -1 93 c0 109 -1 118
-12 118 -5 0 -14 -23 -20 -51z"/>
<path d="M12024 2128 c32 -55 77 -111 83 -105 12 13 -24 91 -54 117 -47 42
-58 37 -29 -12z"/>
<path d="M5700 2153 c0 -25 32 -113 41 -113 6 0 9 23 7 58 -3 50 -6 57 -25 60
-13 2 -23 -1 -23 -5z"/>
<path d="M5348 2125 c-79 -16 -128 -39 -63 -30 72 11 135 27 141 36 6 11 7 11
-78 -6z"/>
<path d="M1025 2098 c-11 -6 -21 -12 -23 -13 -7 -5 12 -37 28 -45 14 -7 21 -1
39 30 l22 40 -23 0 c-13 0 -32 -6 -43 -12z"/>
<path d="M4877 2094 c-32 -8 -66 -19 -75 -25 -29 -18 117 -2 178 20 l55 20
-50 -1 c-27 0 -76 -6 -108 -14z"/>
<path d="M5106 2069 c-49 -10 -94 -23 -100 -29 -8 -9 -1 -10 29 -5 54 9 158
34 164 40 11 12 -10 11 -93 -6z"/>
<path d="M666 2049 c-48 -38 -31 -148 33 -202 87 -73 222 -51 261 42 18 45 10
75 -22 79 -26 3 -28 1 -28 -37 0 -23 -7 -46 -16 -55 -36 -36 -161 -7 -198 46
-25 35 -19 67 18 104 18 18 31 36 28 39 -12 12 -51 4 -76 -16z"/>
<path d="M5605 2065 c-5 -2 -31 -6 -58 -10 -30 -4 -57 -15 -75 -31 l-27 -25
60 6 c72 7 149 31 165 51 11 12 7 14 -21 13 -19 0 -38 -2 -44 -4z"/>
<path d="M5221 2013 c-17 -14 -22 -25 -17 -41 8 -23 36 -31 36 -9 0 6 4 18 9
26 8 12 19 10 71 -13 34 -15 64 -26 66 -23 10 10 -10 39 -36 52 -50 26 -103
29 -129 8z"/>
<path d="M1314 1974 c3 -9 6 -20 6 -24 0 -12 60 -80 70 -80 19 0 18 34 -2 75
-19 38 -27 45 -51 45 -22 0 -28 -4 -23 -16z"/>
<path d="M770 1957 c0 -7 9 -18 20 -25 17 -10 21 -10 26 2 3 8 3 20 -1 26 -9
14 -45 13 -45 -3z"/>
<path d="M4089 1924 c-13 -35 -34 -39 -72 -15 -69 42 -92 21 -41 -35 l36 -39
215 -3 c172 -3 229 0 289 13 67 15 74 19 74 40 0 39 20 39 59 1 58 -57 86 -44
33 15 -24 27 -35 32 -73 31 -24 0 -93 -16 -152 -36 -137 -46 -172 -46 -206 -5
-20 24 -40 33 -89 44 -63 13 -63 13 -73 -11z"/>
<path d="M5010 1929 c-47 -10 -113 -20 -147 -21 -35 -2 -63 -6 -63 -9 0 -14
55 -29 104 -29 63 0 189 31 243 59 l38 20 -45 0 c-25 -1 -83 -9 -130 -20z"/>
<path d="M3310 1913 c-39 -27 -54 -48 -45 -63 12 -19 40 -10 68 22 l27 33 23
-27 c25 -31 47 -36 47 -12 0 19 -54 74 -72 73 -7 0 -29 -12 -48 -26z"/>
<path d="M1469 1902 c-41 -36 -35 -62 14 -62 38 0 90 42 85 69 -6 30 -63 25
-99 -7z"/>
<path d="M3866 1911 c-26 -29 -100 -41 -246 -41 -72 0 -130 -4 -130 -8 0 -15
74 -32 136 -32 33 0 114 7 182 17 l123 17 -3 30 c-4 38 -35 47 -62 17z"/>
<path d="M1016 1885 c-11 -30 -6 -45 14 -45 13 0 20 7 20 20 0 11 0 23 1 28 1
15 -29 12 -35 -3z"/>
<path d="M5670 1800 c0 -35 -17 -39 -56 -14 -15 10 -29 13 -33 8 -15 -15 6
-52 38 -69 28 -14 32 -14 48 0 10 9 29 24 43 34 22 17 23 21 12 45 -17 38 -52
35 -52 -4z"/>
<path d="M1180 1775 c-10 -12 -11 -35 -4 -98 l9 -82 46 -23 c78 -38 221 -30
271 15 22 20 23 62 3 89 -13 18 -14 18 -15 1 0 -35 -31 -79 -65 -93 -49 -20
-84 -17 -141 11 -78 39 -105 105 -64 157 10 14 16 28 13 32 -11 11 -40 6 -53
-9z"/>
<path d="M1940 1775 c0 -2 5 -26 11 -54 12 -56 44 -95 59 -71 17 27 10 68 -16
99 -22 26 -54 42 -54 26z"/>
<path d="M2092 1738 c-7 -7 -12 -29 -12 -49 0 -33 3 -36 21 -32 22 6 43 33 54
71 6 19 3 22 -22 22 -16 0 -34 -5 -41 -12z"/>
<path d="M1647 1723 c-14 -14 -7 -71 10 -77 31 -12 45 41 17 68 -18 18 -18 18
-27 9z"/>
<path d="M5090 1701 c-5 -11 -10 -31 -10 -45 0 -31 28 -35 53 -8 20 22 22 43
5 60 -18 18 -36 15 -48 -7z"/>
<path d="M1314 1698 c-4 -6 1 -17 11 -25 22 -15 35 -17 35 -4 0 5 3 16 6 25 5
12 0 16 -19 16 -14 0 -29 -5 -33 -12z"/>
<path d="M4678 1699 c-21 -12 -24 -39 -5 -39 14 0 47 31 47 43 0 10 -22 8 -42
-4z"/>
<path d="M1715 1691 c-9 -15 13 -51 31 -51 11 0 14 8 12 27 -3 28 -30 43 -43
24z"/>
<path d="M5907 1623 c-2 -43 -3 -79 -2 -81 2 -2 13 6 24 17 26 26 29 101 5
125 -8 9 -17 16 -18 16 -2 0 -6 -35 -9 -77z"/>
<path d="M4971 1666 c6 -13 29 -33 50 -45 l39 -22 0 24 c0 31 -39 67 -73 67
-24 0 -26 -2 -16 -24z"/>
<path d="M5473 1659 c-62 -18 -49 -31 23 -24 76 8 85 12 64 25 -18 12 -44 11
-87 -1z"/>
<path d="M5741 1631 c-17 -30 -6 -41 39 -41 30 0 40 4 45 21 8 26 6 29 -38 36
-29 4 -37 2 -46 -16z"/>
<path d="M2620 1613 c1 -32 15 -55 47 -71 29 -16 33 -15 33 7 0 22 -34 67 -61
81 -17 9 -19 7 -19 -17z"/>
<path d="M3614 1596 c-17 -27 -16 -67 3 -73 14 -5 43 47 43 77 0 28 -26 25
-46 -4z"/>
<path d="M1861 1581 c-12 -16 -21 -39 -21 -51 0 -87 159 -164 264 -128 56 19
81 56 71 105 l-8 38 -7 -33 c-10 -45 -36 -70 -83 -83 -75 -20 -155 10 -183 69
-15 32 -15 35 6 57 24 25 21 55 -4 55 -8 0 -24 -13 -35 -29z"/>
<path d="M2757 1603 c-10 -9 -8 -35 2 -52 8 -12 12 -12 25 -2 23 19 21 61 -2
61 -10 0 -22 -3 -25 -7z"/>
<path d="M3460 1590 c0 -27 43 -70 70 -70 27 0 27 43 0 70 -27 27 -70 27 -70
0z"/>
<path d="M4576 1594 c-26 -26 -19 -35 22 -28 34 6 51 18 52 37 0 14 -59 7 -74
-9z"/>
<path d="M5490 1590 c-18 -11 -4 -40 20 -40 13 0 20 7 20 19 0 22 -21 33 -40
21z"/>
<path d="M5610 1580 c0 -19 51 -59 89 -70 49 -14 76 -13 116 4 38 16 48 32 14
21 -41 -13 -89 -7 -131 18 -55 31 -88 42 -88 27z"/>
<path d="M2308 1555 c-12 -27 2 -55 28 -55 19 0 25 14 18 49 -8 37 -30 40 -46
6z"/>
<path d="M2392 1546 c-9 -20 -7 -27 8 -41 21 -19 40 -13 40 15 0 51 -29 67
-48 26z"/>
<path d="M4130 1563 c-34 -13 -41 -53 -10 -53 26 0 80 27 80 40 0 6 -6 10 -14
10 -8 0 -20 2 -28 4 -7 3 -20 2 -28 -1z"/>
<path d="M1992 1548 c-22 -22 -14 -48 13 -48 21 0 25 5 25 30 0 31 -17 39 -38
18z"/>
<path d="M3064 1529 c-16 -31 -15 -32 13 -55 35 -29 49 -30 63 -5 15 29 12 49
-10 71 -28 28 -47 25 -66 -11z"/>
<path d="M4740 1549 c1 -8 9 -28 18 -46 13 -25 21 -30 32 -23 8 5 27 10 43 10
23 0 27 4 27 30 0 29 -2 30 -44 30 -24 0 -51 3 -60 6 -10 4 -16 1 -16 -7z"/>
<path d="M4000 1515 c0 -27 26 -35 48 -13 21 21 13 38 -18 38 -25 0 -30 -4
-30 -25z"/>
<path d="M5245 1475 c0 -78 -7 -85 -83 -85 -63 0 -112 21 -147 62 l-25 30 0
-32 c0 -40 36 -74 95 -89 54 -14 70 -14 119 0 55 15 96 59 96 101 0 55 -10 78
-34 78 -19 0 -21 -5 -21 -65z"/>
<path d="M4535 1473 c20 -81 19 -91 -13 -107 -70 -36 -185 -10 -230 51 l-21
28 -9 -25 c-16 -41 6 -61 97 -90 45 -15 89 -34 98 -43 15 -15 17 -15 28 6 6
12 34 39 63 61 43 32 52 44 52 70 0 40 -25 76 -52 76 -17 0 -19 -4 -13 -27z"/>
<path d="M2556 1468 c-14 -55 -7 -96 24 -126 40 -41 88 -55 171 -50 102 5 157
54 138 121 -13 47 -29 57 -22 14 4 -26 0 -44 -12 -63 -36 -55 -145 -72 -206
-31 -46 31 -61 63 -54 115 6 37 4 42 -13 42 -12 0 -22 -9 -26 -22z"/>
<path d="M4407 1444 c-13 -14 7 -34 34 -34 22 0 29 5 29 20 0 15 -7 20 -28 20
-16 0 -31 -3 -35 -6z"/>
<path d="M2701 1421 c-8 -15 -6 -20 15 -30 34 -15 34 -15 34 19 0 23 -4 30
-20 30 -10 0 -24 -8 -29 -19z"/>
<path d="M3744 1403 c-10 -25 -12 -43 -6 -53 7 -11 0 -19 -30 -32 -50 -22 -51
-43 -2 -35 67 11 112 84 85 136 -17 30 -29 26 -47 -16z"/>
<path d="M3590 1415 c0 -8 0 -18 -1 -22 0 -4 9 -11 21 -15 28 -10 40 20 15 38
-24 18 -35 18 -35 -1z"/>
<path d="M3387 1383 c-16 -16 -5 -61 21 -85 35 -34 72 -48 127 -48 63 0 64 16
2 24 -75 10 -97 27 -97 76 0 35 -3 40 -23 40 -13 0 -27 -3 -30 -7z"/>
</g>
</svg>
