<?xml version="1.0" standalone="no"?>
<!DOCTYPE svg PUBLIC "-//W3C//DTD SVG 20010904//EN"
 "http://www.w3.org/TR/2001/REC-SVG-20010904/DTD/svg10.dtd">
<svg version="1.0" xmlns="http://www.w3.org/2000/svg"
 width="128.000000pt" height="120.000000pt" viewBox="0 0 1280.000000 1222.000000"
 preserveAspectRatio="xMidYMid meet">
<metadata>
Created by potrace 1.15, written by Peter Selinger 2001-2017
</metadata>
<g transform="translate(0.000000,1222.000000) scale(0.100000,-0.100000)"
fill="#000000" stroke="none">
<path d="M8811 12164 c-116 -87 -255 -152 -455 -214 -39 -12 -118 -44 -177
-70 -59 -27 -139 -56 -178 -64 -39 -8 -117 -37 -173 -64 -57 -28 -120 -55
-141 -62 -59 -18 -246 -108 -307 -148 -361 -232 -572 -392 -895 -681 -393
-351 -493 -449 -650 -634 -16 -20 -109 -128 -206 -240 -97 -112 -207 -244
-245 -293 -37 -49 -89 -114 -115 -144 -26 -30 -80 -101 -120 -156 -41 -56
-118 -153 -173 -215 -54 -63 -137 -163 -184 -224 -108 -140 -183 -223 -368
-410 -165 -167 -472 -504 -579 -635 -38 -47 -120 -161 -182 -255 -62 -93 -135
-199 -163 -235 -48 -61 -372 -594 -420 -690 -12 -25 -31 -56 -40 -70 -10 -14
-42 -72 -72 -130 -30 -58 -69 -131 -87 -162 -98 -173 -269 -613 -355 -912 -37
-129 -57 -179 -76 -191 -5 -3 -27 -1 -47 5 -38 10 -368 55 -762 105 -283 35
-539 31 -947 -15 -219 -25 -274 -37 -406 -92 -164 -68 -271 -171 -284 -274 -7
-58 -1 -165 12 -197 16 -42 264 -183 340 -194 27 -3 58 -12 69 -19 26 -16 382
-107 504 -129 122 -21 226 -52 436 -127 271 -96 359 -133 540 -223 94 -46 205
-99 249 -116 64 -26 92 -45 152 -103 63 -61 74 -76 74 -105 0 -41 36 -288 56
-388 17 -82 85 -287 139 -418 38 -91 75 -141 131 -175 55 -35 201 -53 406 -52
l186 1 62 -75 61 -74 -218 0 c-219 -1 -242 -2 -498 -40 -253 -37 -379 -67
-529 -126 -77 -31 -185 -71 -239 -90 -213 -72 -456 -241 -677 -470 -173 -179
-234 -279 -341 -559 l-53 -140 -4 -217 -4 -216 57 -111 c48 -94 67 -121 126
-174 74 -68 181 -136 244 -157 22 -7 94 -37 160 -67 241 -110 330 -138 601
-189 174 -32 223 -37 394 -42 273 -6 554 16 860 69 244 42 413 101 674 236
214 110 522 375 680 584 74 97 126 184 126 211 0 7 4 19 9 26 11 19 52 -3 153
-79 87 -67 296 -194 408 -250 208 -102 552 -224 679 -239 216 -27 357 -40 437
-40 126 0 360 28 419 50 28 11 108 40 180 65 71 25 148 57 171 70 56 33 128
114 157 178 81 176 96 222 122 371 17 100 21 444 5 511 -17 77 15 10 65 -133
59 -168 76 -203 167 -339 67 -100 99 -134 290 -318 40 -39 101 -111 134 -160
119 -173 268 -306 378 -336 22 -6 102 -32 176 -56 131 -44 141 -46 310 -54 96
-5 184 -12 196 -14 11 -3 38 -19 60 -36 109 -86 239 -125 463 -138 213 -11
323 1 464 51 49 18 73 20 175 16 79 -4 131 -11 160 -23 40 -16 54 -17 165 -5
145 15 269 35 294 48 10 6 41 13 68 17 62 9 127 26 280 76 110 37 137 47 235
93 60 27 192 115 273 182 43 35 114 82 158 105 65 34 88 53 126 103 26 33 76
95 113 136 97 111 129 153 210 275 146 221 236 444 287 710 25 134 28 172 28
350 0 193 -2 204 -33 326 -18 70 -49 167 -68 215 -40 99 -167 357 -193 390
-127 166 -216 270 -317 369 -100 99 -124 128 -134 163 -13 51 -125 174 -205
228 -27 18 -90 60 -139 94 -49 33 -101 63 -115 67 -14 3 -45 14 -68 24 -23 10
-88 23 -145 29 -121 14 -232 43 -379 99 -59 22 -157 53 -218 68 -61 15 -111
30 -111 34 0 4 39 49 86 101 48 51 96 113 107 138 11 25 27 51 36 58 14 11 13
15 -13 36 -16 13 -50 30 -75 36 -25 7 -85 28 -133 47 l-87 35 -78 -43 c-97
-53 -153 -105 -201 -183 l-37 -60 -3 42 c-2 23 6 104 17 181 30 199 26 361
-15 641 -15 103 -56 223 -108 315 -107 191 -198 344 -248 418 -106 158 -254
352 -290 379 -19 15 -82 71 -139 124 -57 53 -157 141 -222 196 -65 55 -135
121 -155 147 -21 26 -111 118 -199 205 -89 86 -188 190 -219 229 -32 40 -83
99 -115 132 -77 81 -253 306 -314 402 -68 108 -117 221 -104 245 7 14 4 22
-13 35 -80 63 -106 104 -173 275 -65 164 -188 359 -295 469 -39 40 -83 70
-145 101 -120 60 -206 82 -330 82 l-100 1 -123 -62 c-68 -35 -133 -63 -144
-63 -24 0 -88 61 -88 85 0 9 5 25 10 35 9 17 13 18 38 5 58 -29 113 -48 119
-41 4 4 -1 30 -10 57 -12 33 -16 62 -12 82 12 54 96 239 135 297 20 30 61 93
90 140 29 47 97 155 150 240 127 204 183 296 244 406 28 50 63 104 76 120 37
45 123 220 189 389 33 83 70 175 84 205 33 74 112 322 127 398 l12 61 82 47
c44 25 117 70 161 99 108 70 147 89 268 129 137 45 292 124 346 176 72 70 96
152 59 197 -17 21 -29 16 -107 -43z m-41 -124 c0 -12 -40 -33 -48 -25 -4 4 2
13 12 21 23 16 36 18 36 4z m-1111 -582 c-60 -153 -152 -336 -219 -438 -20
-30 -68 -116 -107 -191 -74 -144 -292 -483 -416 -646 -40 -54 -105 -146 -144
-204 -80 -119 -186 -254 -211 -268 -23 -13 -59 8 -112 66 -29 31 -55 50 -75
53 -19 3 -37 16 -50 37 -11 17 -30 36 -42 42 -13 6 -23 17 -23 25 0 19 53 95
207 292 169 217 253 314 530 604 215 226 303 311 303 292 0 -10 -124 -193
-174 -257 -17 -22 -80 -94 -141 -160 -60 -66 -139 -156 -175 -200 -35 -44
-102 -122 -147 -173 -46 -51 -124 -147 -173 -215 -49 -67 -98 -133 -108 -147
-32 -43 -44 -72 -35 -81 9 -9 63 35 63 51 0 3 25 38 55 76 31 38 68 89 82 114
14 25 74 97 133 160 58 63 137 153 176 200 38 47 131 155 207 240 82 92 174
208 225 284 47 72 107 157 132 190 26 34 53 72 60 86 25 47 177 220 193 220 4
0 -2 -23 -14 -52z m171 11 c0 -5 -14 -65 -30 -132 -53 -215 -116 -376 -256
-657 -156 -313 -247 -471 -454 -795 -85 -132 -178 -288 -208 -347 -29 -59 -56
-110 -61 -112 -4 -3 -43 36 -85 86 l-78 90 20 27 c11 15 29 44 40 66 11 22 56
83 100 135 86 104 281 377 322 451 14 26 45 73 70 106 25 34 53 73 62 89 10
16 56 92 103 169 46 77 90 156 96 175 7 19 41 87 77 150 36 63 89 169 117 236
29 66 64 138 79 160 14 21 26 43 26 47 0 5 9 22 21 38 21 29 39 38 39 18z
m-466 -263 c-9 -15 -19 -24 -22 -22 -2 3 3 17 12 32 10 14 20 23 23 21 2 -3
-3 -17 -13 -31z m-374 -101 c0 -2 -69 -66 -152 -141 -308 -276 -445 -421 -489
-517 -9 -20 -17 -26 -31 -21 -12 3 -28 -1 -40 -13 -42 -37 -258 -292 -353
-418 -100 -131 -372 -460 -454 -548 -25 -26 -61 -72 -80 -101 -117 -172 -321
-459 -362 -506 -25 -30 -114 -145 -196 -255 -82 -110 -179 -235 -215 -278 -36
-43 -83 -108 -104 -145 -21 -37 -58 -88 -81 -115 -24 -26 -53 -67 -64 -90 -12
-23 -61 -100 -108 -172 -47 -71 -95 -146 -106 -167 -22 -41 -136 -208 -230
-338 -34 -47 -99 -149 -145 -225 -46 -77 -120 -194 -165 -260 -45 -66 -100
-156 -122 -200 -22 -44 -57 -109 -78 -145 -21 -36 -53 -92 -70 -125 -18 -33
-44 -80 -58 -105 -36 -63 -269 -552 -297 -625 -13 -33 -38 -96 -56 -140 -18
-44 -40 -111 -50 -148 -22 -90 -44 -117 -95 -117 -22 0 -53 7 -68 15 -51 26
-54 66 -11 157 16 34 30 72 30 82 0 38 70 252 122 371 17 39 52 122 78 185 27
63 65 151 85 195 21 44 44 102 52 130 8 27 32 84 53 125 20 41 52 109 70 150
18 41 67 140 110 220 43 80 84 165 91 190 7 25 20 54 30 65 9 11 43 67 75 125
32 58 70 121 85 140 57 74 220 324 225 346 3 12 15 31 26 41 11 10 36 41 54
68 19 28 51 71 72 96 69 86 355 403 481 535 164 172 243 260 381 424 141 167
313 357 391 430 32 30 71 71 86 91 16 21 89 113 164 205 74 93 181 230 237
305 55 74 123 156 149 181 26 25 73 75 103 112 30 37 66 78 80 91 75 72 163
161 225 226 88 94 444 426 508 474 77 59 201 144 210 145 4 0 7 -2 7 -5z m551
-53 c-11 -21 -51 -58 -51 -48 0 5 9 21 21 37 22 32 46 41 30 11z m-465 -29
c-10 -10 -19 5 -10 18 6 11 8 11 12 0 2 -7 1 -15 -2 -18z m-177 -100 c-8 -10
-37 -44 -65 -75 -29 -32 -74 -86 -100 -120 -27 -35 -76 -95 -109 -133 -228
-267 -398 -486 -454 -588 -22 -40 -68 -103 -102 -142 -34 -38 -71 -90 -82
-115 -11 -24 -42 -73 -69 -108 -26 -35 -55 -77 -64 -94 -9 -16 -42 -62 -74
-100 -33 -39 -82 -114 -110 -167 -27 -53 -76 -139 -107 -193 -128 -214 -179
-298 -245 -403 -164 -261 -199 -318 -222 -363 -13 -26 -45 -74 -71 -107 -170
-219 -326 -454 -410 -617 -49 -95 -81 -153 -360 -643 -293 -516 -562 -1088
-705 -1500 -61 -177 -120 -337 -135 -365 -12 -23 -23 -30 -44 -30 -25 0 -300
76 -310 85 -8 8 22 102 85 268 81 214 124 319 134 332 5 6 19 37 31 70 12 33
31 73 41 90 10 16 18 38 18 47 0 9 10 29 23 45 20 24 71 124 286 563 15 30 76
130 137 222 190 289 305 479 340 560 39 91 243 408 405 628 38 52 85 127 104
165 44 88 114 186 190 267 70 73 106 125 191 265 33 56 90 133 125 171 36 38
73 86 84 107 11 20 52 69 90 109 39 39 116 140 173 223 57 83 120 171 141 195
21 24 57 69 81 102 23 32 63 82 89 110 62 68 134 164 155 204 21 40 4 43 -36
5 -15 -14 -31 -24 -34 -20 -6 5 31 65 47 77 4 3 22 28 41 55 116 169 151 215
164 215 25 0 14 -22 -52 -113 -57 -77 -61 -129 -6 -74 30 30 142 178 142 187
0 5 21 36 48 70 54 71 100 136 166 231 28 41 93 109 169 175 67 59 155 139
195 176 70 66 99 86 71 51z m496 -127 c-25 -51 -72 -138 -104 -192 -32 -55
-76 -131 -98 -169 -23 -39 -67 -106 -99 -150 -31 -44 -88 -125 -125 -180 -37
-55 -107 -150 -156 -211 -48 -60 -110 -140 -137 -177 -46 -63 -66 -80 -66 -57
0 5 30 49 67 97 36 48 118 165 181 258 63 94 132 190 152 215 20 25 44 65 53
90 10 25 42 77 73 115 30 39 74 95 98 125 40 50 136 224 136 246 0 5 15 34 32
64 51 88 46 34 -7 -74z m-1225 -984 c0 -18 -61 -92 -75 -92 -23 0 -18 35 11
69 24 29 64 43 64 23z m-104 -146 c10 -25 -22 -80 -224 -381 -205 -306 -307
-445 -330 -453 -22 -7 87 190 178 323 15 22 53 85 85 140 31 55 96 154 143
220 119 167 135 184 148 151z m173 -86 c75 -66 121 -118 121 -136 0 -5 -29
-51 -64 -104 -35 -52 -127 -207 -203 -345 -77 -137 -155 -272 -175 -300 -20
-27 -69 -108 -109 -180 -39 -71 -138 -236 -219 -365 -139 -222 -220 -365 -220
-391 0 -6 -8 -23 -19 -37 -24 -36 -61 -136 -61 -168 0 -14 -41 -103 -92 -196
-74 -137 -117 -238 -220 -507 -70 -185 -141 -365 -157 -401 -38 -83 -92 -216
-141 -350 -52 -143 -118 -295 -240 -550 -291 -611 -338 -700 -370 -700 -10 0
-56 13 -102 29 -46 16 -139 46 -208 66 -207 60 -201 55 -145 136 47 68 317
614 356 719 17 47 43 119 58 160 15 41 47 112 70 158 23 46 59 131 80 190 21
59 55 151 74 205 20 54 40 104 45 110 5 7 21 45 36 85 14 39 43 114 65 165 22
51 43 106 47 122 10 41 99 238 129 285 35 56 114 244 121 291 5 32 10 39 23
33 46 -19 49 -17 97 57 49 78 151 222 194 276 14 17 52 75 85 128 76 122 199
309 226 343 13 17 19 36 16 52 -4 19 5 37 37 75 23 27 57 73 76 100 18 28 84
120 147 205 63 85 137 190 166 232 204 303 317 473 345 522 18 31 37 56 43 56
5 0 45 -31 88 -70z m-627 -62 c-7 -7 -12 -8 -12 -2 0 14 12 26 19 19 2 -3 -1
-11 -7 -17z m1038 -30 c42 -44 130 -178 130 -199 0 -37 -19 -27 -50 23 -18 29
-56 85 -86 124 -30 39 -54 74 -54 78 0 16 31 3 60 -26z m-236 -109 c-3 -5 -10
-7 -15 -3 -5 3 -7 10 -3 15 3 5 10 7 15 3 5 -3 7 -10 3 -15z m93 -81 c12 -13
37 -50 57 -84 19 -33 42 -67 51 -74 9 -8 15 -29 15 -59 0 -54 -16 -74 -86
-109 -41 -21 -125 -92 -179 -150 -79 -88 -106 -181 -123 -424 -8 -111 -11
-121 -45 -176 -20 -33 -51 -104 -68 -158 -18 -55 -45 -126 -61 -159 -15 -33
-28 -68 -28 -77 0 -23 -61 -62 -133 -84 -78 -24 -68 -39 27 -37 53 1 76 -2 76
-10 -1 -34 -36 -53 -126 -67 -76 -12 -124 -28 -124 -41 0 -11 60 -11 153 0 63
7 82 2 55 -15 -6 -4 -57 -19 -112 -34 -67 -18 -101 -32 -101 -41 0 -21 78 -23
133 -5 25 9 47 14 50 11 2 -2 -1 -34 -8 -70 -14 -76 -8 -72 -160 -111 -156
-40 -170 -44 -170 -54 0 -18 81 -23 119 -7 20 9 52 18 72 22 21 3 49 15 63 26
43 33 58 7 35 -60 -9 -25 -24 -39 -67 -59 -71 -35 -76 -49 -18 -57 41 -7 46
-10 46 -33 0 -17 -14 -39 -44 -68 -38 -36 -42 -44 -30 -56 22 -22 -93 -355
-230 -667 -123 -278 -448 -941 -572 -1166 -134 -244 -292 -480 -338 -504 -19
-11 -39 -5 -143 39 -66 28 -128 56 -137 63 -15 11 -10 26 58 167 41 85 124
272 186 415 61 143 126 287 144 320 18 33 45 105 59 160 14 55 47 150 72 210
48 113 156 421 195 555 12 41 32 95 45 120 12 25 28 63 35 85 7 22 22 65 35
95 12 30 27 69 33 85 49 141 99 257 125 290 17 21 61 114 98 205 36 91 78 194
93 228 21 50 26 73 21 105 -5 36 0 56 39 138 57 122 103 167 60 59 -16 -40
-15 -58 4 -46 17 10 63 95 86 159 12 34 39 84 59 110 20 27 37 53 37 58 0 6
27 57 60 114 33 58 65 116 70 131 15 39 78 140 126 204 23 30 92 147 154 260
62 113 125 223 140 245 15 22 35 55 44 73 19 38 44 41 73 10z m-157 -64 c0 -4
-16 -28 -36 -55 -19 -26 -53 -85 -75 -130 -22 -45 -53 -101 -68 -123 -15 -23
-53 -90 -85 -149 -32 -60 -72 -130 -90 -155 -18 -26 -55 -87 -81 -137 -53 -99
-96 -167 -101 -162 -2 2 12 40 31 84 19 45 35 88 35 97 0 9 4 16 10 16 5 0 23
28 41 63 17 34 37 73 45 87 7 14 19 37 26 51 34 70 72 136 88 154 9 11 34 51
54 90 21 38 58 94 82 125 24 31 44 60 44 64 0 13 61 86 71 86 5 0 9 -3 9 -6z
m-990 -85 c0 -12 -133 -180 -138 -175 -1 2 8 28 21 58 33 73 117 158 117 117z
m1640 -238 c31 -32 66 -87 103 -162 58 -119 187 -434 187 -457 0 -7 -9 -25
-19 -40 -11 -15 -27 -56 -36 -91 -17 -70 -33 -97 -47 -83 -5 5 -18 43 -28 84
-21 84 -72 222 -129 348 -22 47 -48 117 -59 155 -20 68 -52 240 -52 277 0 32
32 20 80 -31z m435 -83 c38 -40 83 -93 99 -116 l30 -44 -24 -45 c-13 -24 -40
-63 -60 -85 -35 -40 -37 -41 -70 -30 -18 7 -54 12 -80 12 l-48 0 -36 90 c-39
96 -45 140 -22 140 29 0 67 44 72 85 9 61 11 65 41 65 21 0 44 -17 98 -72z
m-596 -435 c0 -25 -1 -26 -9 -8 -12 27 -12 35 0 35 6 0 10 -12 9 -27z m-1044
-122 c-20 -40 -35 -48 -35 -19 0 27 17 48 37 48 11 0 10 -6 -2 -29z m1951 -6
c7 -18 -12 -45 -32 -45 -14 0 -20 41 -7 53 11 12 33 7 39 -8z m-1986 -63 c0
-15 -28 -47 -35 -40 -8 8 13 48 25 48 6 0 10 -4 10 -8z m2024 -64 c13 -18 28
-45 31 -60 8 -30 55 -65 101 -74 25 -5 36 1 77 45 53 55 62 59 94 36 20 -14
220 -309 275 -405 38 -66 152 -192 344 -380 93 -91 258 -253 368 -360 209
-206 321 -335 401 -466 27 -43 68 -109 92 -145 24 -37 43 -69 43 -73 0 -9 -58
-36 -78 -36 -11 0 -22 7 -26 15 -3 8 -10 15 -15 15 -14 0 -73 -110 -87 -165
-20 -73 -17 -108 13 -170 21 -43 24 -58 15 -67 -17 -17 -25 -6 -91 109 -42 73
-62 99 -78 101 -35 5 -29 -20 27 -124 28 -51 50 -97 50 -103 0 -22 -31 -9 -96
40 -116 87 -116 87 -218 44 -48 -21 -89 -35 -92 -33 -2 3 -14 38 -25 78 -23
83 -161 344 -277 520 -98 151 -130 190 -153 190 -26 0 -24 -10 12 -61 112
-162 320 -520 377 -653 40 -92 40 -112 -8 -233 -32 -85 -44 -98 -55 -62 -8 24
-51 47 -65 33 -5 -5 5 -51 26 -114 51 -154 55 -178 37 -196 -9 -8 -23 -14 -31
-12 -21 4 -122 154 -122 181 0 10 -9 21 -19 24 -26 7 -40 37 -112 250 -96 282
-221 567 -263 602 -29 24 -18 -18 35 -139 28 -63 66 -153 84 -200 18 -47 53
-134 79 -195 60 -140 86 -212 86 -240 0 -18 -7 -24 -37 -29 -70 -11 -250 -7
-260 7 -6 6 -25 50 -43 97 -17 47 -35 90 -40 95 -4 6 -22 55 -40 110 -18 55
-42 120 -52 145 -26 62 -100 190 -109 190 -13 0 13 -73 114 -326 143 -354 143
-355 48 -432 -51 -42 -55 -43 -68 -26 -18 24 -175 514 -202 629 -12 48 -36 93
-45 84 -8 -8 24 -147 70 -300 24 -82 44 -154 44 -162 0 -7 8 -28 18 -47 11
-19 36 -86 57 -149 37 -111 37 -116 26 -180 -20 -109 -37 -117 -66 -30 -12 36
-21 49 -33 47 -29 -5 -25 -60 10 -149 34 -90 42 -156 19 -183 -11 -13 -16 -14
-29 -4 -8 7 -33 13 -56 13 l-40 0 -18 68 c-20 74 -73 187 -88 187 -15 0 -12
-60 5 -115 8 -27 13 -50 11 -52 -2 -2 -29 17 -61 41 -34 27 -84 54 -123 66
-91 30 -119 46 -136 78 -33 65 -65 229 -96 497 -7 55 -20 138 -30 185 -46 212
-80 467 -95 720 -21 359 -36 493 -61 540 -7 14 -15 41 -19 61 -10 62 -125 204
-125 155 0 -9 23 -61 50 -116 79 -157 93 -233 120 -660 19 -296 42 -482 90
-730 15 -80 36 -215 45 -300 11 -95 26 -183 41 -227 13 -39 25 -93 27 -120 l2
-48 -75 -27 c-83 -30 -122 -34 -138 -15 -5 6 -17 59 -26 117 -9 58 -30 177
-47 265 -42 213 -49 445 -24 835 l17 275 -35 180 c-48 243 -107 445 -132 445
-9 0 1 -53 30 -172 87 -355 102 -502 80 -798 -14 -175 -11 -506 4 -625 7 -55
33 -207 57 -337 24 -130 44 -244 44 -253 0 -8 -19 -39 -43 -68 -23 -28 -64
-87 -91 -130 -27 -42 -53 -77 -57 -77 -9 0 -68 67 -98 111 -48 71 -155 121
-261 122 -78 1 -128 -14 -196 -59 -28 -19 -55 -34 -59 -34 -10 0 2 475 15 555
5 33 16 98 24 145 9 47 20 150 26 230 5 82 18 178 30 220 11 41 24 93 29 115
17 72 33 445 28 660 -4 182 -16 323 -43 506 -6 43 -4 49 30 87 26 29 40 56 48
96 7 31 17 56 24 56 6 0 46 -37 88 -82 l78 -83 39 -140 c109 -391 122 -527 94
-1038 -26 -471 -19 -571 71 -975 50 -228 59 -256 75 -246 15 9 5 142 -17 234
-8 36 -26 117 -39 180 -13 63 -31 144 -39 180 -25 106 -30 337 -12 619 20 323
20 385 -4 613 -19 181 -53 348 -100 482 -25 74 -25 80 2 117 12 16 41 85 63
152 50 153 62 157 118 47 43 -83 45 -85 103 -94 62 -9 80 11 105 119 25 106
43 133 59 91 5 -15 10 -34 10 -43 0 -53 78 -131 118 -119 26 9 88 141 102 217
15 87 24 101 45 72 9 -13 23 -23 31 -23 9 0 42 -27 73 -60 32 -33 65 -60 75
-60 56 0 126 64 126 116 0 11 -11 53 -25 92 -14 39 -25 76 -25 82 0 19 19 10
44 -22z m-2784 -98 c0 -52 -196 -340 -221 -324 -11 6 10 49 67 134 118 178
154 223 154 190z m590 -13 c0 -7 -8 -24 -17 -37 -18 -25 -39 -72 -97 -215 -43
-105 -84 -185 -95 -185 -21 0 40 195 78 249 10 14 30 52 44 84 41 91 87 146
87 104z m1500 -227 c0 -18 -30 -70 -40 -70 -11 0 -14 63 -3 73 10 11 43 8 43
-3z m-649 -153 c-13 -13 -15 1 -4 30 7 17 8 17 11 -1 2 -10 -1 -23 -7 -29z
m291 18 c6 -14 8 -28 4 -32 -11 -12 -41 12 -44 36 -5 30 26 27 40 -4z m-464
-18 c6 -7 28 -77 49 -157 l38 -145 -1 -330 c-1 -230 -8 -417 -23 -615 -25
-337 -22 -311 -76 -525 -69 -269 -70 -283 -69 -645 1 -385 9 -460 89 -779 70
-277 142 -493 194 -579 22 -37 49 -89 60 -115 12 -27 38 -69 59 -95 22 -26 60
-83 87 -127 53 -90 176 -263 242 -342 25 -29 99 -96 166 -150 67 -53 151 -122
187 -153 36 -31 77 -64 93 -73 l27 -17 0 -153 c0 -219 16 -385 46 -489 3 -10
1 -18 -4 -18 -12 0 -69 140 -123 297 -23 71 -56 141 -86 188 -156 242 -282
429 -331 490 -102 125 -263 285 -476 469 -300 261 -306 266 -345 286 -20 10
-76 50 -126 89 -49 39 -124 92 -165 117 -41 26 -82 53 -91 61 -8 7 -62 37
-120 67 -361 188 -352 180 -305 255 14 22 26 44 26 49 0 4 12 24 26 43 14 19
46 74 71 123 24 49 70 129 100 178 60 97 112 211 175 383 22 61 53 135 68 165
15 30 31 70 35 88 4 18 24 75 45 126 66 163 142 446 155 576 4 36 19 133 35
215 27 142 53 320 86 605 29 249 82 494 129 598 25 54 35 61 53 39z m-249
-180 c-10 -39 -29 -59 -29 -32 0 18 29 79 35 73 3 -2 0 -21 -6 -41z m-696 -22
c-9 -19 -18 -33 -21 -31 -4 5 26 66 33 66 3 0 -3 -16 -12 -35z m-1202 -62 c-8
-15 -10 -15 -11 -2 0 17 10 32 18 25 2 -3 -1 -13 -7 -23z m-34 -50 c-44 -82
-290 -503 -317 -543 -74 -111 -168 -283 -341 -627 -207 -412 -248 -503 -340
-756 -72 -197 -96 -250 -112 -240 -13 8 -1 76 38 211 47 166 116 334 253 614
102 209 165 322 349 623 17 28 64 106 104 174 125 209 142 236 216 348 72 107
143 203 150 203 2 0 2 -3 0 -7z m1882 -60 c-7 -21 -14 -32 -16 -26 -3 7 1 30
8 50 7 21 14 32 16 26 3 -7 -1 -30 -8 -50z m-779 -140 c-35 -87 -78 -188 -97
-225 -18 -37 -54 -130 -79 -205 -26 -76 -57 -160 -71 -186 -37 -73 -118 -274
-179 -442 -110 -301 -187 -487 -275 -666 -50 -101 -99 -204 -109 -229 -19 -48
-135 -243 -176 -298 -29 -37 -66 -73 -71 -69 -3 4 194 398 219 437 9 14 38 72
64 130 26 58 73 152 105 210 31 58 60 121 64 140 4 19 29 80 55 135 46 98 56
123 130 335 20 58 57 146 82 195 25 50 51 108 58 130 7 22 21 56 31 75 22 41
59 146 59 168 0 8 15 47 34 86 19 39 45 109 59 156 13 47 41 117 60 156 36 71
85 139 94 130 3 -3 -23 -76 -57 -163z m726 -30 c-8 -15 -15 -22 -16 -15 0 17
20 55 27 49 2 -3 -2 -18 -11 -34z m-46 -152 c-13 -46 -47 -118 -59 -125 -21
-13 -11 31 21 93 33 64 52 81 38 32z m-2628 -161 c-48 -96 -95 -186 -104 -200
-9 -14 -39 -81 -66 -150 -28 -69 -73 -177 -100 -240 -28 -63 -69 -162 -92
-219 -23 -58 -68 -167 -101 -242 -41 -94 -68 -175 -85 -256 -26 -120 -59 -213
-75 -213 -18 0 -8 110 17 196 15 49 32 112 39 139 7 28 22 73 33 100 11 28 41
109 67 180 26 72 71 176 101 232 29 56 67 136 84 177 47 119 163 345 267 518
52 88 96 158 98 156 2 -2 -35 -82 -83 -178z m2694 129 c-3 -17 -42 -127 -86
-244 -44 -118 -80 -219 -80 -225 0 -6 -11 -33 -25 -60 -14 -27 -25 -56 -25
-64 0 -13 -134 -290 -267 -551 -57 -111 -109 -191 -130 -199 -25 -10 -27 0 -6
31 18 25 174 364 210 453 7 19 48 105 90 190 41 85 102 211 135 280 33 69 71
145 83 170 13 25 32 75 43 111 25 82 49 139 58 139 3 0 4 -14 0 -31z m54 -48
c0 -6 -4 -13 -10 -16 -5 -3 -10 1 -10 9 0 9 5 16 10 16 6 0 10 -4 10 -9z
m-1774 -313 c-41 -112 -115 -297 -200 -502 -35 -83 -83 -200 -106 -261 -44
-114 -75 -175 -90 -175 -14 0 28 138 55 185 14 23 25 49 25 57 0 9 16 48 35
87 20 39 43 99 51 132 9 34 35 100 60 148 24 47 50 113 59 146 8 33 28 87 45
120 32 66 87 155 95 155 2 0 -11 -42 -29 -92z m1729 33 c-3 -12 -11 -21 -16
-21 -10 0 -12 43 -2 53 12 13 25 -10 18 -32z m-1992 -463 c-35 -90 -84 -208
-108 -263 -25 -55 -74 -172 -111 -260 -127 -311 -138 -334 -145 -329 -10 6 15
81 58 169 18 39 37 90 42 115 5 25 34 100 64 167 31 66 65 154 77 195 23 77
168 368 184 368 2 0 -26 -73 -61 -162z m1927 136 c0 -5 -29 -117 -86 -334 -54
-200 -117 -398 -153 -475 -21 -44 -55 -123 -75 -175 -48 -125 -80 -189 -84
-168 -2 9 6 38 17 65 48 114 120 316 145 408 15 55 42 136 61 180 38 92 69
194 61 202 -3 3 1 22 9 42 8 20 26 79 40 130 29 103 40 131 55 131 6 0 10 -3
10 -6z m-173 -166 c-9 -24 -23 -78 -32 -120 -19 -93 -51 -144 -86 -140 -43 5
-44 19 -6 68 23 30 37 58 37 76 0 16 5 34 10 41 6 7 27 38 47 70 40 66 52 68
30 5z m3913 -215 c0 -27 -28 -42 -41 -22 -5 8 -9 32 -9 53 l0 39 25 -23 c14
-13 25 -34 25 -47z m274 -151 c67 -108 101 -182 83 -182 -13 0 -51 49 -89 115
-22 39 -54 90 -69 114 -31 47 -42 119 -15 91 8 -8 48 -70 90 -138z m-4349 48
c3 -5 -1 -10 -10 -10 -9 0 -13 5 -10 10 3 6 8 10 10 10 2 0 7 -4 10 -10z
m-853 -62 c-7 -7 -12 -8 -12 -2 0 14 12 26 19 19 2 -3 -1 -11 -7 -17z m898 17
c0 -3 -6 -21 -14 -40 -10 -23 -26 -39 -51 -49 -51 -22 -105 -31 -105 -18 0 12
21 29 100 77 55 33 70 39 70 30z m3905 -107 c24 -35 84 -229 91 -295 5 -55 4
-57 -11 -38 -28 34 -124 233 -131 271 -7 36 8 84 25 84 6 0 17 -10 26 -22z
m-294 -9 c14 -7 19 -21 19 -49 0 -50 -24 -76 -81 -85 -37 -6 -45 -4 -61 15
-10 12 -23 39 -29 61 -11 34 -10 41 7 60 16 18 26 20 73 15 29 -4 62 -11 72
-17z m-4561 -20 c0 -17 -20 -49 -30 -49 -5 0 -7 7 -5 15 3 8 7 22 10 30 5 17
25 21 25 4z m886 -39 c-7 -37 -75 -192 -96 -220 -15 -19 -91 -51 -159 -65 -56
-12 -33 17 30 37 109 35 134 64 49 56 -75 -8 -62 19 28 55 84 34 95 57 27 57
-48 0 -59 16 -29 41 15 13 129 66 148 68 5 1 6 -13 2 -29z m-1762 -77 c-39
-99 -88 -190 -92 -170 -4 18 107 251 115 243 2 -2 -8 -35 -23 -73z m1536 42
c0 -8 -20 -60 -45 -115 -25 -55 -45 -104 -45 -108 0 -5 -12 -19 -26 -33 l-26
-24 6 31 c10 43 62 171 92 222 25 43 44 54 44 27z m4710 -46 c6 -11 10 -28 8
-37 -3 -13 -8 -9 -21 15 -20 37 -21 43 -7 43 5 0 14 -9 20 -21z m-100 -71 c10
-24 28 -99 40 -168 11 -69 23 -135 26 -147 7 -35 -8 -27 -32 15 -37 63 -84
342 -58 342 3 0 14 -19 24 -42z m-5355 -5 c-9 -21 -20 -40 -24 -43 -5 -3 -12
-21 -16 -40 -4 -19 -20 -57 -35 -85 -15 -27 -35 -72 -44 -100 -22 -68 -167
-335 -189 -349 -28 -17 -40 12 -19 45 78 122 195 326 212 370 27 71 113 239
123 239 4 0 0 -17 -8 -37z m4744 -62 c26 -72 26 -76 0 -95 -19 -13 -21 -21
-15 -67 10 -72 41 -133 91 -177 l43 -38 11 -144 c6 -80 17 -176 26 -215 8 -38
15 -94 15 -122 0 -62 6 -59 -145 -68 -114 -7 -139 -16 -249 -87 -78 -50 -159
-83 -177 -72 -5 3 -8 13 -7 21 2 11 -8 19 -29 25 -41 11 -75 66 -109 178 -14
47 -45 144 -69 217 -61 183 -72 233 -79 353 -6 90 -5 102 7 88 8 -10 19 -50
26 -90 18 -98 62 -260 106 -388 21 -58 48 -140 62 -183 26 -82 64 -137 114
-162 24 -13 59 -12 59 1 0 2 -20 30 -44 61 -84 109 -213 493 -190 565 5 17 10
15 40 -16 19 -20 49 -43 66 -52 44 -23 55 -6 29 44 -22 44 -28 102 -10 102 29
0 54 -28 85 -96 33 -74 56 -96 76 -76 6 6 -2 41 -27 107 -20 53 -34 102 -32
108 2 6 24 -21 50 -60 26 -39 54 -76 62 -83 26 -22 34 1 19 55 -21 78 -17 82
31 35 58 -57 75 -46 50 29 -22 69 -16 81 40 81 25 0 45 2 45 5 0 2 -7 30 -15
62 -18 70 -19 150 -2 186 6 15 15 27 18 27 4 0 16 -26 28 -59z m-771 29 c21
-13 32 -28 32 -42 0 -41 -61 -116 -108 -135 -23 -9 -46 -13 -50 -9 -4 4 -14
28 -22 54 -13 40 -20 48 -45 52 -37 6 -43 30 -13 57 50 45 151 57 206 23z
m-6843 -101 c51 1 146 -13 320 -48 220 -44 326 -64 450 -86 418 -73 596 -111
770 -162 210 -62 261 -75 352 -92 34 -6 86 -22 115 -35 29 -13 85 -33 123 -44
39 -11 130 -46 204 -76 73 -31 138 -56 143 -56 6 0 24 -6 41 -14 53 -23 166
-56 192 -56 13 0 26 -4 30 -9 3 -5 60 -31 127 -57 68 -26 169 -69 226 -96 56
-26 111 -48 120 -48 9 0 32 -9 50 -20 18 -11 44 -20 58 -20 51 0 294 -111 424
-194 36 -22 101 -59 145 -80 44 -22 98 -54 120 -71 22 -17 57 -42 78 -54 20
-13 42 -31 47 -42 6 -10 20 -19 32 -19 24 0 124 -58 186 -108 40 -32 43 -37
37 -69 -5 -26 -2 -40 11 -54 21 -23 42 -25 50 -4 4 8 12 15 19 15 17 0 164
-127 176 -153 6 -12 25 -29 42 -37 21 -10 35 -26 41 -47 7 -27 13 -32 30 -27
16 4 34 -6 65 -35 35 -33 42 -44 36 -63 -3 -13 -9 -34 -12 -48 -6 -22 -4 -24
10 -11 10 7 17 22 17 32 0 28 12 24 66 -21 63 -51 67 -62 53 -110 -10 -32 -10
-43 0 -53 10 -9 17 -6 35 16 12 15 26 27 31 26 13 0 151 -174 218 -274 46 -68
135 -232 173 -315 19 -44 64 -134 91 -185 101 -192 134 -290 197 -595 23 -115
29 -160 19 -160 -5 0 -17 26 -27 57 -10 32 -29 80 -43 106 -13 27 -45 103 -70
170 -25 67 -52 135 -60 150 -18 36 -10 46 18 21 l22 -19 -7 35 c-8 45 -94 198
-213 380 -102 155 -169 243 -272 355 -35 39 -107 121 -159 183 -133 159 -300
294 -517 419 -87 50 -136 66 -175 58 -39 -9 -40 -43 -4 -90 14 -19 32 -55 40
-82 17 -56 35 -77 134 -153 41 -32 125 -104 185 -160 138 -129 322 -285 385
-327 28 -19 81 -74 125 -130 42 -54 88 -106 101 -116 13 -10 49 -69 79 -130
62 -127 136 -255 181 -313 71 -90 116 -202 154 -384 20 -95 25 -249 11 -300
-6 -23 -10 -19 -38 40 -184 387 -279 559 -414 747 -41 57 -96 134 -123 173
-27 39 -90 116 -140 173 -50 56 -115 131 -145 167 -61 75 -319 322 -401 384
-30 23 -82 57 -115 75 -33 19 -82 51 -110 71 -74 54 -167 91 -251 97 -64 5
-73 3 -98 -18 -28 -25 -47 -81 -39 -121 4 -21 44 -67 145 -166 197 -193 398
-402 398 -411 0 -12 178 -197 282 -296 24 -22 88 -87 143 -145 54 -58 135
-141 180 -186 77 -78 203 -221 234 -267 8 -12 29 -38 47 -58 18 -21 59 -77 92
-125 33 -49 85 -117 116 -152 70 -79 83 -103 106 -208 29 -136 63 -148 76 -28
l6 65 39 -6 c38 -7 40 -6 56 32 14 31 17 65 15 181 -2 78 1 142 5 142 5 0 14
-24 19 -52 6 -29 17 -67 25 -85 11 -28 11 -37 -5 -70 -10 -20 -24 -77 -32
-126 -15 -95 -48 -171 -109 -253 -92 -122 -204 -208 -226 -173 -5 8 -9 28 -9
46 0 65 2 64 -152 57 -84 -4 -198 -2 -291 5 -444 35 -450 36 -482 70 -9 11
-43 25 -73 32 -82 17 -260 80 -423 149 -242 104 -338 159 -591 337 -198 139
-211 150 -237 201 -22 44 -46 140 -37 149 9 10 105 -60 227 -164 82 -71 154
-121 291 -200 208 -120 350 -193 423 -217 28 -10 66 -28 85 -41 50 -34 233
-101 385 -140 226 -59 739 -136 800 -121 14 4 25 12 25 20 0 15 -44 33 -311
126 -216 75 -278 104 -454 214 -66 41 -211 121 -321 179 -227 117 -407 233
-504 322 -36 33 -119 107 -184 165 -65 57 -139 130 -164 162 -31 40 -56 61
-81 69 -20 6 -61 27 -91 45 -107 65 -179 79 -224 43 -57 -45 -69 -125 -30
-201 27 -51 14 -52 -38 -2 -29 28 -73 67 -98 86 -97 76 -442 254 -663 342
-125 49 -292 183 -422 336 -36 41 -85 98 -111 125 -25 28 -71 88 -102 135 -56
86 -130 182 -232 300 -31 36 -79 95 -108 131 -75 97 -359 357 -517 476 -108
80 -168 115 -385 223 -247 122 -322 155 -470 202 -175 56 -230 78 -230 90 0
12 70 5 125 -11 16 -5 111 -29 210 -53 143 -34 199 -53 274 -91 99 -49 136
-51 88 -4 -55 56 -196 108 -477 176 -195 47 -371 84 -377 78 -5 -6 61 -47 76
-47 6 0 11 -5 11 -11 0 -19 -125 -3 -209 25 -41 15 -85 26 -98 26 -14 0 -34 5
-46 12 -12 6 -51 17 -87 24 -36 7 -100 22 -143 34 -63 17 -82 18 -93 9 -12
-10 -16 -8 -20 8 -5 17 -19 24 -71 33 -98 17 -138 36 -168 82 -18 27 -41 46
-74 60 -70 29 -90 92 -57 173 39 93 110 141 276 189 221 63 383 76 845 69 209
-2 403 -4 430 -4z m3691 -41 c-11 -55 -42 -76 -139 -95 -47 -9 -90 -14 -93
-10 -14 14 30 48 119 92 110 55 122 56 113 13z m4712 -63 c26 -100 45 -259 37
-299 -11 -52 -26 -96 -34 -96 -5 0 -11 82 -15 183 -3 100 -9 209 -12 242 -4
33 -4 58 -1 55 3 -3 14 -41 25 -85z m-6502 48 c-10 -10 -19 5 -10 18 6 11 8
11 12 0 2 -7 1 -15 -2 -18z m1855 -39 c-13 -46 -47 -104 -61 -104 -5 0 -10 2
-10 4 0 24 68 151 77 143 2 -3 0 -22 -6 -43z m4329 -59 c40 -94 100 -396 100
-506 0 -63 -23 -135 -40 -124 -5 3 -10 47 -10 98 -1 107 -33 380 -53 452 -17
59 -28 125 -21 125 3 0 13 -20 24 -45z m-1437 -72 c15 -43 45 -151 67 -240 22
-90 49 -185 60 -213 11 -28 20 -61 20 -73 0 -21 0 -21 -14 -2 -7 11 -48 124
-90 251 -71 217 -102 354 -79 354 5 0 21 -35 36 -77z m-3013 59 c0 -22 -47
-53 -112 -74 l-73 -22 50 -6 c61 -6 68 -24 25 -65 -28 -26 -39 -30 -105 -33
-41 -2 -75 -1 -75 2 0 16 70 143 88 159 10 10 48 22 83 28 35 6 65 12 68 15 8
7 51 4 51 -4z m2013 -13 c65 -34 95 -91 62 -119 -12 -10 -25 -7 -72 16 -76 39
-87 58 -50 90 32 28 31 28 60 13z m1161 -69 c3 -11 9 -29 12 -40 3 -11 1 -20
-4 -20 -10 0 -32 44 -32 65 0 22 18 18 24 -5z m-3065 -24 c-11 -24 -29 -36
-29 -18 0 12 31 54 36 49 3 -2 -1 -16 -7 -31z m-89 -1 c0 -16 -31 -63 -45 -69
-34 -13 -34 2 1 43 23 28 44 40 44 26z m2827 -52 c-3 -10 -5 -4 -5 12 0 17 2
24 5 18 2 -7 2 -21 0 -30z m-1550 -37 c18 -9 34 -19 37 -24 2 -4 -6 -28 -18
-52 -25 -51 -53 -61 -92 -36 -21 14 -24 24 -24 75 0 32 3 60 6 63 7 8 51 -5
91 -26z m1418 -131 c5 -63 4 -106 -1 -102 -13 13 -29 134 -26 192 5 80 19 33
27 -90z m154 35 c6 -47 14 -96 18 -110 4 -19 3 -22 -6 -14 -13 12 -40 146 -41
199 0 57 18 10 29 -75z m-2927 39 c-3 -28 -52 -83 -64 -71 -5 5 -4 22 2 38 23
60 68 84 62 33z m-131 11 c26 -15 24 -42 -6 -70 -21 -19 -38 -24 -107 -28
l-81 -5 19 34 c21 36 92 79 132 79 13 0 32 -5 43 -10z m-305 -89 c-20 -38 -67
-93 -74 -86 -7 7 68 115 79 115 5 0 3 -13 -5 -29z m369 -41 c7 -12 -72 -96
-81 -87 -10 10 17 76 34 87 22 12 39 12 47 0z m85 -5 c0 -8 -4 -15 -10 -15 -5
0 -10 7 -10 15 0 8 5 15 10 15 6 0 10 -7 10 -15z m-190 -8 c0 -7 -15 -30 -34
-50 l-34 -38 -79 3 c-72 3 -78 5 -75 23 6 33 25 45 93 59 84 19 129 20 129 3z
m4537 -19 c-3 -8 -6 -5 -6 6 -1 11 2 17 5 13 3 -3 4 -12 1 -19z m1150 5 c9
-23 -32 -53 -73 -53 -29 0 -34 4 -34 23 0 33 19 47 62 47 27 0 41 -5 45 -17z
m-2457 -79 c0 -14 -4 -23 -10 -19 -5 3 -10 15 -10 26 0 10 5 19 10 19 6 0 10
-12 10 -26z m2060 11 c0 -8 -4 -15 -10 -15 -5 0 -7 7 -4 15 4 8 8 15 10 15 2
0 4 -7 4 -15z m-708 -70 c10 -33 18 -68 18 -78 0 -21 -79 -60 -113 -55 -27 4
-34 38 -14 70 8 13 18 39 22 58 9 41 33 72 54 68 9 -2 22 -28 33 -63z m-1605
12 c-6 -19 -22 -6 -25 20 -2 27 -2 27 13 8 8 -10 14 -23 12 -28z m-107 -3 c0
-14 -4 -22 -10 -19 -5 3 -10 17 -10 31 0 14 4 22 10 19 6 -3 10 -17 10 -31z
m-2770 17 c0 -5 -7 -14 -15 -21 -16 -14 -18 -10 -9 14 6 17 24 22 24 7z m-90
-12 c0 -19 -40 -78 -60 -89 -42 -22 -41 39 1 74 32 27 59 34 59 15z m-125 -8
c6 -11 -42 -51 -61 -51 -25 0 -95 33 -87 41 18 17 138 25 148 10z m175 -45 c0
-3 -4 -8 -10 -11 -5 -3 -10 -1 -10 4 0 6 5 11 10 11 6 0 10 -2 10 -4z m3224
-22 c3 -9 6 -23 6 -32 -1 -15 -3 -14 -15 2 -17 22 -20 46 -6 46 5 0 12 -7 15
-16z m1826 -86 c-16 -44 -39 -73 -106 -139 -47 -46 -104 -112 -126 -146 -58
-89 -66 -86 -101 36 -12 39 -13 59 -6 73 14 25 5 48 -19 48 -10 0 -27 10 -38
21 -10 12 -33 28 -50 35 -57 24 -96 -6 -59 -46 8 -9 28 -54 44 -101 16 -46 39
-110 50 -143 23 -60 26 -146 5 -153 -5 -2 -67 34 -137 81 -131 87 -252 138
-326 138 -20 0 -63 11 -95 24 -102 41 -154 25 -81 -25 19 -13 35 -27 35 -31 0
-3 -22 -2 -48 3 -59 12 -90 4 -72 -18 16 -19 74 -35 126 -35 33 0 43 4 47 20
7 25 29 25 136 0 91 -22 132 -43 171 -87 23 -25 50 -67 50 -76 0 -9 -327 -22
-470 -19 -112 3 -160 8 -174 18 -27 18 -73 18 -127 -2 -24 -9 -83 -19 -130
-23 -69 -6 -103 -15 -163 -44 -75 -36 -141 -87 -120 -94 6 -2 58 19 115 47 96
47 149 59 150 35 1 -12 7 -8 -141 -78 -135 -65 -217 -130 -335 -267 -44 -52
-104 -119 -133 -149 -67 -71 -146 -186 -138 -200 12 -19 33 -12 52 17 48 74
407 449 438 458 12 3 53 30 91 59 88 66 109 77 220 110 50 15 109 33 133 41
23 8 52 14 62 14 39 0 19 -15 -43 -33 -79 -23 -296 -142 -396 -218 -103 -77
-260 -226 -296 -281 -15 -23 -37 -55 -47 -71 -17 -24 -17 -28 -3 -33 23 -9 86
36 211 155 125 118 277 239 326 260 18 7 44 20 58 28 109 63 347 143 483 162
192 28 278 30 377 10 173 -35 161 -31 174 -69 11 -33 13 -35 58 -35 26 0 49
-3 53 -7 9 -8 -42 -43 -116 -78 -49 -23 -72 -29 -100 -25 -31 5 -42 1 -90 -36
-30 -24 -129 -118 -221 -209 -141 -140 -167 -171 -173 -203 -8 -42 4 -63 30
-54 8 4 18 15 21 24 18 60 56 110 147 195 180 167 220 184 80 32 -116 -124
-268 -375 -308 -508 -30 -99 -12 -166 34 -129 16 13 27 43 41 106 20 90 34
121 131 282 71 118 301 350 433 437 48 32 95 58 102 58 8 0 39 9 69 19 39 14
55 16 55 7 0 -6 -20 -61 -44 -122 -54 -135 -65 -181 -42 -190 9 -3 24 -3 33 0
15 6 15 8 0 23 -15 15 -14 18 7 44 13 15 38 67 55 116 18 48 37 93 43 100 6 7
28 13 48 13 34 0 42 -5 72 -47 43 -60 73 -108 95 -153 10 -20 34 -56 54 -80
85 -106 180 -281 233 -427 14 -40 34 -90 45 -110 26 -50 78 -106 94 -100 23 8
9 63 -62 237 -121 295 -131 315 -180 376 -64 80 -143 197 -181 269 -30 56 -30
60 -13 73 10 7 50 23 88 35 63 20 90 22 280 21 478 -1 642 -56 909 -305 39
-36 84 -74 99 -84 26 -17 30 -17 44 -2 15 14 15 18 -2 43 -10 15 -34 46 -55
68 -20 23 -46 57 -57 76 -44 73 -205 193 -274 204 -24 4 -70 20 -103 35 -57
27 -72 29 -226 35 -238 8 -295 20 -217 45 70 23 171 30 387 27 l225 -2 80 -36
c44 -20 127 -46 185 -57 198 -41 305 -86 435 -184 144 -107 335 -327 335 -385
0 -11 -8 -25 -17 -31 -17 -9 -17 -11 0 -28 10 -10 17 -13 17 -5 0 24 29 11 60
-25 41 -50 114 -200 139 -288 11 -38 32 -128 46 -200 24 -120 26 -145 23 -345
l-3 -217 -28 -36 c-15 -20 -34 -37 -42 -37 -11 0 -12 -6 -5 -26 6 -14 10 -46
10 -72 0 -52 -44 -225 -66 -259 -8 -12 -14 -29 -14 -36 0 -8 -7 -20 -15 -27
-8 -7 -15 -22 -15 -34 0 -12 -9 -29 -20 -38 -11 -10 -35 -49 -54 -87 -51 -100
-206 -304 -221 -289 -4 4 15 35 60 96 13 18 32 54 41 80 10 26 25 56 35 67 25
29 59 101 59 124 0 11 8 24 18 30 16 9 16 10 -1 17 -10 3 -19 5 -20 3 -33 -47
-108 -167 -153 -247 -33 -57 -85 -137 -117 -177 -79 -102 -239 -268 -306 -319
-164 -125 -481 -302 -481 -269 0 18 104 125 139 143 84 42 311 249 311 282 0
29 -15 21 -90 -48 -40 -36 -74 -63 -77 -61 -7 8 31 76 79 142 68 93 231 343
270 415 42 76 79 189 115 350 28 126 34 255 19 400 -8 78 -7 83 8 71 22 -19
37 -4 45 46 6 32 10 38 29 35 27 -4 64 51 120 181 47 107 54 140 31 145 -11 2
-19 -9 -27 -36 -15 -49 -39 -73 -52 -51 -5 8 -12 34 -16 59 -10 76 -32 152
-48 168 -13 13 -16 12 -21 -10 -4 -14 0 -49 9 -79 8 -30 23 -98 32 -151 16
-97 16 -97 -7 -138 -12 -22 -26 -40 -31 -40 -4 0 -8 47 -8 104 0 93 -9 131
-26 113 -3 -2 -9 -53 -14 -113 -5 -60 -12 -119 -16 -132 -12 -42 -29 -16 -40
62 -6 45 -17 83 -26 93 -19 19 -53 10 -45 -12 16 -39 49 -483 47 -623 -2 -127
-46 -247 -127 -345 -21 -25 -68 -102 -103 -169 -35 -68 -75 -141 -90 -163 -15
-22 -55 -89 -88 -149 -84 -148 -136 -217 -233 -313 -108 -106 -116 -111 -229
-168 -160 -80 -442 -136 -606 -119 l-66 7 6 47 c9 68 53 232 86 325 16 44 34
103 41 130 6 28 29 103 50 167 53 160 99 450 99 629 0 36 9 101 20 145 19 73
20 89 9 204 -13 140 -26 193 -51 198 -9 2 -24 -8 -33 -22 -16 -24 -16 -29 1
-78 14 -40 18 -84 19 -183 0 -116 -2 -135 -22 -172 -23 -42 -27 -74 -53 -408
-11 -146 -27 -220 -84 -402 -54 -170 -151 -379 -191 -413 -20 -17 -19 -11 15
121 77 290 130 512 144 594 32 185 30 313 -4 279 -17 -17 -33 -210 -20 -234 8
-15 7 -26 -2 -42 -10 -20 -32 -98 -69 -256 -21 -86 -25 -29 -8 115 35 291 34
275 13 271 -16 -3 -20 -17 -27 -88 -22 -224 -86 -489 -133 -553 -15 -21 -16
-19 -9 33 3 30 16 93 27 140 23 95 39 378 20 366 -10 -6 -17 -51 -46 -287 -15
-118 -59 -281 -118 -431 -19 -47 -28 -84 -23 -95 7 -20 10 -17 63 59 13 18 41
58 64 88 22 30 55 87 73 126 36 78 60 106 49 57 -14 -62 -77 -238 -105 -294
-38 -74 -110 -138 -217 -191 -66 -34 -92 -41 -135 -41 -28 1 -72 1 -97 0 -228
-7 -310 7 -401 69 -30 20 -75 47 -101 60 -53 27 -74 52 -83 105 -8 44 -18 60
-38 63 -26 3 -54 34 -107 116 -87 137 -132 283 -151 495 -6 66 -18 145 -26
175 -11 38 -17 120 -20 268 -5 195 -7 212 -23 212 -10 0 -21 -8 -25 -17 -14
-35 -17 -282 -6 -463 13 -211 33 -342 67 -450 25 -78 32 -132 15 -115 -21 21
-82 229 -116 390 -42 206 -47 224 -60 225 -18 1 -17 -40 3 -143 11 -56 24
-129 27 -162 8 -70 84 -321 109 -359 13 -21 24 -26 56 -26 22 0 40 -4 40 -8 0
-5 27 -53 60 -108 33 -54 60 -105 60 -111 0 -29 -164 -4 -305 47 -122 44 -318
143 -385 195 -30 24 -79 66 -108 94 -47 45 -53 55 -47 79 4 15 7 31 8 36 1 5
-20 21 -47 36 -28 15 -67 46 -88 70 -44 49 -112 180 -133 255 -24 88 -41 125
-62 140 -29 20 -43 110 -43 267 0 137 -7 191 -24 185 -20 -7 -38 -91 -40 -184
-1 -119 -16 -119 -50 -2 -18 64 -22 282 -7 414 5 44 13 146 17 226 7 143 6
147 -16 169 -19 19 -24 20 -31 8 -14 -25 -40 -207 -38 -267 1 -31 -6 -92 -14
-136 -9 -44 -17 -100 -18 -125 -1 -41 -16 -109 -18 -85 -1 6 -5 46 -11 90 -24
206 -29 341 -18 495 11 152 7 230 -13 230 -23 0 -31 -68 -37 -283 -5 -239 5
-407 38 -612 10 -60 16 -114 13 -119 -8 -13 -80 191 -88 250 -4 27 -16 82 -26
123 -10 40 -23 121 -29 180 -5 58 -15 158 -21 221 -19 178 -8 328 31 455 10
33 21 75 24 94 17 96 150 377 220 464 23 29 78 99 121 157 113 149 282 320
372 376 57 36 88 48 141 55 37 5 102 23 144 39 61 24 82 28 103 20 14 -5 25
-16 25 -24 0 -22 49 -56 81 -56 15 0 31 -4 34 -10 8 -13 182 -13 190 0 6 10
-6 14 -115 31 -76 12 -159 37 -127 38 10 1 44 12 77 26 42 18 78 25 121 25 55
0 70 5 148 49 97 56 218 100 277 101 21 0 67 -3 102 -6 49 -5 75 -1 125 16 86
31 252 39 329 16 88 -25 111 -22 157 24 22 22 46 40 55 40 8 0 30 18 48 40 41
49 49 29 18 -52z m-2010 15 c33 -102 60 -163 93 -211 23 -35 26 -46 17 -57
-24 -29 -46 -16 -77 43 -20 38 -34 84 -42 137 -6 44 -14 97 -17 118 -10 58 2
44 26 -30z m1859 56 c38 -13 41 -29 5 -29 -32 0 -66 18 -59 31 8 12 15 11 54
-2z m-1639 -91 c0 -5 -4 -8 -10 -8 -5 0 -10 10 -10 23 0 18 2 19 10 7 5 -8 10
-18 10 -22z m60 -95 c0 -20 -17 -16 -34 9 -26 37 -20 55 9 28 14 -13 25 -29
25 -37z m1880 9 c0 -5 -14 -21 -32 -38 -17 -16 -28 -24 -25 -18 4 6 11 23 16
38 10 23 41 38 41 18z m344 -2 c170 -17 314 -64 418 -139 41 -29 49 -31 191
-40 l147 -10 144 -71 c159 -79 206 -116 206 -162 0 -29 1 -30 38 -23 34 5 40
2 73 -32 20 -21 46 -53 59 -72 l23 -34 -44 6 c-24 3 -87 15 -139 27 -52 11
-133 28 -180 36 -47 8 -116 26 -155 39 -118 39 -208 49 -409 42 -206 -7 -397
-36 -428 -64 -27 -24 -213 -27 -213 -3 0 9 13 17 35 21 19 3 56 15 83 27 26
11 71 25 100 31 28 5 65 14 80 20 48 19 194 26 222 11 27 -15 55 -8 55 14 0 9
-20 22 -50 33 -27 10 -50 21 -50 25 0 16 139 80 194 90 11 2 21 9 24 17 4 12
-15 13 -109 8 -127 -6 -248 -36 -350 -88 -33 -16 -65 -29 -71 -27 -21 7 84 80
135 94 73 19 127 45 127 61 0 19 -38 16 -116 -11 -94 -32 -116 -44 -208 -115
-79 -61 -99 -72 -91 -48 35 114 37 117 97 172 62 55 60 72 -3 39 -17 -8 -33
-14 -35 -12 -2 2 5 31 15 63 12 43 24 63 42 72 29 15 20 15 143 3z m-679 -281
c-13 -30 -30 -79 -36 -109 -7 -30 -20 -64 -29 -75 -10 -11 -20 -27 -23 -35 -3
-8 -6 5 -6 30 -1 46 44 157 90 222 31 43 33 28 4 -33z m83 -1 c-9 -18 -21 -44
-26 -58 -9 -21 -11 -22 -11 -5 -1 26 37 110 46 102 3 -4 -1 -22 -9 -39z m222
21 c9 -16 8 -32 -4 -69 -9 -27 -16 -58 -16 -69 0 -11 -5 -54 -11 -96 -11 -74
-12 -75 -48 -86 -20 -6 -61 -9 -91 -7 l-55 3 1 38 c2 48 79 206 129 265 41 47
77 55 95 21z m-2342 -31 c15 -15 16 -45 2 -53 -16 -10 -40 15 -40 41 0 26 19
31 38 12z m-298 -30 c26 -43 25 -92 -1 -135 -17 -27 -27 -33 -48 -31 -25 3
-26 5 -25 63 1 71 20 135 40 135 8 0 23 -15 34 -32z m3056 -40 c-9 -5 -24 -7
-34 -5 -14 3 -12 6 8 14 29 12 50 5 26 -9z m-695 -71 c-8 -8 -11 -5 -11 9 0
27 14 41 18 19 2 -9 -1 -22 -7 -28z m-2221 -26 c0 -5 -15 -26 -34 -45 -35 -37
-63 -48 -52 -20 3 9 6 20 6 25 0 5 9 18 20 29 20 20 60 27 60 11z m20 -89 c0
-5 -14 -29 -32 -53 -25 -34 -33 -40 -36 -26 -2 10 8 33 23 52 25 33 45 45 45
27z m-5331 -64 c6 -18 15 -97 21 -175 6 -79 17 -166 24 -194 8 -28 9 -46 4
-41 -26 26 -98 390 -85 425 10 26 25 20 36 -15z m5016 -5 c-7 -41 -42 -120
-57 -129 -18 -12 -19 4 -3 67 21 78 31 99 51 99 13 0 15 -7 9 -37z m-1409 0
c-10 -10 -19 5 -10 18 6 11 8 11 12 0 2 -7 1 -15 -2 -18z m1630 -59 c-9 -23
-125 -191 -142 -204 -11 -10 -14 -10 -14 1 0 16 35 110 56 151 23 45 116 94
100 52z m-5053 -92 l98 -98 -25 -100 c-13 -54 -32 -146 -41 -204 -9 -58 -18
-116 -22 -130 l-5 -25 -9 24 c-20 52 -79 302 -98 420 -27 159 -27 211 -2 211
4 0 50 -44 104 -98z m145 -259 c-4 -43 -14 -103 -22 -133 -8 -30 -17 -80 -21
-110 -3 -30 -12 -68 -19 -85 l-13 -30 -8 48 c-9 59 11 257 31 306 19 45 42 81
52 81 5 0 5 -35 0 -77z m175 -113 c39 -52 90 -119 114 -149 25 -30 54 -73 65
-95 19 -38 20 -40 2 -53 -13 -9 -56 -13 -146 -13 -149 0 -193 12 -204 57 -7
26 28 341 42 377 6 15 9 15 32 -6 13 -13 56 -66 95 -118z m3715 -305 c20 -27
53 -69 75 -93 49 -55 40 -69 -11 -16 -21 21 -55 54 -75 73 -40 37 -107 132
-107 152 0 18 73 -55 118 -116z m-904 79 c9 -3 16 -12 16 -20 0 -12 -4 -12
-20 -2 -30 19 -27 34 4 22z m76 -74 c8 -5 12 -11 9 -14 -3 -3 -14 1 -25 9 -21
16 -8 20 16 5z m1007 -222 c15 -24 69 -102 120 -174 51 -72 104 -155 118 -185
14 -30 30 -62 37 -71 20 -27 -2 -35 -23 -9 -11 13 -63 96 -116 185 -53 89
-116 189 -140 222 -45 64 -49 74 -33 74 5 0 22 -19 37 -42z m-427 -108 c101
-103 266 -290 306 -345 85 -119 270 -442 260 -452 -2 -3 -38 44 -79 104 -155
223 -432 561 -542 659 -74 66 -86 89 -63 112 16 16 42 0 118 -78z m-182 -6
c108 -77 261 -219 305 -283 17 -26 74 -102 127 -171 54 -69 157 -215 230 -325
73 -110 149 -218 168 -240 29 -35 73 -126 97 -205 l8 -25 -23 20 c-12 11 -29
33 -37 48 -8 16 -47 73 -86 127 -40 53 -112 154 -161 224 -206 292 -437 556
-619 709 -111 93 -146 138 -133 172 9 26 30 17 124 -51z m-3125 -91 c4 -3 2
-12 -5 -20 -6 -7 -8 -16 -5 -19 12 -12 84 -23 201 -29 127 -7 313 -35 406 -62
30 -8 89 -35 130 -58 73 -42 307 -145 329 -145 6 0 19 -4 29 -9 9 -5 32 -15
51 -22 76 -28 261 -169 222 -169 -8 0 -52 15 -100 34 -57 23 -118 39 -181 46
-130 16 -810 26 -810 12 0 -16 23 -20 165 -32 90 -7 187 -24 315 -54 102 -25
211 -50 243 -56 71 -14 74 -30 5 -30 -111 0 -704 -42 -718 -52 -13 -8 163 -7
750 6 l65 1 3 33 3 32 74 0 c56 0 87 -6 127 -23 29 -13 66 -27 83 -31 32 -8
55 -23 55 -37 0 -11 -121 -72 -185 -92 -90 -29 -215 -47 -464 -67 -135 -11
-249 -20 -253 -20 -4 0 -8 -4 -8 -10 0 -15 171 -12 362 6 225 21 247 18 138
-22 -77 -29 -155 -47 -305 -72 -54 -9 -155 -74 -155 -100 0 -8 17 -32 39 -53
47 -48 86 -52 122 -13 40 43 100 71 189 89 47 9 112 27 146 41 33 13 63 24 67
24 3 0 18 5 34 11 15 7 37 13 48 14 23 3 137 50 213 89 30 15 56 26 58 23 2
-2 7 -17 10 -34 5 -27 2 -33 -22 -46 -16 -8 -63 -42 -104 -76 -76 -63 -161
-104 -393 -191 -56 -21 -136 -54 -178 -73 -93 -43 -259 -97 -299 -97 -35 0
-49 -19 -26 -35 22 -17 231 46 415 124 75 32 179 73 232 90 53 18 129 52 169
77 39 24 76 41 82 38 29 -18 -153 -141 -353 -239 -116 -56 -249 -109 -528
-210 -64 -24 -101 -49 -88 -61 4 -4 28 3 55 15 26 12 83 33 127 46 263 78 629
239 723 318 24 21 46 37 48 37 14 0 -8 -25 -108 -127 -97 -98 -116 -113 -144
-113 -23 0 -39 -8 -53 -26 -24 -31 -26 -46 -8 -75 10 -17 9 -22 -7 -35 -33
-24 -60 -17 -80 21 -24 43 -38 44 -69 3 -41 -55 -57 -95 -51 -125 5 -26 2 -31
-42 -53 -25 -14 -71 -53 -102 -87 -30 -34 -66 -67 -81 -72 -14 -6 -33 -15 -41
-20 -20 -13 -246 -85 -345 -110 -95 -24 -415 -93 -534 -115 -124 -24 -209 -21
-238 6 -41 38 -23 58 54 58 45 0 202 52 258 84 29 17 45 34 45 46 0 26 -37 27
-78 3 -27 -15 -33 -16 -57 -3 -24 13 -43 11 -188 -18 -89 -18 -216 -39 -282
-48 -140 -17 -570 -23 -586 -7 -7 7 22 12 88 17 135 9 264 26 287 38 41 22
-14 26 -224 17 -123 -5 -218 -5 -223 0 -5 5 35 23 95 42 74 24 104 39 106 51
5 24 -15 23 -101 -8 -66 -23 -85 -26 -219 -25 -166 2 -198 9 -198 45 0 32 22
48 54 40 32 -8 88 25 119 71 39 57 105 99 197 123 61 16 99 34 137 62 53 40
77 48 88 30 12 -19 73 -11 103 15 28 23 32 24 58 10 38 -19 68 -19 107 2 18 9
52 24 77 33 50 17 60 41 40 94 -8 22 -15 27 -36 24 -21 -2 -30 -12 -43 -44
-22 -57 -39 -74 -71 -74 l-28 0 6 65 c5 62 4 65 -18 65 -21 0 -67 -41 -101
-91 -19 -27 -36 -21 -21 8 13 26 4 43 -24 43 -17 0 -31 -11 -49 -40 -42 -67
-81 -70 -46 -4 22 41 20 54 -9 54 -12 0 -32 -20 -54 -53 -20 -30 -45 -62 -57
-73 -22 -19 -22 -19 -15 6 3 14 9 45 13 70 l6 45 -26 -23 c-14 -13 -39 -51
-57 -84 -18 -32 -34 -57 -37 -55 -2 3 0 15 7 26 6 12 8 26 5 31 -13 22 -44 8
-80 -35 -32 -40 -39 -44 -49 -30 -15 21 -38 11 -60 -25 -20 -35 -52 -55 -61
-40 -4 6 -4 33 0 60 10 75 -14 65 -65 -28 -35 -64 -47 -64 -55 3 -12 93 -1
206 21 222 26 19 48 12 52 -15 4 -29 17 -28 58 3 46 35 87 106 79 138 -17 67
204 257 389 333 43 19 89 43 102 55 14 13 50 26 96 35 70 13 117 37 126 62 6
20 -137 4 -170 -19 -18 -13 -45 -19 -80 -19 -45 0 -66 -8 -135 -48 -198 -114
-303 -195 -332 -256 -11 -25 -31 -50 -43 -57 -31 -16 -202 -191 -234 -239 -36
-54 -59 -54 -50 -1 9 56 62 190 96 245 36 56 37 64 8 68 -40 5 -32 40 28 124
76 105 107 137 184 190 36 25 91 67 123 94 33 26 71 51 85 55 31 8 109 62 116
82 9 23 -23 27 -58 8 -32 -17 -66 -16 -66 3 0 4 21 18 46 31 39 18 56 21 100
15 53 -6 53 -6 75 30 22 37 63 56 126 56 41 0 139 36 178 65 80 59 396 170
514 179 84 7 91 10 91 37 0 11 10 24 23 29 25 10 260 13 270 3z m3134 -83 c30
-17 70 -53 96 -87 25 -32 65 -77 90 -99 53 -49 251 -293 244 -300 -3 -3 -75
70 -161 163 -85 92 -191 201 -236 241 -75 69 -111 112 -93 112 4 0 31 -14 60
-30z m-4192 -96 c-23 -18 -188 -98 -223 -109 -22 -6 -23 -5 -12 14 6 12 28 29
48 38 20 9 54 25 75 35 45 23 84 36 112 37 l20 0 -20 -15z m-527 -276 c-6 -17
-68 -62 -68 -49 0 15 45 61 60 61 7 0 10 -5 8 -12z m3448 -59 c56 -44 185
-171 179 -177 -2 -3 -34 15 -70 38 -66 43 -155 133 -155 157 0 18 2 17 46 -18z
m-3536 -33 c0 -3 -4 -8 -10 -11 -5 -3 -10 -1 -10 4 0 6 5 11 10 11 6 0 10 -2
10 -4z m-50 -53 c0 -10 -62 -73 -72 -73 -22 0 -5 42 25 60 34 21 47 25 47 13z
m5380 -87 c0 -6 -7 -2 -15 8 -8 11 -15 25 -15 30 0 6 7 2 15 -8 8 -11 15 -25
15 -30z m-1545 -113 c44 -29 98 -65 120 -82 22 -16 105 -61 184 -101 79 -39
160 -82 180 -95 32 -22 338 -145 359 -145 4 0 23 -11 41 -24 19 -14 46 -28 62
-31 16 -4 29 -11 29 -16 0 -12 2 -13 -153 25 -94 24 -153 44 -185 65 -26 16
-76 42 -112 58 -86 37 -210 104 -405 220 -204 122 -225 137 -225 169 0 18 4
23 13 17 6 -4 48 -31 92 -60z m1815 27 c0 -5 -2 -10 -4 -10 -3 0 -8 5 -11 10
-3 6 -1 10 4 10 6 0 11 -4 11 -10z m236 -458 c-11 -10 -26 11 -26 37 0 43 14
47 23 5 4 -20 5 -39 3 -42z m-69 -8 c-9 -9 -28 6 -21 18 4 6 10 6 17 -1 6 -6
8 -13 4 -17z m-2795 -171 c-49 -84 -46 -80 -222 -216 -192 -149 -222 -177
-225 -212 -5 -37 -31 -57 -114 -85 -36 -13 -70 -27 -76 -32 -16 -15 16 -28 68
-28 34 0 47 -4 45 -12 -9 -26 -84 -68 -138 -77 -30 -5 -109 -35 -174 -66 -66
-31 -154 -65 -195 -76 -42 -10 -100 -28 -128 -39 -65 -24 -286 -70 -341 -70
-69 0 -62 26 14 54 l39 15 -76 0 c-42 1 -80 6 -86 12 -9 9 -59 9 -200 -1 -165
-11 -204 -11 -319 4 -139 17 -167 23 -159 36 3 4 125 11 272 15 261 7 269 7
304 31 21 15 61 28 100 34 35 5 87 14 114 20 28 5 152 30 276 55 135 27 253
56 295 73 38 16 87 35 109 42 82 26 223 99 278 144 31 25 87 66 124 90 147 96
361 257 364 274 1 4 3 17 4 28 1 12 6 27 10 34 10 16 69 41 73 30 2 -5 -15
-40 -36 -77z m905 -89 c-7 -7 -37 7 -37 17 0 6 9 5 21 -1 11 -7 19 -14 16 -16z
m135 -55 c10 -6 44 -14 75 -20 32 -6 93 -21 136 -35 43 -13 92 -24 110 -24 18
0 49 -9 69 -20 21 -11 93 -31 160 -45 106 -21 162 -25 395 -31 241 -5 281 -4
350 12 43 10 89 26 103 36 14 10 41 21 60 24 l35 7 -25 -20 c-40 -32 -99 -58
-190 -84 -80 -22 -100 -24 -345 -23 l-260 0 -175 37 c-96 20 -231 55 -300 78
-127 42 -290 114 -290 129 0 9 63 -6 92 -21z m4923 1 c-6 -9 -9 -9 -16 1 -10
17 0 34 13 21 6 -6 7 -16 3 -22z m-9161 -17 c-9 -52 -14 -54 -14 -5 0 23 5 42
10 42 7 0 8 -14 4 -37z m3187 -11 c-13 -24 -178 -182 -191 -182 -23 0 -5 23
87 109 96 90 123 108 104 73z m-3111 -164 c0 -16 -3 -19 -11 -11 -6 6 -8 16
-5 22 11 17 16 13 16 -11z m71 -139 c16 -8 18 -13 8 -25 -23 -28 -84 -10 -72
22 6 17 37 18 64 3z m1289 -79 c0 -5 -8 -10 -17 -10 -15 0 -16 2 -3 10 19 12
20 12 20 0z m7650 -5 c-7 -9 -15 -13 -17 -11 -7 7 7 26 19 26 6 0 6 -6 -2 -15z
m-8675 -32 c205 -53 203 -53 554 -53 l333 0 -7 -37 c-3 -21 -10 -42 -15 -46
-12 -14 -453 -12 -565 2 -204 25 -495 120 -495 162 0 15 67 5 195 -28z m315
-163 c8 -5 12 -12 9 -15 -8 -8 -39 5 -39 16 0 11 11 11 30 -1z m145 -30 c8
-13 -35 -13 -55 0 -11 7 -7 10 17 10 17 0 35 -4 38 -10z m-27 -53 c72 -21 84
-30 58 -40 -28 -11 -236 49 -236 67 0 9 115 -8 178 -27z"/>
<path d="M7967 7914 c-3 -4 0 -19 7 -33 8 -14 30 -60 49 -101 66 -145 249
-431 320 -498 30 -29 35 -31 41 -16 7 18 -17 56 -139 221 -99 136 -118 166
-140 219 -12 27 -29 61 -38 74 -9 14 -17 32 -17 41 0 9 -9 24 -19 33 -11 10
-21 28 -23 39 -3 22 -28 34 -41 21z"/>
<path d="M8180 7781 c0 -28 67 -162 146 -291 35 -58 64 -113 64 -122 0 -20 26
-42 40 -33 18 11 11 54 -17 96 -15 22 -67 113 -117 201 -88 157 -116 192 -116
149z"/>
<path d="M7866 7771 c-3 -5 16 -44 43 -88 69 -114 349 -531 362 -539 6 -3 16
-1 22 5 16 16 -7 56 -124 218 -57 78 -126 180 -152 226 -73 126 -137 201 -151
178z"/>
<path d="M7675 7740 c-9 -14 18 -59 140 -230 103 -145 145 -194 145 -171 0 29
-111 205 -193 306 -14 17 -35 47 -47 68 -23 38 -34 45 -45 27z"/>
<path d="M7203 7704 c-8 -20 9 -49 28 -49 18 0 24 32 9 50 -16 20 -29 19 -37
-1z"/>
<path d="M7482 7623 c2 -5 21 -39 43 -78 22 -38 92 -169 156 -290 70 -132 123
-221 133 -223 9 -2 16 3 16 12 0 19 -75 173 -95 196 -7 8 -25 44 -40 80 -14
36 -44 92 -65 125 -21 33 -55 88 -76 123 -25 41 -44 62 -57 62 -10 0 -17 -3
-15 -7z"/>
<path d="M7366 7613 c-9 -9 -7 -46 3 -62 8 -12 12 -12 25 -2 9 8 16 22 16 32
0 19 -33 43 -44 32z"/>
<path d="M6886 7578 c-18 -26 -21 -54 -6 -63 17 -11 40 15 40 46 0 37 -15 45
-34 17z"/>
<path d="M6496 7555 c-6 -17 2 -45 14 -45 4 0 10 8 12 18 9 34 -13 59 -26 27z"/>
<path d="M7033 7544 c-8 -22 10 -49 33 -49 22 0 31 30 14 50 -16 20 -39 19
-47 -1z"/>
<path d="M6615 7510 c-10 -17 4 -62 18 -57 15 5 16 59 0 64 -6 2 -14 -1 -18
-7z"/>
<path d="M6644 7395 c-4 -8 5 -41 19 -73 91 -206 130 -795 72 -1077 -36 -176
-42 -519 -15 -820 16 -185 19 -195 41 -195 17 0 20 5 15 28 -3 15 -8 70 -11
122 -3 52 -13 137 -21 189 -13 80 -14 126 -5 300 6 113 20 260 31 325 13 81
22 195 26 350 7 251 -3 398 -37 551 -11 49 -26 127 -34 172 -7 45 -19 94 -27
110 -15 32 -45 42 -54 18z"/>
<path d="M7309 7368 c10 -24 35 -106 55 -183 52 -192 66 -236 129 -415 30 -85
67 -211 82 -280 144 -665 235 -988 289 -1022 30 -19 21 26 -43 218 -38 115
-77 243 -86 284 -9 41 -26 107 -36 145 -28 99 -66 270 -89 404 -12 62 -36 152
-54 200 -18 47 -36 100 -39 118 -3 17 -22 71 -41 120 -19 48 -53 158 -76 243
-47 175 -62 210 -90 210 -19 0 -19 -1 -1 -42z"/>
<path d="M6495 7358 c13 -62 28 -108 37 -108 4 0 8 7 8 15 0 32 20 12 39 -40
47 -125 72 -237 86 -380 8 -81 16 -150 19 -153 32 -31 27 180 -7 328 -14 63
-34 150 -43 193 -14 71 -21 84 -63 128 -57 59 -86 65 -76 17z"/>
<path d="M7150 7335 c0 -20 29 -125 64 -233 77 -235 122 -448 142 -672 8 -91
23 -210 34 -265 26 -132 94 -379 129 -468 16 -40 34 -97 40 -127 28 -131 53
-190 82 -190 18 0 8 47 -36 180 -25 74 -59 176 -74 225 -16 50 -36 108 -45
130 -8 22 -26 101 -40 175 -14 74 -30 151 -36 170 -5 19 -17 100 -25 180 -31
293 -38 347 -62 465 -15 74 -45 173 -79 260 -30 77 -60 152 -66 168 -16 41
-28 42 -28 2z"/>
<path d="M7480 7345 c0 -20 66 -151 80 -160 26 -16 20 9 -20 89 -41 82 -60
104 -60 71z"/>
<path d="M7843 7223 c-28 -10 -1 -94 57 -172 28 -38 34 -42 47 -29 13 14 13
21 -1 68 -26 88 -70 145 -103 133z"/>
<path d="M6534 7118 c40 -392 36 -510 -29 -805 -49 -221 -112 -631 -130 -838
-8 -99 -20 -195 -26 -213 -6 -18 -8 -39 -5 -47 16 -43 80 21 90 90 7 45 28 94
58 136 6 9 8 24 5 33 -6 14 -11 15 -28 6 -16 -9 -24 -9 -32 -1 -32 32 14 440
89 776 13 61 24 122 24 136 0 14 4 39 10 55 17 49 49 316 40 338 -4 12 -13 71
-19 131 -7 61 -17 145 -23 188 -13 93 -33 106 -24 15z"/>
<path d="M7587 7147 c-5 -13 88 -212 112 -241 5 -6 15 -33 22 -59 11 -46 41
-78 54 -57 7 11 -30 101 -100 241 -56 110 -78 140 -88 116z"/>
<path d="M8850 6845 c0 -7 96 -131 128 -167 14 -15 30 -35 36 -46 63 -106 208
-327 229 -349 23 -25 47 -30 47 -10 0 8 -49 87 -108 178 -60 90 -111 171 -114
180 -6 16 -107 144 -151 192 -22 23 -67 38 -67 22z"/>
<path d="M8766 6802 c-18 -30 377 -709 407 -699 24 8 17 35 -24 98 -23 35 -52
80 -64 99 -35 55 -209 360 -235 412 -26 53 -75 105 -84 90z"/>
<path d="M9145 6760 c-4 -6 31 -61 78 -123 91 -121 117 -164 117 -198 0 -11
15 -36 34 -55 40 -40 76 -46 76 -12 0 22 -107 191 -164 259 -17 20 -46 55 -64
78 -38 47 -67 66 -77 51z"/>
<path d="M8256 6722 c-11 -18 27 -102 98 -215 76 -124 195 -357 220 -433 9
-27 23 -89 30 -136 8 -47 22 -100 32 -119 l19 -34 3 33 c2 18 -4 69 -13 115
-46 226 -92 336 -255 607 -99 166 -124 198 -134 182z"/>
<path d="M6672 6600 c-55 -284 -118 -1024 -98 -1136 12 -61 20 -29 27 114 4
75 14 187 22 247 9 61 23 200 31 310 9 110 21 238 27 285 6 47 9 121 7 165
l-3 80 -13 -65z"/>
<path d="M8716 6591 c-3 -5 15 -39 40 -77 45 -69 67 -112 182 -356 58 -123 92
-165 78 -97 -5 25 -101 243 -182 414 -17 35 -92 125 -104 125 -5 0 -11 -4 -14
-9z"/>
<path d="M8064 6465 c4 -16 38 -101 75 -189 72 -170 138 -351 166 -451 10 -33
24 -67 32 -75 13 -13 14 -10 8 30 -4 25 -11 52 -16 61 -4 8 -15 46 -24 85 -25
111 -73 238 -150 400 -69 145 -107 203 -91 139z"/>
<path d="M6576 5362 c-3 -6 -1 -14 5 -17 15 -10 25 3 12 16 -7 7 -13 7 -17 1z"/>
<path d="M204 4985 c-11 -27 6 -65 48 -111 66 -71 243 -172 265 -150 10 9 -15
28 -89 68 -31 16 -80 51 -108 76 -43 39 -52 54 -57 90 -5 36 -9 42 -30 42 -13
0 -26 -7 -29 -15z"/>
<path d="M380 4982 c0 -4 9 -13 20 -20 11 -7 20 -21 20 -32 0 -24 -8 -25 -34
-5 -11 8 -23 15 -28 15 -12 0 -10 -35 3 -64 10 -21 17 -24 40 -19 19 3 29 1
29 -6 0 -13 87 -71 108 -71 8 0 -1 17 -22 42 -20 23 -41 58 -46 79 -13 47 -46
89 -71 89 -10 0 -19 -3 -19 -8z"/>
<path d="M750 4869 c0 -14 89 -51 190 -79 47 -12 130 -38 185 -56 111 -36 428
-114 466 -114 13 0 38 -9 55 -19 17 -10 87 -40 156 -65 69 -26 183 -76 252
-111 69 -36 132 -65 141 -65 8 0 22 -12 31 -26 24 -36 88 -66 132 -62 35 3 29
8 -133 99 -202 115 -269 149 -379 193 -138 56 -488 162 -746 226 -133 34 -259
68 -278 75 -41 18 -72 19 -72 4z"/>
<path d="M790 4736 c0 -20 15 -23 157 -41 75 -9 156 -26 198 -41 38 -14 131
-43 205 -64 74 -21 162 -48 194 -59 64 -23 101 -26 111 -11 9 15 -35 38 -143
75 -136 46 -308 91 -449 116 -65 11 -125 25 -135 30 -9 5 -44 9 -77 9 -46 0
-61 -4 -61 -14z"/>
<path d="M670 4706 c20 -19 181 -65 250 -71 l55 -5 -33 15 c-45 21 -234 75
-263 75 -20 0 -21 -2 -9 -14z"/>
<path d="M2040 4350 c0 -13 147 -109 266 -174 96 -52 163 -100 152 -111 -3 -4
-20 1 -38 10 -35 18 -50 14 -31 -9 15 -18 113 -68 119 -61 3 2 -1 11 -8 20
-10 13 -9 15 8 15 24 0 121 -70 206 -148 33 -32 77 -68 96 -81 19 -13 58 -47
85 -75 28 -28 89 -82 135 -121 74 -62 172 -153 435 -408 88 -85 166 -170 230
-252 28 -35 131 -150 230 -257 292 -315 344 -363 367 -340 9 9 -24 48 -129
154 -133 136 -337 358 -560 608 -135 152 -454 456 -758 721 -295 257 -805 579
-805 509z"/>
<path d="M2575 4210 c-11 -17 28 -72 65 -93 19 -11 48 -30 63 -43 30 -25 39
-28 50 -18 7 7 -42 71 -96 126 -37 37 -70 48 -82 28z"/>
<path d="M2794 3997 c14 -19 63 -65 108 -103 46 -38 119 -101 163 -139 44 -39
103 -86 130 -104 28 -19 88 -71 135 -115 47 -45 166 -154 265 -243 100 -88
208 -189 240 -224 33 -35 156 -156 273 -269 125 -120 236 -236 268 -280 76
-105 126 -167 187 -227 52 -53 76 -57 58 -12 -14 38 -272 319 -588 641 -156
159 -283 293 -283 298 0 5 18 -3 40 -17 22 -15 40 -30 40 -34 0 -25 617 -519
648 -519 5 0 35 -20 67 -45 54 -42 59 -44 76 -29 10 9 15 22 13 28 -3 7 -37
33 -76 57 -288 179 -515 357 -902 706 -203 183 -209 189 -321 302 -72 73 -105
96 -105 73 0 -12 146 -152 158 -152 13 0 65 -77 60 -90 -2 -7 -47 29 -101 79
-54 50 -126 112 -160 138 -34 26 -109 87 -166 136 -187 160 -288 224 -227 144z
m706 -537 c0 -5 -2 -10 -4 -10 -3 0 -8 5 -11 10 -3 6 -1 10 4 10 6 0 11 -4 11
-10z m175 -160 c12 -19 -12 -10 -31 11 -19 22 -19 22 3 10 12 -6 25 -16 28
-21z"/>
<path d="M2530 3982 c0 -5 7 -15 15 -22 8 -7 15 -8 15 -2 0 5 -7 15 -15 22 -8
7 -15 8 -15 2z"/>
<path d="M2640 3898 c0 -19 25 -41 40 -36 6 2 0 14 -14 27 -20 19 -26 21 -26
9z"/>
<path d="M3010 3530 c0 -5 5 -10 10 -10 6 0 10 5 10 10 0 6 -4 10 -10 10 -5 0
-10 -4 -10 -10z"/>
<path d="M3152 3391 c93 -115 264 -293 294 -306 19 -8 34 -19 34 -24 0 -6 28
-41 63 -78 35 -38 84 -95 109 -128 99 -131 219 -239 218 -197 -1 35 -696 762
-730 762 -6 0 -1 -13 12 -29z"/>
<path d="M3769 3392 c53 -75 306 -288 375 -317 20 -9 36 -19 36 -24 0 -9 138
-121 228 -186 49 -35 55 -37 69 -22 23 23 15 30 -150 142 -78 52 -156 106
-173 118 -122 90 -195 147 -248 196 -94 87 -136 121 -147 121 -6 0 -1 -13 10
-28z"/>
<path d="M4967 2820 c-20 -22 -44 -40 -52 -40 -32 0 -31 -100 2 -163 9 -18 39
-61 68 -97 29 -36 60 -81 70 -100 19 -38 366 -381 449 -444 28 -21 76 -51 107
-65 30 -15 73 -46 94 -70 24 -26 70 -58 118 -83 44 -22 116 -63 161 -90 45
-28 106 -62 136 -76 30 -13 73 -39 95 -57 48 -39 226 -147 308 -187 33 -16 82
-46 110 -67 64 -47 278 -164 332 -181 22 -7 68 -31 102 -52 l63 -40 -25 -42
c-43 -74 -22 -106 29 -46 40 48 44 93 12 134 -19 25 -26 47 -26 78 0 60 -39
111 -155 201 -119 92 -304 247 -420 352 -49 45 -144 124 -210 175 -195 152
-413 344 -715 630 -166 157 -334 294 -389 317 -19 8 -68 21 -110 29 -42 7 -85
16 -96 19 -15 3 -32 -7 -58 -35z m348 -380 c3 -5 2 -10 -4 -10 -5 0 -13 5 -16
10 -3 6 -2 10 4 10 5 0 13 -4 16 -10z m489 -199 c32 -25 134 -116 225 -201
185 -173 264 -241 350 -299 32 -22 90 -68 129 -103 39 -35 84 -73 99 -85 19
-15 23 -22 12 -23 -8 0 -65 40 -125 88 -60 48 -125 99 -144 112 -19 13 -50 37
-69 53 -18 16 -45 34 -60 40 -14 7 -57 38 -95 69 -38 32 -110 85 -160 120
-114 77 -243 177 -276 213 l-25 28 28 -7 c25 -6 27 -4 27 24 0 36 0 36 84 -29z
m-160 -133 c17 -12 70 -57 118 -100 47 -43 90 -78 96 -78 5 0 17 -9 28 -21 10
-12 60 -46 109 -76 194 -117 259 -161 358 -244 121 -102 151 -122 172 -117 15
3 14 7 -5 31 -12 15 -20 31 -16 34 9 10 76 -64 76 -84 0 -28 34 -54 130 -98
121 -56 241 -123 270 -151 24 -24 24 -24 2 -24 -46 0 -205 81 -327 165 -33 23
-91 59 -130 80 -38 21 -88 50 -110 65 -22 15 -112 67 -200 115 -88 49 -187
107 -220 130 -33 22 -99 60 -146 84 -97 47 -285 191 -311 238 -21 37 -25 64
-6 45 19 -19 28 -14 28 14 0 23 3 25 27 19 15 -3 41 -16 57 -27z m261 -129
c39 -28 86 -59 106 -69 19 -10 41 -26 48 -34 27 -32 -12 -16 -104 44 -51 32
-104 64 -118 71 -28 13 -37 39 -14 39 7 0 44 -23 82 -51z m1150 -819 c3 -5 2
-10 -4 -10 -5 0 -13 5 -16 10 -3 6 -2 10 4 10 5 0 13 -4 16 -10z"/>
<path d="M4760 2640 c-12 -7 -12 -14 -4 -27 14 -22 54 -30 54 -10 0 23 -33 47
-50 37z"/>
<path d="M4510 2495 c0 -20 4 -26 18 -23 9 2 17 12 17 23 0 11 -8 21 -17 23
-14 3 -18 -3 -18 -23z"/>
<path d="M4780 2365 c0 -39 14 -46 30 -14 9 15 8 24 -1 35 -19 23 -29 16 -29
-21z"/>
<path d="M9527 4243 c-16 -15 -5 -34 33 -53 77 -39 127 -14 53 27 -48 26 -77
35 -86 26z"/>
<path d="M9330 4220 c0 -25 168 -107 198 -95 23 9 -3 32 -80 71 -66 33 -118
44 -118 24z"/>
<path d="M8782 3983 c-97 -17 -188 -46 -184 -59 4 -13 48 -10 117 9 32 10 95
17 140 17 80 0 133 18 120 41 -9 13 -96 10 -193 -8z"/>
<path d="M8067 3823 c-17 -16 -5 -33 22 -33 29 0 57 21 44 33 -8 9 -58 9 -66
0z"/>
<path d="M8037 3668 c-133 -141 -236 -303 -210 -329 17 -17 27 -7 103 101 39
55 109 143 155 196 47 53 85 103 85 110 0 8 -10 14 -22 14 -16 0 -51 -29 -111
-92z"/>
<path d="M8210 3676 c-131 -116 -248 -246 -221 -246 11 0 53 27 93 59 84 68
258 243 258 260 0 28 -43 4 -130 -73z"/>
<path d="M9345 3646 c-98 -47 -199 -121 -294 -215 -77 -77 -94 -101 -71 -101
6 0 57 39 113 86 117 99 222 172 289 202 51 22 83 62 51 62 -10 0 -50 -15 -88
-34z"/>
<path d="M8893 3637 c-65 -33 -153 -101 -153 -117 0 -17 22 -11 54 13 17 13
38 27 46 31 38 18 134 84 138 94 6 20 -20 13 -85 -21z"/>
<path d="M9468 3613 c-82 -43 -198 -143 -295 -254 -81 -93 -109 -139 -100
-163 9 -23 45 -4 60 33 39 91 249 287 378 351 24 12 52 29 62 38 51 45 -18 42
-105 -5z"/>
<path d="M9105 3606 c-27 -12 -56 -30 -64 -39 -12 -15 -11 -17 10 -17 25 0
103 32 126 52 11 9 12 13 1 19 -17 11 -15 12 -73 -15z"/>
<path d="M10967 3603 c-18 -17 -5 -33 27 -33 44 0 66 9 66 26 0 10 -13 14 -43
14 -24 0 -47 -3 -50 -7z"/>
<path d="M10696 3592 c-9 -16 17 -31 65 -38 35 -5 48 -2 58 10 8 9 11 19 7 23
-11 11 -123 16 -130 5z"/>
<path d="M10370 3574 c0 -18 166 -180 206 -202 43 -23 29 18 -31 91 -84 101
-175 159 -175 111z"/>
<path d="M10545 3541 c-7 -12 33 -41 56 -41 9 0 37 -16 62 -35 47 -36 77 -45
77 -22 -1 39 -96 107 -151 107 -21 0 -40 -4 -44 -9z"/>
<path d="M8965 3528 c-54 -29 -85 -55 -85 -70 0 -26 23 -22 51 8 13 14 34 30
47 35 12 5 22 15 22 24 0 18 -8 18 -35 3z"/>
<path d="M10132 3518 c-30 -30 -4 -136 39 -158 39 -21 68 12 34 40 -8 6 -21
36 -30 65 -17 59 -26 70 -43 53z"/>
<path d="M9862 3503 c-7 -2 -43 -42 -81 -88 -79 -97 -119 -170 -104 -193 19
-31 33 -22 63 40 17 35 59 101 94 148 68 89 75 112 28 93z"/>
<path d="M11740 3289 c-10 -18 -9 -20 12 -17 12 2 24 11 26 21 5 24 -25 22
-38 -4z"/>
<path d="M8126 3119 c-16 -13 -53 -74 -89 -148 -57 -118 -61 -130 -62 -198 0
-80 11 -101 43 -84 15 8 20 24 24 73 4 48 20 96 67 201 76 171 80 205 17 156z"/>
<path d="M12006 2881 c-13 -20 3 -80 24 -91 27 -15 30 -13 30 19 0 35 -42 91
-54 72z"/>
<path d="M12420 2624 c-22 -74 -25 -104 -9 -104 14 0 50 84 56 132 5 30 2 38
-10 38 -11 0 -23 -21 -37 -66z"/>
<path d="M12567 2573 c-2 -5 -10 -26 -17 -48 -16 -53 -86 -183 -166 -309 -35
-56 -64 -110 -64 -119 0 -39 30 -12 67 58 29 56 48 80 73 93 21 11 37 28 43
47 25 83 71 193 90 212 17 19 19 27 9 48 -11 25 -27 32 -35 18z"/>
<path d="M11857 2563 c-12 -11 -7 -83 13 -218 11 -71 20 -155 20 -185 0 -30 5
-62 10 -70 34 -51 35 110 4 330 -22 151 -26 164 -47 143z"/>
<path d="M9017 2422 c-14 -26 -34 -87 -43 -135 -16 -83 -16 -88 1 -107 24 -27
54 -25 64 3 4 12 11 74 14 137 3 64 9 124 13 133 4 11 1 17 -8 17 -8 0 -27
-22 -41 -48z"/>
<path d="M11777 2347 c-8 -20 -12 -385 -5 -393 4 -3 12 5 19 18 17 30 19 362
3 378 -8 8 -13 8 -17 -3z"/>
<path d="M12332 2269 c-15 -28 -70 -104 -126 -174 -11 -14 -17 -27 -14 -31 12
-11 46 16 84 67 69 92 83 114 89 142 10 38 -11 35 -33 -4z"/>
<path d="M11616 2134 c-20 -19 -20 -34 -1 -34 18 0 39 36 26 44 -5 4 -17 -1
-25 -10z"/>
<path d="M11880 2025 c-7 -8 -9 -22 -6 -31 5 -13 9 -14 21 -4 17 14 20 36 6
44 -5 3 -14 -1 -21 -9z"/>
<path d="M11457 1952 c-21 -23 -22 -42 -3 -42 14 0 46 36 46 52 0 15 -27 8
-43 -10z"/>
<path d="M8164 1887 c-10 -28 4 -213 27 -346 23 -138 67 -314 107 -431 67
-195 103 -235 151 -173 12 14 23 24 25 22 3 -2 14 -29 26 -59 31 -79 47 -100
75 -100 28 0 32 16 11 46 -31 43 -97 215 -121 314 -25 101 -55 351 -55 455 0
58 -17 125 -30 125 -13 0 -12 -224 0 -352 5 -53 21 -160 35 -238 15 -77 25
-151 23 -163 -6 -42 -32 -23 -59 43 -84 211 -136 423 -169 683 -20 163 -32
209 -46 174z"/>
<path d="M12377 1829 c-9 -14 -38 -72 -63 -129 -73 -162 -268 -484 -338 -557
-22 -24 -37 -46 -33 -49 9 -9 52 21 74 51 10 15 36 50 59 78 23 29 49 68 59
87 10 19 35 57 56 85 74 99 215 401 207 443 -3 14 -7 13 -21 -9z"/>
<path d="M8549 1819 c-7 -14 -14 -86 -17 -184 -5 -172 8 -294 53 -520 44 -220
77 -295 146 -329 14 -7 43 -46 69 -96 47 -89 67 -104 105 -77 19 14 19 15 -8
50 -46 61 -133 274 -147 362 -4 28 -15 95 -23 150 -9 55 -21 208 -27 339 -6
132 -15 246 -19 254 -16 28 -25 -10 -29 -123 -7 -182 30 -553 74 -757 11 -51
-14 -29 -39 35 -24 61 -41 126 -71 262 -25 114 -48 372 -42 465 11 171 11 183
-1 187 -6 2 -17 -6 -24 -18z"/>
<path d="M8067 1724 c-11 -12 -8 -76 8 -163 18 -95 101 -357 115 -366 24 -15
8 85 -45 285 -18 69 -36 146 -40 171 -6 48 -25 85 -38 73z"/>
<path d="M12189 1698 c-39 -62 -50 -118 -25 -118 23 0 59 59 60 98 1 42 -16
52 -35 20z"/>
<path d="M11865 1623 c-15 -32 -41 -89 -57 -128 -80 -188 -199 -413 -301 -568
-60 -92 -107 -170 -103 -174 10 -10 66 48 88 92 11 22 33 54 48 70 50 55 170
270 170 306 0 6 11 25 25 43 30 39 115 217 115 240 0 9 9 35 21 58 37 72 50
118 35 118 -8 0 -26 -26 -41 -57z"/>
<path d="M10915 1610 c-3 -5 -13 -71 -21 -145 -16 -157 -38 -268 -63 -328 -10
-23 -28 -76 -40 -117 -13 -41 -65 -169 -117 -284 -62 -135 -92 -212 -85 -219
5 -5 14 -6 20 -2 14 8 64 107 81 160 7 22 32 78 55 125 24 47 49 111 56 143 7
31 18 62 25 68 40 33 128 426 122 544 -3 55 -18 80 -33 55z"/>
<path d="M11715 1581 c-28 -41 -125 -250 -205 -438 -26 -62 -76 -161 -111
-220 -54 -92 -83 -127 -193 -234 -139 -137 -170 -195 -46 -88 40 35 92 82 114
105 122 121 245 320 325 524 27 69 68 166 91 215 55 119 71 163 60 170 -5 3
-21 -12 -35 -34z"/>
<path d="M9295 1580 c-8 -14 11 -246 31 -380 14 -91 94 -393 115 -432 12 -22
39 -24 39 -3 0 9 -25 113 -56 233 -60 235 -82 348 -91 484 -5 84 -21 125 -38
98z"/>
<path d="M11516 1542 c-8 -16 -38 -87 -66 -158 -67 -169 -181 -401 -265 -539
-74 -122 -101 -155 -125 -155 -35 0 -68 -68 -40 -85 16 -10 66 22 98 62 131
166 412 743 412 847 0 17 5 37 12 44 9 9 9 12 0 12 -6 0 -18 -13 -26 -28z"/>
<path d="M9520 1473 c0 -141 29 -627 39 -662 14 -44 40 -83 51 -76 13 8 13 71
0 115 -10 35 -20 152 -40 470 -11 174 -19 221 -38 228 -9 3 -12 -18 -12 -75z"/>
<path d="M9678 1538 c-2 -7 -2 -212 1 -455 5 -331 9 -445 18 -454 7 -7 16 -9
20 -5 12 11 8 855 -4 890 -10 32 -28 44 -35 24z"/>
<path d="M11135 1540 c-3 -6 -17 -75 -31 -154 -13 -79 -35 -184 -49 -233 -31
-111 -140 -332 -203 -415 -69 -89 -77 -107 -56 -115 26 -10 90 67 131 157 19
41 43 91 53 110 10 19 35 65 54 102 42 79 100 285 116 412 6 50 14 94 16 98 7
11 -5 48 -16 48 -5 0 -12 -5 -15 -10z"/>
<path d="M11338 1520 c-3 -8 -8 -24 -11 -35 -30 -122 -196 -471 -363 -764 -35
-61 -35 -63 -13 -56 33 10 48 31 125 175 37 69 95 175 130 236 81 144 146 331
142 406 -2 29 -6 46 -10 38z"/>
<path d="M9090 1443 c0 -27 4 -64 10 -83 5 -19 19 -89 30 -155 43 -251 123
-466 174 -465 6 0 18 5 26 10 12 8 11 13 -7 37 -60 82 -81 144 -153 448 -28
116 -53 220 -56 233 -11 38 -24 24 -24 -25z"/>
<path d="M9856 1439 c-5 -12 -26 -513 -26 -600 0 -34 15 -39 24 -6 3 12 13
101 22 197 17 196 16 392 -3 411 -10 10 -13 9 -17 -2z"/>
<path d="M10024 1419 c-5 -8 -12 -126 -15 -264 -5 -197 -11 -269 -27 -340 -65
-289 -75 -356 -53 -369 18 -12 33 26 46 121 8 54 29 177 47 273 30 160 33 192
33 365 0 186 -9 248 -31 214z"/>
<path d="M10206 1216 c-3 -13 -10 -69 -16 -123 -13 -131 -29 -238 -42 -293
-18 -72 -21 -110 -10 -110 14 0 27 44 51 165 11 55 27 132 35 170 8 39 16 101
18 140 2 58 0 70 -13 73 -11 2 -19 -6 -23 -22z"/>
<path d="M9820 788 c0 -2 -7 -41 -15 -88 -25 -142 -17 -219 16 -157 17 30 26
247 10 247 -6 0 -11 -1 -11 -2z"/>
<path d="M10087 625 c-18 -38 -23 -85 -9 -85 19 0 42 39 45 75 3 50 -15 55
-36 10z"/>
<path d="M3091 2248 c-13 -7 -22 -17 -20 -23 5 -11 100 -11 142 0 23 6 35 2
70 -26 40 -33 46 -34 140 -37 82 -3 101 -1 117 13 17 15 32 17 112 10 51 -4
102 -8 113 -8 35 -3 28 18 -10 30 -109 38 -614 69 -664 41z"/>
<path d="M2972 2170 c-43 -10 -48 -16 -31 -36 10 -12 23 -14 58 -9 60 9 114
32 106 45 -7 11 -84 12 -133 0z"/>
<path d="M2390 2126 c-81 -30 -216 -80 -254 -95 -63 -25 -184 -90 -241 -130
-133 -93 -355 -267 -355 -279 0 -7 11 -17 25 -24 35 -16 106 13 142 58 102
128 170 190 258 238 149 80 318 163 350 170 17 4 53 18 80 31 28 13 71 26 98
30 26 3 47 10 47 16 0 17 -84 9 -150 -15z"/>
<path d="M2215 1977 c-156 -63 -292 -144 -371 -221 -41 -39 -74 -77 -74 -84 0
-21 68 14 119 61 70 65 131 103 259 163 171 80 185 88 190 102 7 21 -39 13
-123 -21z"/>
<path d="M2673 1923 c-18 -7 -16 -43 1 -43 17 0 66 39 49 40 -6 0 -17 2 -25 4
-7 3 -19 2 -25 -1z"/>
<path d="M2312 1867 c-10 -11 -9 -17 4 -28 13 -11 20 -11 42 1 14 8 26 20 26
25 1 16 -59 18 -72 2z"/>
<path d="M2406 1857 c-26 -19 -17 -51 15 -55 36 -4 91 43 69 58 -21 14 -63 12
-84 -3z"/>
<path d="M3795 1696 c-114 -16 -195 -35 -195 -47 0 -13 92 -11 202 6 54 8 184
17 290 20 214 7 261 11 253 26 -9 13 -442 9 -550 -5z"/>
<path d="M2163 1635 c-168 -62 -548 -273 -548 -305 0 -28 31 -20 100 26 39 25
104 63 145 84 41 20 124 63 183 94 59 32 143 68 185 80 51 16 78 29 80 40 5
25 -41 19 -145 -19z"/>
<path d="M2365 1581 c-141 -48 -322 -136 -479 -231 -58 -35 -86 -63 -75 -74 8
-8 173 75 238 118 29 20 57 36 63 36 5 0 44 16 86 36 42 20 114 49 160 64 91
31 136 56 127 70 -9 15 -33 11 -120 -19z"/>
<path d="M3548 1563 c-24 -6 -23 -20 1 -28 24 -7 113 14 105 26 -5 9 -75 10
-106 2z"/>
<path d="M2403 1436 c-142 -35 -440 -163 -451 -193 -8 -27 54 -11 187 46 167
73 234 97 288 106 44 7 69 27 58 45 -8 12 -15 12 -82 -4z"/>
<path d="M3350 1345 c-63 -22 -307 -64 -422 -73 -32 -2 -58 -7 -58 -10 0 -4
18 -14 39 -23 35 -15 45 -15 132 2 52 10 111 19 132 19 36 0 176 39 227 64 23
11 42 47 23 45 -4 0 -37 -11 -73 -24z"/>
<path d="M4096 1335 c-161 -48 -347 -118 -343 -129 7 -21 72 -8 237 48 169 58
215 80 205 96 -8 13 -6 13 -99 -15z"/>
<path d="M2653 1313 c-31 -46 -43 -82 -43 -128 0 -36 3 -45 18 -45 12 0 24 21
45 83 15 45 27 90 27 100 0 26 -26 20 -47 -10z"/>
<path d="M2561 1284 c-39 -33 -71 -93 -71 -134 0 -51 27 -33 71 49 13 24 30
55 38 68 21 39 -1 49 -38 17z"/>
<path d="M2317 1283 c-14 -13 -6 -33 13 -33 24 0 70 21 70 32 0 10 -74 11 -83
1z"/>
<path d="M2711 1271 c-6 -11 -11 -38 -11 -60 0 -38 2 -40 34 -46 19 -4 43 -2
54 4 11 6 41 8 71 4 62 -7 65 3 14 47 -30 26 -42 31 -69 27 -28 -5 -33 -2 -36
16 -4 30 -43 35 -57 8z"/>
<path d="M2530 1008 c-47 -17 -159 -52 -250 -78 -91 -26 -178 -54 -195 -61
l-30 -13 33 -4 c19 -2 64 6 101 17 37 11 101 28 142 36 65 14 220 60 287 86
23 9 28 40 7 45 -5 1 -48 -11 -95 -28z"/>
<path d="M3898 913 c-27 -31 -108 -153 -108 -163 0 -6 13 -10 28 -10 48 0 132
104 132 165 0 30 -29 34 -52 8z"/>
<path d="M2660 913 c-214 -38 -606 -136 -637 -159 -16 -12 -14 -13 20 -14 38
0 98 12 242 50 39 10 124 31 190 46 134 31 225 61 225 75 0 5 -3 8 -7 8 -5 -1
-19 -4 -33 -6z"/>
<path d="M1944 856 c-18 -14 -18 -15 6 -20 30 -8 82 6 88 22 5 17 -69 15 -94
-2z"/>
<path d="M2764 830 c-12 -5 -25 -14 -30 -21 -11 -18 65 -4 85 16 14 13 13 15
-9 14 -14 0 -35 -4 -46 -9z"/>
<path d="M2558 778 c-111 -28 -149 -48 -94 -48 31 0 175 28 204 40 12 5 22 16
22 25 0 18 10 20 -132 -17z"/>
<path d="M2310 707 c-24 -11 -23 -11 19 -15 48 -4 71 2 71 18 0 13 -58 12 -90
-3z"/>
<path d="M2178 688 c-38 -13 -35 -28 6 -28 44 0 66 9 66 26 0 16 -32 17 -72 2z"/>
<path d="M2282 563 c-20 -3 -32 -9 -29 -16 6 -19 213 -14 257 6 34 15 33 15
-80 15 -63 -1 -130 -3 -148 -5z"/>
<path d="M3195 499 c-55 -16 -122 -29 -150 -29 -59 0 -81 -11 -71 -35 5 -15
15 -17 69 -11 143 15 267 57 267 91 0 19 5 19 -115 -16z"/>
<path d="M3288 266 c-113 -28 -210 -54 -214 -59 -17 -17 10 -16 127 3 188 30
329 73 329 100 0 15 -21 12 -242 -44z"/>
</g>
</svg>
