<?xml version="1.0" standalone="no"?>
<!DOCTYPE svg PUBLIC "-//W3C//DTD SVG 20010904//EN"
 "http://www.w3.org/TR/2001/REC-SVG-20010904/DTD/svg10.dtd">
<svg version="1.0" xmlns="http://www.w3.org/2000/svg"
 width="121.000000pt" height="128.000000pt" viewBox="0 0 1218.000000 1280.000000"
 preserveAspectRatio="xMidYMid meet">
<metadata>
Created by potrace 1.15, written by Peter Selinger 2001-2017
</metadata>
<g transform="translate(0.000000,1280.000000) scale(0.100000,-0.100000)"
fill="#03a9f4" stroke="none">
<path d="M2467 12790 c-21 -6 -52 -18 -70 -27 -18 -9 -37 -16 -44 -15 -14 3
-58 -53 -68 -87 -4 -13 -38 -57 -76 -98 -38 -41 -72 -85 -75 -98 -3 -14 1 -62
9 -107 8 -46 14 -86 11 -89 -2 -3 8 -11 21 -17 16 -7 25 -20 25 -34 0 -39 13
-46 85 -48 122 -5 124 -4 141 37 20 47 13 82 -39 190 -62 129 -53 193 28 206
37 6 72 -3 149 -40 28 -13 55 -23 62 -23 6 0 17 -7 24 -15 8 -10 30 -15 61
-15 40 0 50 -4 60 -22 6 -13 13 -24 14 -26 1 -1 35 -9 74 -18 58 -11 89 -26
152 -69 44 -30 89 -55 100 -55 12 0 23 -10 29 -25 5 -13 29 -36 52 -51 24 -15
84 -58 133 -95 50 -37 109 -76 132 -88 23 -11 53 -31 66 -43 182 -171 207
-209 207 -315 0 -85 -6 -88 -189 -85 -84 1 -149 -2 -156 -8 -6 -5 -72 -11
-146 -14 -231 -7 -402 -29 -579 -76 -63 -16 -137 -30 -165 -30 -27 -1 -61 -7
-75 -15 -14 -8 -37 -14 -51 -15 -14 0 -50 -8 -80 -19 -31 -10 -79 -22 -108
-26 -29 -4 -81 -20 -114 -35 -34 -15 -113 -42 -175 -60 -154 -44 -183 -41
-348 38 -71 33 -149 65 -173 71 -24 5 -47 15 -51 22 -6 9 -29 10 -92 4 -45 -5
-100 -8 -120 -8 -24 1 -38 -4 -38 -11 0 -15 -68 -46 -100 -46 -36 0 -102 -36
-143 -78 -20 -21 -67 -80 -105 -132 -62 -86 -71 -94 -113 -105 -26 -6 -61 -23
-79 -38 -17 -15 -37 -27 -43 -28 -20 -1 -175 -327 -188 -394 -6 -33 -19 -76
-29 -95 -21 -42 -60 -192 -60 -232 0 -16 -7 -43 -16 -60 -27 -51 -34 -86 -49
-221 -12 -109 -18 -135 -44 -181 -22 -38 -34 -76 -41 -131 -5 -42 -15 -94 -21
-115 -9 -29 -8 -61 5 -148 9 -61 16 -174 16 -252 0 -193 36 -356 117 -533 l37
-82 -1 -145 c-1 -164 -15 -241 -73 -425 -43 -137 -70 -256 -70 -313 0 -22 -8
-57 -17 -78 -11 -24 -17 -67 -18 -114 -1 -43 -9 -97 -19 -128 -17 -49 -17 -63
-5 -147 10 -76 10 -97 0 -109 -10 -12 -10 -23 -1 -52 7 -20 10 -52 6 -73 -4
-28 3 -55 30 -121 20 -47 49 -134 65 -194 35 -133 88 -245 164 -348 31 -43 63
-98 71 -122 10 -28 28 -55 49 -70 18 -14 44 -45 57 -68 14 -27 32 -44 48 -48
17 -4 37 -25 61 -65 24 -41 49 -67 78 -83 48 -27 91 -85 91 -122 0 -14 -9 -54
-20 -90 -15 -48 -21 -94 -21 -175 -1 -132 9 -190 68 -405 25 -91 48 -175 51
-187 2 -13 12 -23 21 -23 9 0 23 -17 34 -43 9 -23 34 -63 55 -89 20 -25 64
-83 97 -129 73 -100 204 -235 304 -314 82 -65 321 -219 397 -258 27 -13 67
-30 89 -37 22 -7 47 -18 55 -25 23 -20 329 -138 465 -180 66 -20 140 -43 165
-51 24 -9 72 -19 105 -24 33 -5 79 -13 103 -19 24 -6 105 -18 180 -26 75 -9
157 -22 182 -30 29 -10 79 -15 135 -14 50 1 117 -3 150 -9 35 -6 129 -8 230
-5 105 4 199 1 245 -6 70 -10 78 -14 113 -54 21 -23 53 -64 72 -90 l33 -49
-21 -46 c-18 -40 -21 -66 -21 -182 0 -115 4 -144 23 -195 12 -33 28 -84 35
-112 14 -55 34 -85 118 -180 28 -32 59 -72 70 -90 12 -19 30 -34 48 -38 29 -6
60 -31 95 -76 17 -22 146 -89 170 -89 4 0 22 -13 40 -29 18 -15 71 -42 119
-59 152 -56 236 -108 276 -174 9 -16 44 -46 78 -68 47 -30 62 -45 62 -63 0
-16 14 -35 41 -57 22 -18 85 -92 139 -164 53 -72 114 -147 135 -166 20 -19 65
-78 100 -130 34 -52 89 -124 121 -160 33 -36 75 -92 94 -124 19 -32 69 -95
110 -140 41 -45 86 -97 99 -116 29 -41 95 -120 167 -199 28 -31 61 -76 73
-101 13 -25 65 -101 116 -170 116 -157 137 -197 129 -248 -6 -37 -4 -40 75
-114 59 -55 97 -82 136 -97 58 -22 155 -28 155 -11 0 6 11 15 25 20 14 5 25
16 25 23 0 8 10 36 21 62 17 39 21 62 17 120 -6 88 -37 151 -139 280 -39 50
-83 115 -99 145 -16 30 -47 73 -70 95 -23 22 -98 112 -165 200 -68 88 -149
188 -179 222 -31 33 -56 70 -56 80 0 11 -12 26 -26 34 -37 19 -98 91 -123 144
-11 24 -34 52 -51 61 -17 10 -48 43 -69 74 -22 30 -63 79 -91 109 -53 55 -472
679 -485 722 -4 13 -29 76 -55 139 -58 139 -80 211 -80 261 0 21 -12 60 -29
92 -16 30 -36 77 -45 105 -10 28 -28 67 -42 87 -13 20 -24 43 -24 51 0 34 -57
122 -124 193 -99 105 -120 141 -113 195 9 62 43 147 69 174 13 12 41 36 63 52
22 16 69 51 104 79 63 48 145 81 203 81 16 0 32 9 42 25 12 19 25 25 52 25 26
0 53 12 97 43 136 96 246 113 318 50 15 -12 15 -21 -1 -111 -52 -285 -54 -590
-4 -847 26 -132 53 -214 88 -260 18 -23 39 -64 45 -91 8 -31 26 -63 51 -90 21
-23 53 -66 69 -96 17 -29 46 -64 66 -77 19 -13 35 -29 35 -35 0 -6 24 -34 53
-62 28 -29 60 -60 70 -71 10 -10 49 -48 85 -85 37 -37 95 -83 129 -103 34 -19
76 -52 95 -73 43 -49 130 -102 473 -283 l280 -148 230 -61 c465 -125 812 -189
1022 -191 65 -1 83 -4 88 -17 5 -14 7 -14 16 -2 8 13 10 13 18 1 8 -12 40 -13
198 -6 229 10 271 10 349 0 46 -6 81 -3 140 11 44 10 122 19 174 20 52 1 124
7 160 14 36 6 140 24 232 40 117 20 188 38 237 59 41 18 86 31 111 31 54 0
169 39 299 101 57 27 116 49 131 49 16 0 57 13 92 30 34 16 69 30 76 30 8 0
26 8 40 19 15 10 72 41 127 69 55 27 111 61 124 75 13 14 36 29 52 32 16 4 29
11 29 16 0 5 6 9 13 9 6 0 32 16 56 35 25 20 55 38 67 41 13 3 30 16 38 29 8
13 30 28 48 35 20 7 52 35 82 72 26 33 68 72 92 88 25 15 59 48 76 71 17 24
78 103 135 176 144 184 174 250 233 518 17 77 40 168 52 203 18 55 20 77 15
175 -10 181 -45 321 -154 602 -30 80 -55 128 -74 145 -15 14 -42 54 -59 90
-40 80 -83 144 -127 190 -18 19 -48 55 -66 79 -18 25 -57 59 -89 78 -32 19
-66 48 -78 68 -12 20 -38 44 -59 54 -20 11 -113 70 -206 133 -286 192 -592
352 -710 373 -77 14 -201 60 -282 105 -42 24 -63 29 -116 29 -65 -1 -105 13
-155 52 -18 14 -29 15 -56 8 -25 -7 -49 -4 -97 10 -46 15 -67 17 -76 9 -9 -7
-38 -5 -106 8 -87 17 -175 22 -242 14 -16 -2 -89 3 -162 10 -112 10 -190 10
-500 -4 -236 -11 -385 -22 -415 -31 -26 -8 -80 -17 -120 -21 -40 -3 -79 -12
-87 -18 -8 -6 -66 -16 -130 -22 -63 -7 -117 -17 -119 -23 -2 -5 -15 -8 -30 -5
-18 4 -60 -8 -122 -32 -86 -33 -108 -37 -225 -44 -123 -6 -134 -9 -201 -43
-43 -21 -128 -50 -210 -71 -77 -19 -166 -44 -198 -56 -76 -26 -105 -25 -146 2
-85 58 -99 140 -43 263 31 69 40 109 84 354 l22 123 60 70 c33 38 74 78 91 89
37 23 112 25 160 5 29 -12 34 -12 44 4 6 10 28 20 51 23 34 4 55 18 122 81
103 97 143 146 171 207 15 33 32 52 52 60 58 25 119 103 219 280 164 292 204
418 214 679 6 177 -7 327 -36 413 -25 71 -35 147 -23 165 13 20 89 -13 199
-85 51 -34 106 -64 123 -68 22 -5 36 -17 50 -43 10 -21 43 -65 73 -99 30 -34
69 -86 86 -116 17 -30 55 -81 84 -114 28 -32 96 -116 150 -185 54 -70 130
-160 168 -200 39 -40 104 -117 146 -171 76 -98 155 -177 202 -202 14 -7 47
-37 72 -67 31 -35 84 -76 160 -123 63 -38 130 -85 150 -103 20 -18 129 -77
241 -132 174 -85 214 -100 271 -106 37 -4 72 -13 78 -20 6 -8 22 -14 35 -14
13 0 49 -7 81 -15 32 -9 101 -20 153 -26 52 -6 169 -21 260 -35 179 -26 286
-30 355 -13 31 8 49 8 63 0 15 -8 27 -7 49 4 15 8 37 15 48 15 12 0 38 9 60
20 22 11 50 20 62 20 13 0 40 7 60 15 19 8 43 15 52 15 9 0 22 9 28 20 7 10
28 22 47 25 26 5 64 36 164 135 105 103 136 140 161 193 17 36 31 71 31 79 0
8 11 25 25 38 14 13 34 48 45 79 12 31 30 68 41 84 44 60 85 355 76 547 -6
138 -19 193 -92 390 -55 151 -56 153 -98 211 -19 26 -53 90 -76 143 -55 126
-60 185 -31 371 26 167 22 216 -25 314 l-34 71 -74 0 c-73 0 -74 0 -158 -58
-46 -33 -105 -66 -131 -75 -25 -8 -69 -33 -97 -55 -68 -54 -147 -90 -234 -108
-40 -8 -94 -25 -122 -38 -27 -13 -72 -29 -100 -35 -27 -7 -106 -38 -175 -71
-69 -32 -137 -61 -151 -65 -14 -3 -33 -20 -43 -37 -16 -27 -54 -54 -173 -126
-21 -13 -63 -57 -93 -98 -30 -42 -84 -101 -119 -132 -35 -31 -68 -68 -73 -84
-6 -18 -17 -28 -29 -28 -12 0 -32 -19 -53 -52 -19 -29 -51 -69 -71 -88 -20
-19 -55 -70 -77 -114 -21 -43 -66 -117 -98 -165 -32 -47 -62 -99 -66 -116 -5
-19 -34 -55 -77 -95 -107 -100 -150 -117 -208 -83 -33 19 -161 163 -323 360
-59 73 -124 147 -144 165 -21 19 -54 56 -74 84 -20 28 -65 78 -100 111 -74 72
-155 163 -189 213 -42 61 -282 296 -336 329 -29 18 -55 40 -58 51 -3 10 -31
40 -61 66 -33 27 -64 65 -74 88 -10 23 -59 93 -109 156 -50 63 -100 135 -112
160 -12 25 -43 90 -70 145 -56 116 -67 175 -68 367 0 69 -3 139 -7 155 -17 70
-186 557 -210 605 -15 29 -38 64 -52 78 -14 14 -56 71 -93 128 -59 89 -198
251 -321 373 -20 21 -68 59 -105 85 -143 100 -239 174 -265 202 -14 16 -41 32
-59 36 -19 3 -59 26 -89 51 -30 25 -64 45 -75 45 -11 0 -36 10 -55 23 -19 12
-62 33 -95 46 -33 13 -94 40 -135 59 -41 20 -87 35 -102 33 -14 -1 -43 6 -65
17 -21 11 -78 32 -128 47 -49 15 -109 38 -131 51 -23 13 -44 21 -46 19 -3 -3
-21 2 -41 10 -20 8 -60 15 -89 15 -29 0 -66 7 -83 16 -60 32 -142 55 -225 63
-47 5 -104 16 -127 25 -24 9 -98 21 -165 26 -164 14 -183 20 -272 89 -42 33
-98 67 -124 77 -26 9 -56 27 -67 40 -11 12 -39 27 -63 34 -24 6 -50 19 -59 30
-9 10 -21 16 -27 14 -23 -9 -83 25 -124 70 -23 25 -42 49 -42 53 0 5 -19 17
-42 28 -23 11 -74 53 -114 93 -39 39 -79 72 -89 72 -10 0 -32 15 -49 33 -17
18 -116 84 -221 146 -208 124 -288 176 -353 228 -23 19 -59 39 -79 45 -20 5
-64 27 -98 49 -39 24 -77 40 -103 42 -23 3 -47 9 -54 14 -7 5 -28 15 -45 23
-18 7 -33 16 -33 21 0 5 -10 9 -22 9 -13 0 -50 12 -83 26 -67 28 -151 38 -208
24z m276 -139 c54 -23 120 -45 148 -48 37 -4 55 -13 72 -32 12 -15 45 -35 72
-45 28 -10 103 -54 167 -96 64 -43 138 -86 165 -96 26 -10 66 -32 88 -49 22
-18 75 -56 118 -85 43 -29 87 -64 97 -77 11 -14 24 -22 30 -18 6 4 21 -4 33
-17 12 -13 51 -41 87 -63 35 -22 92 -66 125 -100 34 -33 73 -67 89 -75 15 -8
48 -40 74 -71 29 -36 68 -70 105 -91 51 -28 103 -87 80 -89 -26 -2 -161 3
-178 7 -11 3 -33 23 -48 45 -16 21 -36 39 -46 39 -10 0 -27 11 -37 25 -10 15
-41 43 -69 64 -27 22 -96 80 -153 129 -57 50 -128 107 -158 127 -31 21 -60 47
-65 58 -10 20 -91 68 -114 67 -6 0 -31 21 -55 46 -25 25 -92 75 -150 112 -58
36 -127 84 -155 107 -42 34 -123 73 -207 99 -10 3 -18 11 -18 18 0 14 -123 58
-163 58 -14 0 -27 5 -29 10 -4 13 -74 39 -105 40 -12 0 -35 11 -50 26 l-28 25
90 -4 c78 -4 103 -10 188 -46z m-469 -187 c6 -16 28 -58 48 -94 20 -36 38 -78
40 -95 2 -25 -1 -31 -21 -33 -13 -2 -43 -1 -66 3 -42 6 -42 6 -54 62 -16 79
-14 145 5 171 20 29 34 24 48 -14z m1655 -925 c26 -9 41 -9 66 0 25 9 49 8
116 -5 57 -11 110 -14 167 -11 55 4 94 2 120 -7 20 -7 59 -14 87 -15 27 -1 88
-11 135 -22 47 -12 121 -23 165 -25 140 -7 192 -11 202 -17 6 -4 77 -22 159
-41 82 -19 176 -44 208 -55 33 -12 71 -21 87 -21 15 0 59 -13 97 -30 39 -16
77 -30 85 -30 8 0 34 -11 59 -24 25 -13 83 -33 129 -45 46 -12 95 -30 109 -40
14 -10 45 -22 68 -26 24 -4 92 -31 152 -60 60 -30 128 -59 152 -66 24 -7 59
-25 78 -39 19 -15 87 -61 150 -103 63 -41 128 -89 144 -106 17 -17 37 -31 45
-31 24 0 329 -287 351 -331 11 -21 38 -53 60 -70 83 -67 227 -334 299 -556
129 -391 134 -767 14 -1088 -37 -99 -132 -290 -183 -365 -96 -143 -251 -321
-382 -437 -32 -28 -63 -63 -69 -77 -7 -14 -20 -28 -30 -31 -34 -11 -135 -82
-195 -138 -34 -31 -64 -54 -67 -51 -8 9 -47 -15 -104 -63 -33 -27 -76 -52
-115 -64 -35 -12 -137 -57 -227 -100 -89 -43 -195 -89 -235 -101 -68 -22 -80
-28 -111 -55 -7 -7 -28 -13 -46 -13 -18 0 -59 -15 -95 -35 -35 -20 -67 -35
-71 -34 -4 1 -15 0 -23 -4 -8 -3 -52 -13 -97 -22 -46 -8 -149 -38 -230 -66
-108 -36 -173 -52 -239 -58 -50 -5 -100 -14 -110 -20 -21 -12 -202 -38 -344
-50 -65 -5 -104 -13 -123 -26 -27 -17 -54 -18 -507 -12 -406 5 -483 8 -509 21
-19 10 -57 16 -104 16 -51 0 -78 4 -86 14 -7 8 -47 16 -113 20 -156 11 -442
66 -459 88 -3 5 -55 17 -116 28 -124 22 -153 31 -193 60 -17 12 -44 20 -67 20
-39 0 -100 25 -132 54 -9 9 -50 22 -90 31 -81 17 -106 28 -114 49 -3 8 -25 17
-49 21 -61 10 -151 47 -266 110 -55 31 -119 62 -141 70 -23 8 -61 30 -84 48
-23 19 -85 61 -137 95 -52 33 -111 77 -129 96 -19 20 -44 36 -56 36 -12 0 -42
22 -70 50 -28 28 -68 63 -89 78 -22 15 -88 77 -147 137 -87 88 -135 150 -244
313 -228 343 -256 417 -274 732 -10 181 2 377 29 500 11 52 32 148 45 212 26
125 36 151 95 238 20 30 47 74 59 97 16 33 28 43 54 48 25 5 39 17 62 53 103
167 290 377 449 506 101 81 262 196 276 196 5 0 17 11 27 23 10 13 35 29 54
36 20 6 64 32 99 56 35 25 71 45 79 45 24 0 112 44 146 72 17 14 53 30 80 37
28 7 145 48 260 91 197 74 318 110 367 110 11 0 26 7 32 15 7 9 51 20 118 30
59 9 126 24 150 34 24 10 76 21 116 25 41 3 82 10 91 16 10 5 53 12 97 15 43
4 183 17 309 31 127 13 250 25 275 28 86 8 365 -2 399 -15z m-2556 -180 c15
-7 27 -18 27 -26 0 -8 12 -13 35 -13 18 0 38 -6 42 -13 4 -7 20 -20 34 -29 15
-9 31 -30 37 -46 9 -26 7 -33 -16 -55 -28 -26 -106 -66 -131 -67 -7 0 -30 -15
-51 -34 -20 -18 -59 -42 -86 -52 -27 -10 -77 -40 -111 -66 -34 -25 -106 -73
-160 -105 -87 -51 -124 -83 -321 -280 l-223 -223 -17 37 c-25 57 -22 206 7
313 55 209 59 219 116 263 50 39 55 40 131 42 140 3 334 18 334 26 0 4 3 14 6
22 9 24 -66 47 -156 47 l-80 0 0 29 c0 21 16 47 58 94 31 36 63 66 69 66 12 1
83 31 127 53 69 36 266 46 329 17z m6256 -2708 c26 -22 65 -47 87 -56 23 -9
57 -35 77 -60 20 -24 121 -119 225 -211 254 -227 327 -298 375 -369 22 -33 82
-105 133 -160 50 -55 153 -167 229 -249 75 -81 141 -159 147 -172 6 -14 26
-34 45 -45 18 -12 62 -63 98 -114 81 -116 144 -186 212 -237 30 -22 58 -50 63
-64 5 -13 16 -24 24 -24 7 0 77 -31 155 -70 78 -38 150 -70 161 -70 16 0 100
-70 100 -84 0 -3 -22 -6 -49 -6 -79 0 -97 -52 -25 -73 16 -5 43 -13 61 -18 20
-6 62 -6 120 1 197 24 297 57 369 122 22 20 57 41 79 48 68 22 146 65 250 140
55 40 118 81 140 92 40 20 108 85 119 114 3 9 13 14 21 11 36 -14 225 235 349
460 121 219 157 305 168 394 5 46 16 96 24 111 8 15 14 47 14 70 0 60 25 151
55 203 50 84 171 178 258 199 l27 6 0 -68 c0 -37 -7 -123 -15 -191 -11 -89
-13 -138 -6 -175 14 -77 57 -183 91 -225 16 -21 34 -59 40 -85 6 -27 33 -83
61 -127 38 -59 53 -93 59 -136 5 -32 15 -80 24 -108 41 -135 44 -334 10 -536
-12 -71 -24 -107 -50 -149 -19 -30 -54 -102 -80 -159 -76 -175 -130 -243 -220
-281 -32 -14 -42 -25 -47 -49 -5 -24 -17 -36 -58 -56 -28 -15 -62 -37 -76 -51
-17 -17 -43 -27 -91 -34 -36 -6 -98 -24 -137 -41 -69 -29 -71 -29 -265 -29
-168 0 -204 3 -251 19 -37 13 -105 23 -214 30 -146 9 -175 15 -332 60 -200 59
-324 117 -543 256 -80 50 -173 108 -206 127 -72 42 -353 323 -422 421 -23 33
-54 68 -68 78 -27 17 -82 82 -131 154 -15 22 -48 63 -74 90 -25 28 -92 113
-149 190 -57 76 -127 165 -157 197 -29 32 -53 64 -53 72 0 34 -188 262 -232
280 -15 7 -42 32 -59 56 -46 64 -237 250 -257 250 -10 0 -30 19 -47 41 -33 45
-151 144 -213 179 -43 24 -52 46 -52 123 0 39 0 39 31 33 17 -3 52 -24 78 -45z
m4059 -8 c-2 -13 -16 -20 -44 -23 -59 -8 -125 -61 -164 -130 -19 -33 -42 -62
-52 -66 -10 -3 -18 -13 -18 -23 0 -10 -14 -37 -31 -61 -44 -61 -58 -108 -70
-244 -14 -169 -25 -219 -59 -261 -16 -20 -41 -73 -55 -118 -38 -116 -72 -176
-186 -323 -56 -71 -114 -148 -130 -171 -16 -23 -38 -44 -49 -48 -11 -3 -62
-41 -114 -83 -52 -42 -136 -102 -187 -132 -51 -30 -108 -72 -128 -92 -43 -45
-59 -47 -91 -13 -32 34 -75 31 -74 -5 0 -14 3 -34 7 -45 9 -28 -6 -47 -37 -47
-36 0 -42 8 -23 30 10 10 17 29 17 41 0 19 -5 22 -32 19 -32 -3 -33 -5 -36
-49 -3 -41 -6 -47 -27 -51 -29 -6 -35 -1 -35 24 0 24 -24 23 -59 -3 -17 -13
-39 -19 -57 -17 -27 3 -29 6 -32 51 -3 48 -4 48 -35 45 -26 -2 -33 -8 -35 -28
-6 -47 -8 -49 -54 -38 -74 16 -159 59 -169 85 -25 67 5 231 65 357 53 109 186
317 232 363 23 22 60 65 83 96 24 31 58 65 77 76 19 11 34 28 34 38 0 10 21
38 48 63 26 25 61 66 79 91 23 35 49 56 102 84 40 21 90 58 116 86 33 36 64
56 108 73 34 13 100 42 147 64 85 39 186 75 248 87 18 4 46 14 64 22 17 9 45
17 62 18 39 3 171 68 211 104 17 15 51 35 77 45 26 9 75 36 110 58 82 54 115
67 161 68 31 0 38 -3 35 -17z m-4153 -383 c22 -10 81 -50 131 -90 l91 -72 62
-151 c84 -211 89 -228 111 -437 26 -242 25 -296 -6 -419 -32 -128 -48 -167
-77 -186 -13 -8 -31 -38 -41 -67 -11 -29 -34 -82 -52 -117 -19 -35 -34 -69
-34 -76 0 -6 -29 -47 -65 -90 -36 -43 -65 -81 -65 -86 0 -4 -10 -11 -22 -15
-13 -4 -41 -21 -63 -39 -22 -18 -55 -40 -73 -49 -32 -17 -33 -17 -16 -45 16
-28 16 -30 -14 -73 -52 -75 -132 -135 -246 -185 -44 -18 -53 -19 -70 -7 -11 8
-38 14 -59 14 -27 0 -59 13 -110 43 -133 78 -122 60 -121 200 2 142 23 237 77
343 l35 69 79 28 c90 31 111 33 139 13 29 -22 8 -35 -74 -42 -63 -6 -72 -9
-72 -27 0 -34 29 -57 72 -57 22 0 83 14 135 32 104 35 118 49 175 163 50 99
63 154 62 260 l0 100 -53 85 c-62 99 -90 131 -151 173 -40 28 -54 31 -153 38
-94 6 -113 5 -137 -10 -27 -16 -28 -17 -10 -39 15 -18 23 -20 44 -13 32 13
148 -10 154 -30 3 -8 13 -31 23 -52 l17 -37 -41 -89 -42 -88 -99 -53 -98 -53
-55 13 c-64 14 -123 61 -155 124 -44 85 -32 262 23 352 28 45 221 232 289 280
109 76 211 83 350 24 74 -31 76 -33 132 -118 31 -48 66 -104 78 -124 12 -21
30 -38 39 -38 12 0 22 -14 31 -40 15 -46 29 -50 63 -16 l24 24 -43 62 c-23 34
-46 74 -49 89 -3 15 -18 35 -34 44 -40 23 -91 84 -91 107 0 24 -79 78 -164
112 -51 21 -56 26 -56 53 0 101 91 281 154 305 26 10 69 3 121 -20z m-7078
-122 c22 -24 51 -59 64 -78 33 -48 207 -213 247 -234 17 -9 32 -24 32 -34 1
-20 195 -175 308 -245 42 -26 91 -63 109 -82 18 -19 38 -35 45 -35 7 0 64 -31
128 -70 78 -47 137 -75 185 -88 39 -10 93 -33 120 -50 28 -18 68 -38 90 -43
22 -6 76 -28 120 -49 44 -21 134 -55 199 -74 66 -20 145 -48 175 -62 39 -18
82 -29 141 -34 48 -4 86 -12 88 -19 2 -6 21 -11 42 -11 26 0 40 -5 44 -16 4
-11 13 -14 27 -11 12 3 31 0 43 -8 11 -7 46 -16 76 -20 30 -4 109 -15 175 -25
66 -10 155 -22 198 -26 43 -3 77 -11 77 -17 0 -6 3 -7 7 -4 3 4 11 3 17 -3 7
-5 95 -12 196 -16 102 -4 187 -10 190 -13 3 -3 120 -4 260 -1 140 3 257 1 258
-3 2 -4 11 -2 19 4 10 9 17 9 21 2 5 -7 43 -5 122 7 63 10 207 30 320 45 239
31 396 62 416 83 11 11 18 11 29 2 11 -9 33 -6 104 19 49 17 107 31 129 31 23
0 47 7 56 15 8 8 24 15 36 15 12 0 92 27 178 61 373 144 521 204 582 234 l65
32 150 -2 c180 -2 200 -8 215 -67 16 -64 63 -158 104 -205 27 -31 50 -46 90
-57 69 -20 175 -21 202 -1 12 8 45 23 73 35 58 22 88 48 119 100 57 97 100
100 138 13 16 -35 32 -57 46 -61 19 -5 20 -10 15 -66 -10 -107 -49 -176 -99
-176 -33 0 -39 25 -8 33 14 4 20 14 20 35 0 32 -14 42 -57 42 -27 0 -27 -3 -7
-82 10 -42 -16 -36 -96 23 -13 9 -26 5 -65 -20 -27 -17 -67 -34 -88 -38 -54
-8 -78 -31 -140 -132 l-54 -88 -13 -144 c-22 -249 -5 -331 78 -377 36 -20 40
-26 32 -43 -6 -10 -15 -19 -19 -19 -10 0 -125 -103 -212 -190 -34 -34 -75 -63
-103 -74 -26 -10 -56 -31 -68 -47 -12 -15 -34 -31 -49 -34 -16 -4 -32 -11 -35
-17 -4 -6 -39 -25 -80 -44 -40 -18 -78 -42 -84 -53 -6 -12 -14 -20 -18 -19
-17 4 -70 -17 -99 -39 -37 -27 -171 -93 -190 -93 -7 0 -50 -20 -96 -44 -45
-25 -128 -63 -185 -86 -57 -22 -125 -51 -150 -64 -26 -13 -66 -26 -89 -30 -23
-3 -104 -26 -180 -50 -76 -24 -159 -47 -183 -50 -25 -4 -70 -16 -100 -26 -30
-10 -82 -21 -115 -25 -33 -5 -69 -13 -80 -20 -11 -7 -54 -15 -95 -18 -43 -3
-76 -9 -78 -16 -3 -9 -8 -9 -17 -1 -15 12 -66 2 -140 -27 -49 -19 -307 -35
-521 -33 -98 1 -159 -2 -173 -9 -16 -9 -31 -9 -59 -1 -20 7 -132 13 -249 15
-155 3 -221 8 -246 19 -26 10 -38 11 -46 3 -8 -8 -23 -8 -56 1 -25 7 -60 12
-78 12 -17 0 -52 6 -78 14 -25 8 -109 24 -188 35 -78 12 -179 33 -224 47 -45
14 -113 30 -152 35 -38 5 -93 21 -121 34 -28 14 -58 25 -67 25 -9 0 -42 7 -74
16 -32 9 -69 18 -83 21 -14 2 -41 13 -60 23 -19 10 -86 34 -149 54 -72 23
-130 48 -160 70 -26 19 -69 40 -96 47 -28 7 -62 20 -76 30 -14 10 -50 27 -80
39 -30 11 -65 33 -79 49 -14 15 -77 59 -140 96 -171 103 -341 235 -471 367
-64 65 -121 118 -127 118 -6 0 -19 15 -28 33 -9 17 -45 73 -79 122 -105 152
-233 422 -275 581 -35 136 -41 222 -30 464 12 263 25 380 52 470 42 137 204
430 238 430 3 0 24 -19 47 -42z m6103 -2601 c0 -37 -7 -112 -16 -167 -13 -77
-21 -99 -34 -103 -13 -3 -23 -27 -36 -82 -27 -113 -61 -176 -109 -200 -22 -11
-42 -21 -44 -22 -2 -1 4 -14 14 -29 17 -26 16 -27 -13 -58 -16 -17 -40 -43
-52 -58 -30 -35 -37 -35 -45 2 -4 17 -9 30 -11 30 -11 0 -83 -41 -89 -50 -11
-17 13 -37 51 -44 l34 -7 -52 -62 c-29 -35 -64 -78 -77 -97 -13 -19 -48 -50
-78 -69 -76 -47 -204 -144 -272 -207 -32 -29 -70 -56 -87 -60 -39 -9 -124 -58
-175 -100 -22 -19 -48 -34 -57 -34 -30 -1 -95 -29 -104 -44 -5 -8 -25 -18 -46
-21 -20 -3 -48 -12 -62 -19 -14 -7 -49 -21 -78 -31 -28 -9 -81 -32 -116 -51
-38 -20 -79 -34 -100 -34 -41 0 -81 -14 -102 -35 -9 -8 -26 -15 -39 -15 -13 0
-59 -12 -102 -26 -43 -15 -107 -30 -143 -34 -36 -5 -103 -20 -150 -35 -53 -16
-119 -28 -175 -32 -49 -2 -104 -11 -122 -19 -19 -9 -66 -14 -125 -14 -51 0
-166 -10 -255 -22 -155 -21 -165 -21 -199 -5 -29 14 -64 17 -202 16 -92 0
-191 4 -221 10 -29 6 -73 11 -96 11 -24 0 -56 7 -71 15 -16 8 -42 15 -59 15
-62 0 -222 30 -265 49 -25 10 -71 22 -103 26 -32 4 -64 13 -71 21 -7 7 -23 10
-34 7 -12 -3 -65 12 -125 36 -57 22 -122 43 -145 47 -23 4 -54 17 -69 29 -14
13 -55 31 -91 40 -66 16 -104 35 -225 113 -37 24 -80 48 -96 53 -19 7 -37 24
-49 49 -14 29 -22 36 -30 28 -8 -8 -23 1 -54 35 -24 25 -61 53 -83 62 -31 12
-49 30 -80 77 -62 95 -65 101 -65 128 -1 17 -11 32 -32 45 -49 31 -48 39 11
87 28 24 27 42 -5 59 -24 12 -28 12 -45 -10 -10 -13 -19 -30 -19 -38 0 -25
-24 -8 -47 33 -26 45 -29 64 -9 64 7 0 21 12 31 26 15 23 15 27 0 50 -20 30
-30 30 -51 -1 -9 -14 -22 -25 -29 -25 -14 0 -31 57 -21 67 3 3 -8 21 -24 39
-17 20 -39 64 -51 106 l-22 72 21 14 c29 19 28 26 -9 83 -37 58 -39 116 -3
111 14 -2 27 6 38 22 24 37 20 45 -25 52 -22 4 -43 13 -46 21 -6 16 16 103 27
103 4 0 15 -11 24 -25 20 -31 40 -32 60 -4 13 19 18 20 50 9 44 -14 55 -30 32
-44 -44 -27 -47 -32 -41 -59 6 -21 13 -27 35 -27 21 0 30 7 40 30 7 17 18 29
24 27 17 -6 19 -81 2 -120 -14 -34 -13 -36 8 -51 22 -14 24 -13 43 12 l20 27
35 -55 c52 -81 92 -163 89 -180 -2 -8 -11 -25 -22 -38 -20 -27 -26 -72 -8 -72
15 0 53 21 62 34 9 13 19 1 130 -154 96 -134 162 -205 232 -245 27 -17 62 -44
78 -61 15 -18 48 -41 72 -51 29 -11 45 -24 45 -35 0 -11 11 -20 28 -24 15 -4
96 -38 180 -76 84 -37 183 -75 219 -84 37 -8 76 -22 87 -30 11 -8 39 -14 63
-14 23 0 81 -14 128 -31 48 -17 95 -29 107 -26 12 3 58 -5 103 -18 106 -30
188 -41 410 -55 99 -6 182 -15 185 -20 3 -4 85 -10 183 -11 150 -3 179 -2 187
11 7 11 10 12 10 2 0 -11 13 -13 53 -9 160 16 247 27 292 37 28 6 88 15 133
20 46 5 89 14 96 19 7 6 35 13 62 17 27 3 72 11 99 19 28 8 85 21 129 30 43 8
153 44 245 79 91 35 181 67 200 71 20 4 35 14 38 25 3 11 18 20 42 24 21 3 55
18 77 34 21 16 53 32 69 36 28 7 61 28 225 142 138 95 308 272 359 373 11 20
35 44 54 54 22 12 41 34 53 59 23 51 99 162 161 234 79 92 306 295 315 281 4
-7 8 -43 8 -80z m-5590 23 c0 -5 -4 -10 -10 -10 -5 0 -10 5 -10 10 0 6 5 10
10 10 6 0 10 -4 10 -10z m7930 -240 c11 21 87 60 116 60 11 0 37 -9 58 -19 38
-20 39 -20 87 0 75 29 93 26 114 -21 22 -49 46 -52 72 -9 17 29 23 31 76 33
l57 1 0 -35 c0 -42 -8 -56 -35 -62 -21 -4 -23 -17 -10 -57 l7 -24 -150 5
c-123 3 -154 7 -170 21 -14 13 -21 14 -30 5 -8 -8 -55 -11 -152 -10 -111 2
-146 -1 -170 -13 -26 -13 -50 -15 -141 -9 -96 6 -112 5 -128 -10 -17 -15 -156
-42 -255 -50 -17 -1 -36 21 -49 58 -2 5 -15 6 -30 2 -27 -6 -38 -38 -17 -51 6
-3 10 -14 10 -25 0 -26 -149 -49 -205 -30 -42 14 -42 14 -76 -48 -14 -24 -24
-30 -69 -35 -29 -4 -70 -18 -94 -32 -22 -14 -48 -30 -56 -35 -8 -5 -36 -12
-61 -15 -28 -3 -66 -19 -95 -38 -26 -18 -94 -57 -151 -87 -139 -74 -225 -145
-402 -331 -143 -150 -153 -163 -205 -271 -108 -223 -149 -417 -126 -603 6 -49
15 -121 19 -160 5 -38 16 -88 25 -110 32 -77 231 -417 276 -472 25 -30 56 -76
70 -103 29 -56 163 -200 185 -200 9 0 29 -15 45 -34 40 -46 190 -151 236 -166
21 -7 51 -21 68 -30 17 -10 49 -23 71 -30 22 -7 49 -20 60 -30 31 -26 41 -30
101 -40 33 -6 73 -21 95 -36 24 -16 46 -24 59 -21 12 3 23 -1 28 -10 6 -10 43
-20 108 -29 54 -8 109 -22 121 -30 12 -7 42 -14 65 -14 24 0 71 -9 105 -19 38
-12 65 -15 69 -10 4 6 11 6 19 -1 10 -8 14 -7 18 2 4 9 8 10 14 2 12 -16 427
-38 572 -31 113 6 124 5 169 -17 72 -36 107 -39 154 -15 29 15 80 24 179 34
116 12 144 18 176 39 25 16 76 32 148 46 126 25 154 36 288 113 54 32 109 57
123 57 67 0 250 120 483 318 34 28 68 52 75 52 13 0 224 331 298 470 60 112
116 262 140 379 21 102 27 271 14 391 -8 67 -7 73 7 62 18 -15 41 -6 69 25 15
17 14 20 -13 53 l-30 35 -27 -33 c-15 -18 -30 -32 -34 -32 -3 0 -14 24 -24 53
-47 143 -135 311 -210 404 -31 38 -33 43 -18 57 8 9 26 16 40 16 21 0 24 5 24
35 0 33 -2 35 -35 35 -36 0 -62 -28 -51 -55 3 -8 1 -17 -5 -20 -9 -6 -52 31
-79 70 -32 45 -434 292 -530 327 -5 2 -4 22 3 46 10 36 9 45 -5 59 -14 13 -20
14 -32 3 -9 -7 -16 -20 -16 -29 -1 -42 -15 -45 -86 -13 -38 17 -77 33 -88 36
-17 6 -17 8 -2 31 20 31 20 44 0 66 -22 24 -50 9 -59 -31 -4 -16 -11 -32 -16
-36 -5 -3 -40 4 -78 15 -63 19 -69 23 -84 61 -18 46 -30 50 -53 15 -21 -32
-38 -31 -102 6 -64 36 -72 52 -42 85 l23 24 -23 25 -23 25 -24 -26 -23 -25 21
-29 c12 -15 19 -33 15 -38 -15 -24 -167 -26 -204 -3 -8 5 -10 22 -6 54 6 41
10 47 31 47 18 0 28 8 36 30 15 40 37 45 154 31 140 -17 183 -29 183 -53 0
-58 53 -81 65 -28 5 22 11 29 23 26 10 -2 43 -10 76 -17 58 -13 78 -31 57 -52
-16 -16 -14 -44 5 -51 44 -17 74 5 74 54 0 16 5 20 18 16 9 -3 37 -10 62 -16
99 -24 101 -26 94 -85 l-6 -52 31 -5 c35 -5 51 12 51 52 0 16 5 20 18 16 9 -2
54 -14 100 -26 45 -12 82 -24 82 -27 0 -2 -5 -13 -11 -25 -6 -11 -8 -31 -5
-44 9 -33 42 -31 73 5 25 28 27 29 62 16 93 -33 328 -158 370 -196 25 -22 64
-50 86 -61 22 -12 82 -52 133 -90 51 -38 113 -78 137 -90 27 -13 48 -32 55
-49 6 -14 36 -44 66 -65 100 -68 183 -183 270 -372 28 -62 63 -123 78 -137 14
-13 26 -33 26 -43 0 -11 14 -46 30 -78 24 -46 37 -98 62 -244 40 -237 43 -404
10 -525 -32 -119 -108 -334 -125 -353 -19 -22 -47 -78 -47 -94 0 -7 -36 -57
-80 -111 -44 -54 -87 -112 -97 -128 -10 -16 -23 -29 -30 -29 -7 0 -13 -5 -13
-10 0 -6 -7 -13 -15 -17 -9 -3 -55 -45 -103 -93 -48 -48 -97 -91 -109 -94 -11
-4 -27 -13 -33 -21 -7 -8 -19 -15 -28 -15 -8 0 -39 -23 -68 -50 -30 -28 -75
-61 -102 -73 -26 -12 -59 -32 -72 -45 -40 -38 -149 -102 -155 -91 -4 5 -21 -2
-38 -15 -55 -41 -146 -81 -317 -141 -91 -31 -178 -65 -195 -75 -16 -9 -60 -20
-96 -23 -38 -4 -117 -23 -185 -47 -66 -23 -150 -45 -189 -50 -101 -12 -191
-29 -265 -50 -69 -20 -365 -38 -528 -32 -46 2 -89 -1 -95 -6 -12 -9 -558 11
-642 23 -22 3 -107 15 -190 25 -140 18 -200 32 -494 110 -62 16 -129 30 -150
30 -20 0 -51 9 -69 20 -18 11 -45 20 -60 20 -15 0 -35 7 -45 15 -11 7 -37 17
-60 20 -22 4 -50 17 -62 29 -12 12 -52 30 -88 40 -37 10 -88 33 -114 52 -26
19 -55 34 -63 34 -9 0 -49 20 -90 44 -41 24 -127 72 -190 107 -85 47 -133 82
-185 134 -38 39 -92 82 -118 98 -32 18 -53 38 -62 61 -9 21 -26 38 -45 46 -17
7 -59 42 -93 78 -34 36 -86 90 -114 119 -29 29 -53 57 -53 63 0 6 -12 27 -27
47 -58 75 -193 348 -193 391 0 17 -5 32 -10 32 -32 0 -54 206 -40 371 19 214
113 515 190 609 20 25 74 101 121 170 46 69 102 142 124 162 22 21 73 67 112
104 40 37 75 75 78 84 6 18 318 238 432 304 35 20 95 51 135 68 40 16 91 43
112 59 22 16 53 29 69 29 17 0 50 16 85 40 31 22 62 38 70 35 8 -3 20 1 26 9
11 14 276 86 318 86 13 0 32 6 43 14 11 7 32 15 48 18 24 5 28 1 35 -26 15
-59 85 -43 75 17 -4 30 -2 33 31 45 25 9 60 11 114 7 68 -6 84 -5 120 14 23
11 51 21 63 21 12 0 48 10 80 21 54 20 62 20 102 7 39 -13 47 -12 78 3 19 10
57 19 84 21 l50 3 9 -43 c8 -34 14 -42 32 -42 27 0 44 20 48 57 3 24 9 29 40
34 20 3 39 9 43 13 4 4 27 -13 50 -38 39 -40 44 -43 53 -26z m-2930 -89 c0
-32 -7 -78 -15 -102 -23 -65 -165 -269 -187 -269 -10 0 -23 -11 -28 -24 -5
-13 -30 -41 -57 -62 -26 -22 -66 -57 -88 -79 -22 -22 -53 -46 -69 -53 -17 -7
-46 -26 -65 -41 -20 -15 -56 -35 -81 -45 -25 -10 -56 -28 -70 -40 -14 -13 -40
-26 -59 -30 -19 -3 -84 -29 -144 -57 -99 -45 -199 -79 -234 -79 -7 0 -29 -11
-49 -25 -47 -32 -82 -41 -228 -60 -85 -11 -139 -24 -190 -47 -59 -25 -91 -32
-191 -39 -66 -5 -169 -13 -230 -18 -60 -6 -153 -10 -206 -10 -52 -1 -99 -5
-105 -11 -6 -6 -39 -6 -94 0 -47 5 -134 10 -194 10 -87 0 -113 3 -127 16 -17
15 -21 15 -42 1 -17 -11 -28 -12 -42 -5 -10 6 -71 17 -136 24 -65 8 -189 33
-276 55 -196 52 -270 68 -305 69 -14 0 -41 12 -58 26 -18 15 -52 30 -78 35
-26 5 -103 37 -172 72 -69 35 -137 67 -152 71 -15 3 -30 15 -33 26 -3 11 -10
20 -15 20 -22 0 -198 129 -261 191 -61 61 -78 86 -137 207 -64 130 -67 141
-67 209 0 43 5 77 12 84 16 16 65 2 208 -63 60 -27 132 -54 160 -60 27 -6 62
-17 77 -24 15 -8 36 -14 47 -14 11 0 35 -9 53 -19 18 -11 73 -27 121 -37 50
-10 103 -27 121 -39 20 -13 57 -25 92 -29 134 -16 321 -49 349 -61 46 -21 310
-58 379 -53 39 3 75 0 101 -10 24 -8 71 -14 119 -13 44 1 124 -6 178 -15 66
-11 122 -14 171 -10 39 4 82 7 95 7 12 0 30 0 40 0 9 0 37 0 62 -2 84 -4 193
5 243 19 23 6 73 8 120 5 66 -4 99 -1 167 17 47 12 137 28 200 36 160 19 300
48 400 83 47 17 101 31 120 31 49 0 555 170 623 209 63 36 208 92 220 84 4 -2
7 -30 7 -62z m2996 -121 c14 0 35 5 46 11 16 9 23 8 29 -2 7 -11 9 -11 9 -1 0
10 5 10 21 1 12 -6 35 -8 53 -5 56 10 392 -11 428 -27 18 -9 69 -17 113 -20
47 -3 102 -14 133 -26 30 -12 68 -21 85 -20 18 2 54 -9 82 -23 28 -14 121 -51
208 -82 122 -43 165 -63 187 -86 29 -31 102 -69 132 -70 9 0 19 -8 23 -19 3
-10 23 -31 45 -46 21 -15 41 -33 44 -41 4 -11 10 -12 30 -3 21 10 32 7 85 -25
33 -21 68 -50 78 -67 9 -16 25 -29 35 -29 9 0 42 -22 73 -50 94 -81 254 -354
294 -501 62 -220 44 -485 -46 -704 -18 -45 -32 -65 -44 -65 -11 0 -22 -13 -29
-37 -27 -83 -86 -178 -150 -242 -78 -77 -331 -271 -354 -271 -9 0 -37 -15 -63
-34 -70 -50 -192 -109 -214 -103 -10 3 -22 1 -25 -4 -9 -15 -115 -65 -151 -72
-18 -4 -50 -18 -71 -32 -26 -17 -61 -28 -110 -34 -40 -5 -86 -18 -104 -29 -39
-24 -196 -52 -328 -59 -52 -2 -100 -9 -107 -14 -8 -7 -19 -7 -32 1 -15 8 -27
8 -42 0 -16 -9 -28 -9 -51 1 -24 10 -31 10 -38 -1 -5 -9 -13 -10 -26 -2 -13 7
-25 7 -39 -1 -29 -17 -327 -22 -395 -7 -30 7 -102 13 -160 14 -116 2 -499 74
-646 121 -44 13 -89 25 -102 25 -12 0 -39 11 -60 25 -20 13 -57 27 -82 31 -48
7 -247 101 -321 151 -24 16 -86 51 -136 78 -96 50 -111 64 -305 276 -107 117
-212 291 -257 426 -83 249 -28 557 145 810 27 39 101 131 165 205 98 112 129
141 200 185 46 28 108 72 137 97 30 25 58 46 64 46 5 0 60 22 122 49 61 27
123 53 139 56 15 4 27 13 27 20 0 7 18 15 42 19 23 4 89 25 147 48 68 27 127
43 166 46 33 2 67 10 75 17 20 18 430 82 610 96 80 6 149 15 154 19 5 5 15 2
23 -6 8 -8 26 -14 39 -14z m-4543 -1573 c37 10 52 9 113 -11 88 -29 114 -42
139 -72 11 -13 54 -42 95 -65 103 -57 140 -86 140 -110 0 -13 8 -23 20 -26 12
-3 32 -27 46 -55 14 -27 31 -51 39 -54 15 -6 47 -100 140 -404 97 -317 161
-454 270 -578 30 -35 55 -68 55 -74 0 -17 69 -126 122 -191 28 -34 60 -85 73
-112 12 -28 36 -62 53 -77 17 -14 37 -41 45 -59 8 -19 35 -58 61 -87 25 -30
46 -58 46 -63 0 -5 11 -14 25 -19 14 -5 34 -29 49 -57 13 -26 50 -73 81 -103
31 -30 84 -89 118 -130 33 -41 86 -102 116 -136 65 -71 151 -185 174 -231 9
-17 30 -37 46 -44 16 -7 36 -28 45 -46 8 -18 40 -66 70 -107 31 -41 63 -92 73
-113 10 -21 41 -64 71 -95 91 -99 121 -211 76 -288 -20 -35 -21 -35 -96 -38
l-76 -3 -41 48 c-27 31 -48 71 -62 113 -22 72 -43 110 -62 110 -6 0 -31 35
-55 78 -23 42 -72 118 -109 167 -37 50 -88 121 -115 159 -26 38 -57 75 -68 83
-11 8 -42 47 -69 86 -27 40 -110 146 -186 237 -75 91 -154 190 -175 220 -21
31 -46 62 -56 70 -26 23 -112 134 -188 245 -38 55 -103 136 -145 181 -42 44
-105 122 -141 172 -53 73 -71 92 -96 96 -23 5 -35 15 -44 37 -7 17 -36 48 -64
69 -28 22 -57 48 -64 59 -7 12 -19 21 -27 21 -9 0 -38 11 -65 25 -27 14 -74
34 -105 46 -118 44 -269 129 -310 173 -22 24 -64 56 -93 70 -64 32 -124 110
-187 241 -57 119 -65 159 -65 315 0 129 0 132 30 175 40 58 82 92 163 131 59
28 71 31 97 21 22 -8 41 -8 73 0z m2807 -897 c0 -5 -4 -10 -10 -10 -5 0 -10 5
-10 10 0 6 5 10 10 10 6 0 10 -4 10 -10z m71 -37 c26 -12 53 -30 60 -40 8 -10
34 -25 58 -32 24 -7 62 -24 84 -38 21 -13 59 -31 84 -38 25 -8 55 -23 67 -33
12 -12 100 -42 216 -75 232 -65 285 -77 351 -77 30 0 60 -7 76 -17 18 -12 56
-20 118 -24 55 -4 103 -12 123 -23 31 -16 36 -16 57 -2 13 9 26 12 29 7 6 -10
257 -26 381 -24 213 4 492 20 518 31 31 13 72 0 82 -26 7 -20 -10 -30 -65 -38
-25 -3 -59 -13 -75 -20 -71 -33 -531 -53 -780 -35 -137 10 -280 29 -425 57
-19 3 -45 13 -57 20 -17 10 -23 11 -26 1 -4 -9 -8 -9 -14 -1 -4 6 -30 14 -58
18 -104 15 -411 132 -597 228 -91 47 -133 76 -195 135 -43 41 -73 73 -68 71 6
-2 31 -13 56 -25z"/>
<path d="M3949 11345 c-3 -2 -111 -7 -241 -10 -131 -3 -243 -7 -250 -10 -7 -3
-92 -7 -188 -9 -142 -3 -189 -7 -248 -25 -40 -12 -113 -25 -162 -30 -50 -6
-94 -12 -98 -15 -5 -3 -60 -14 -123 -24 -63 -11 -141 -30 -174 -42 -169 -63
-253 -89 -285 -90 -23 0 -42 -7 -53 -20 -9 -11 -29 -20 -45 -20 -15 0 -43 -10
-62 -23 -19 -13 -51 -29 -70 -37 -19 -7 -42 -19 -50 -26 -8 -6 -34 -15 -57
-19 -23 -3 -47 -13 -53 -21 -16 -19 -187 -104 -209 -104 -10 0 -26 -9 -37 -21
-10 -12 -48 -38 -84 -59 -36 -21 -126 -84 -200 -140 -74 -56 -146 -108 -160
-115 -14 -7 -40 -35 -57 -63 -30 -46 -91 -108 -139 -142 -11 -8 -31 -35 -45
-60 -14 -27 -32 -46 -44 -48 -12 -2 -28 -19 -41 -45 -45 -93 -129 -244 -151
-273 -30 -41 -68 -134 -83 -207 -6 -33 -21 -74 -31 -92 -54 -91 -51 -440 7
-725 39 -195 87 -327 148 -408 28 -38 85 -115 126 -172 129 -177 507 -543 589
-570 25 -8 59 -29 76 -46 18 -17 47 -37 67 -43 19 -6 77 -37 129 -67 124 -73
157 -90 199 -98 19 -3 58 -22 85 -40 28 -19 84 -44 125 -56 41 -12 125 -39
187 -61 61 -21 126 -39 145 -39 34 0 77 -12 182 -50 101 -36 455 -94 766 -125
230 -23 590 -31 641 -15 30 10 45 11 58 3 13 -8 22 -7 36 3 14 10 56 14 160
14 121 0 146 3 180 20 27 14 59 20 104 20 60 0 182 25 401 81 41 11 165 42
275 70 164 41 213 58 275 93 81 46 154 77 240 102 30 9 70 27 88 41 41 31 127
70 173 78 20 4 57 24 83 45 25 21 101 72 168 113 128 79 211 143 248 190 12
15 31 27 44 27 41 0 334 330 449 505 189 288 267 620 223 952 -19 143 -62 317
-106 427 -59 151 -170 347 -252 451 -44 55 -93 125 -108 155 -20 39 -38 60
-61 71 -19 9 -92 61 -164 114 -71 54 -158 111 -192 127 -34 16 -78 44 -98 62
-25 23 -50 35 -80 39 -28 4 -66 21 -103 46 -71 49 -145 83 -329 150 -78 28
-164 61 -190 73 -29 13 -72 22 -108 23 -47 1 -70 8 -102 29 -31 20 -69 33
-145 45 -57 10 -114 23 -128 29 -14 7 -137 28 -275 48 -185 26 -281 35 -370
35 -170 -2 -262 4 -324 19 -45 10 -55 10 -63 -1 -7 -11 -11 -11 -15 -1 -5 12
-16 16 -24 7z m29 -90 c178 -9 327 -13 331 -11 21 14 173 6 246 -12 44 -11
134 -28 200 -36 408 -55 450 -64 514 -106 35 -24 55 -30 98 -30 33 0 68 -7 91
-19 20 -10 54 -21 75 -25 23 -4 37 -13 37 -21 0 -11 12 -15 45 -15 25 0 45 -5
45 -10 0 -17 62 -49 108 -56 24 -4 48 -14 54 -23 7 -12 20 -16 41 -13 20 3 28
1 23 -7 -4 -6 0 -11 9 -11 10 0 30 -11 47 -25 20 -17 42 -25 67 -25 28 0 50
-9 83 -34 25 -19 58 -38 73 -42 14 -4 29 -13 32 -21 3 -9 35 -28 70 -44 35
-15 66 -35 69 -44 3 -8 15 -15 26 -15 23 0 115 -75 123 -101 4 -11 12 -16 22
-12 15 6 43 -20 43 -39 0 -25 -90 14 -129 56 -14 14 -33 26 -43 26 -10 0 -64
17 -120 39 -57 21 -121 42 -143 45 -45 8 -95 28 -95 38 0 3 -8 4 -18 1 -12 -3
-22 4 -29 20 -8 18 -24 26 -69 36 -69 15 -160 54 -189 81 -16 15 -47 22 -130
31 -61 7 -133 12 -161 13 -28 1 -59 7 -68 15 -14 12 -22 12 -37 3 -38 -24
-194 -6 -206 24 -3 9 -18 11 -52 7 -31 -3 -51 -1 -55 6 -5 8 -13 8 -29 -1 -14
-9 -63 -13 -137 -13 -101 0 -129 4 -230 34 -68 21 -141 35 -180 37 -63 2 -84
7 -254 60 -53 16 -83 21 -89 15 -7 -7 -14 -5 -22 6 -7 10 -29 16 -56 18 -32 1
-63 12 -105 38 l-59 36 -175 -9 c-247 -13 -234 -13 -270 16 -18 15 -45 28 -63
29 -18 1 -40 5 -50 10 -10 4 -49 5 -86 2 -71 -6 -135 -31 -230 -92 -31 -19
-78 -39 -110 -45 -31 -6 -89 -26 -130 -46 -57 -27 -95 -38 -160 -45 -105 -11
-193 -35 -299 -83 -44 -20 -90 -36 -103 -36 -30 0 -98 -21 -164 -50 -27 -12
-81 -26 -120 -31 -69 -9 -82 -14 -264 -109 -37 -19 -85 -35 -113 -38 -44 -4
-48 -3 -48 17 0 26 27 54 78 80 22 11 42 27 45 35 4 9 13 13 20 10 8 -3 17 2
20 10 4 9 17 16 31 16 25 0 395 176 408 194 3 5 19 11 34 13 15 2 45 11 68 18
23 8 51 15 62 15 12 0 32 9 46 19 13 11 64 29 114 41 49 12 108 30 130 40 23
10 51 16 63 13 12 -3 27 -1 34 5 6 5 44 13 82 17 39 4 82 14 97 21 15 8 53 14
85 14 32 0 103 12 158 26 62 15 155 29 245 35 80 6 186 14 235 18 50 4 101 8
115 9 14 1 170 -5 348 -13z m-575 -186 c25 -11 28 -16 22 -50 -5 -27 -3 -38 9
-42 8 -3 26 -24 40 -45 43 -69 96 -55 82 23 -8 43 0 62 27 61 20 -1 22 -6 19
-50 -4 -52 6 -66 46 -66 30 0 28 -11 -10 -47 -36 -33 -66 -51 -108 -63 -25 -7
-27 -5 -38 36 -9 32 -17 44 -30 44 -23 0 -47 -25 -61 -62 -9 -24 -7 -30 14
-44 23 -15 24 -17 9 -45 -8 -16 -20 -29 -26 -29 -7 0 -9 -15 -5 -43 6 -44 -5
-113 -21 -129 -5 -5 -27 -5 -56 3 -41 10 -46 14 -46 39 0 42 -10 60 -31 60
-24 0 -37 -34 -32 -81 5 -37 5 -37 -49 -54 -29 -10 -70 -27 -92 -39 l-38 -21
-24 30 -25 30 -17 -22 c-9 -11 -30 -37 -45 -58 -22 -28 -35 -35 -55 -33 -35 4
-37 20 -8 55 23 28 24 30 9 61 -16 33 -48 43 -71 20 -8 -8 -14 -5 -23 15 -12
27 -41 35 -67 18 -17 -10 -150 121 -158 156 -15 59 20 107 115 157 39 20 76
45 83 55 7 10 27 21 43 25 53 13 100 19 93 11 -3 -4 -2 -20 4 -36 11 -32 33
-37 63 -15 15 11 17 21 12 58 l-6 45 69 28 c39 16 73 25 77 21 4 -4 -3 -27
-17 -52 -27 -53 -20 -77 24 -82 29 -4 59 14 50 30 -3 5 -6 25 -6 44 0 42 31
80 76 94 40 12 143 6 179 -11z m722 -170 c109 -10 245 -28 373 -50 59 -11 64
-13 47 -25 -10 -8 -25 -14 -32 -14 -21 0 -15 -38 9 -54 12 -9 33 -16 45 -16
20 0 23 5 23 41 l0 42 68 -8 c37 -5 79 -8 95 -8 15 0 27 -4 27 -9 0 -5 5 -6
10 -3 6 3 10 2 10 -4 0 -6 26 -8 70 -4 68 6 69 5 82 -22 l12 -28 126 7 c108 6
128 4 149 -10 17 -12 47 -18 100 -19 80 -2 145 -22 231 -73 25 -14 61 -27 80
-28 19 -1 61 -14 92 -29 60 -27 64 -38 30 -77 -14 -16 -13 -20 3 -38 28 -31
54 -35 79 -11 l23 21 44 -34 c24 -18 79 -73 123 -120 l79 -87 -34 -36 c-19
-19 -68 -58 -109 -86 -41 -27 -92 -65 -113 -84 -37 -33 -38 -33 -66 -17 -29
17 -30 17 -55 -12 -29 -32 -42 -67 -31 -84 4 -6 25 -10 47 -8 37 2 41 0 53
-29 9 -21 26 -37 48 -47 46 -19 50 -28 37 -77 -17 -62 -48 -99 -83 -99 -16 0
-42 -11 -57 -24 -21 -17 -51 -27 -112 -35 -46 -7 -94 -19 -107 -28 -13 -9 -40
-16 -60 -16 -30 -1 -37 3 -39 21 -3 18 -9 22 -42 20 -31 -1 -41 -6 -50 -27
-10 -22 -9 -28 9 -42 12 -10 26 -19 33 -21 21 -7 -45 -102 -137 -194 -61 -61
-139 -123 -244 -194 -84 -58 -160 -115 -168 -127 -9 -13 -22 -23 -29 -23 -8 0
-14 -8 -14 -17 0 -10 -9 -31 -20 -48 -23 -34 -26 -78 -7 -93 6 -6 32 -18 57
-28 25 -9 53 -24 63 -32 16 -15 16 -16 -3 -37 -24 -26 -25 -33 -3 -57 21 -24
45 -23 68 2 16 18 20 18 34 6 9 -8 30 -17 46 -21 17 -4 47 -13 68 -21 55 -21
66 -18 83 21 13 32 18 35 53 35 22 0 46 -3 55 -6 26 -10 18 -25 -10 -22 -23 3
-27 -1 -29 -29 -1 -18 -10 -44 -19 -58 -21 -32 -15 -42 43 -67 25 -11 53 -27
62 -34 14 -13 18 -12 29 1 7 8 16 12 21 9 5 -3 9 8 9 25 0 34 -22 51 -64 51
l-26 0 15 37 c9 21 14 47 11 59 -4 15 0 24 11 28 20 8 183 -4 183 -13 0 -3 -9
-17 -20 -31 -26 -33 -25 -59 3 -70 23 -9 42 5 77 59 14 20 18 21 42 11 48 -22
261 60 312 120 14 17 26 35 26 40 0 5 18 29 40 54 50 58 55 90 36 201 -25 142
-24 148 30 168 l47 17 -7 -40 -6 -40 38 0 c45 0 62 14 62 52 0 28 -24 49 -47
41 -7 -3 -13 1 -13 7 0 7 8 10 20 7 11 -3 46 2 77 10 37 9 73 12 103 8 25 -4
80 -7 123 -7 l77 1 0 -45 c0 -44 0 -44 36 -44 l36 0 -7 49 -7 48 49 7 c52 8
153 52 153 67 0 16 30 9 51 -12 42 -42 52 21 19 116 -20 59 -27 125 -12 125 4
0 13 -5 20 -12 7 -7 12 -8 12 -3 0 6 20 -37 43 -95 23 -58 51 -118 61 -133 11
-16 30 -66 43 -110 13 -45 33 -95 45 -111 20 -28 21 -34 10 -111 -25 -174 -98
-363 -197 -514 -53 -81 -67 -91 -94 -67 -26 23 -47 20 -70 -13 l-20 -28 20
-19 c35 -31 19 -79 -43 -140 -29 -27 -68 -69 -86 -92 -18 -23 -86 -84 -150
-135 -64 -51 -123 -101 -131 -110 -7 -9 -19 -17 -26 -17 -7 0 -36 -16 -64 -35
-28 -19 -58 -35 -66 -35 -9 0 -38 23 -65 50 -27 28 -60 54 -74 60 -34 12 -34
43 0 87 27 36 45 41 64 18 17 -20 59 -19 67 2 4 9 -3 32 -14 53 -26 44 -16 70
26 70 37 0 83 43 79 73 -2 15 -14 25 -37 33 -29 9 -37 20 -63 82 -32 77 -83
132 -121 132 -12 0 -53 -11 -92 -25 -38 -13 -87 -25 -108 -25 -34 0 -46 -8
-100 -61 -52 -52 -64 -60 -79 -50 -41 26 -68 9 -68 -44 0 -21 5 -24 43 -27 41
-3 42 -4 45 -40 3 -35 2 -37 -30 -40 -34 -3 -34 -4 -30 -62 2 -13 8 -17 22
-13 33 8 87 -11 110 -40 32 -42 26 -48 -48 -48 -58 0 -82 -7 -172 -47 -58 -25
-116 -49 -130 -53 -14 -4 -33 -14 -42 -22 -16 -14 -39 -14 -81 3 -11 4 -21 -7
-35 -39 -23 -51 -61 -82 -91 -72 -13 4 -27 -2 -43 -17 -108 -102 -120 -110
-146 -103 -67 16 -82 5 -68 -51 5 -20 11 -23 36 -17 33 6 35 1 23 -70 l-6 -38
-46 3 c-41 2 -46 0 -49 -21 -2 -12 4 -31 14 -42 24 -27 5 -67 -58 -119 l-49
-42 -65 27 c-35 15 -73 39 -84 53 -31 39 -29 43 34 57 26 5 28 9 22 38 -9 44
-32 61 -60 42 -11 -8 -29 -15 -39 -15 -10 0 -29 -11 -42 -24 -31 -32 -45 -17
-45 50 0 38 -4 53 -16 58 -22 9 -32 0 -42 -37 -10 -35 -10 -35 -124 -22 -52 6
-58 9 -58 29 0 46 -52 60 -67 19 -12 -34 -24 -44 -39 -32 -9 8 -31 9 -62 5
-137 -21 -126 -22 -119 12 l6 31 -72 -20 c-40 -11 -82 -27 -94 -35 -28 -18
-47 -18 -63 1 -9 11 -17 12 -32 4 -17 -9 -19 -17 -14 -54 8 -47 10 -44 -76
-100 l-37 -24 -25 20 c-16 12 -26 31 -26 45 0 23 -3 25 -37 22 -32 -3 -38 -7
-41 -29 -2 -14 4 -31 12 -39 21 -17 20 -53 -2 -73 -19 -17 -101 -39 -115 -30
-5 3 -7 23 -5 44 2 26 -1 40 -10 44 -23 9 -31 6 -53 -19 -18 -20 -25 -23 -39
-13 -14 8 -22 8 -34 -2 -9 -8 -16 -17 -16 -22 0 -16 32 -39 56 -39 29 0 40
-21 24 -49 -14 -27 -60 -27 -117 -1 -25 11 -45 15 -48 9 -10 -15 -41 -11 -63
9 -18 14 -20 24 -14 67 5 44 7 46 12 20 4 -25 10 -31 37 -33 25 -2 33 1 38 18
8 27 -11 50 -41 50 -13 0 -28 9 -34 20 -6 11 -19 24 -30 30 -16 9 -22 6 -34
-17 -7 -16 -17 -54 -21 -86 -6 -45 -11 -57 -25 -57 -40 0 -198 33 -380 79
-107 27 -206 51 -219 53 -15 2 -30 15 -40 35 l-16 31 -97 4 c-88 3 -99 5 -125
29 -38 36 -63 48 -124 59 -29 6 -69 23 -92 40 -22 16 -70 39 -106 51 -36 12
-72 30 -79 41 -7 10 -19 18 -26 18 -8 0 -19 6 -25 14 -7 8 -27 17 -46 20 -20
4 -44 19 -59 37 -15 17 -53 44 -87 61 -35 17 -94 62 -141 107 l-81 77 18 69
c11 46 15 85 11 118 -6 43 -4 52 24 87 42 53 80 139 86 197 8 62 -8 119 -50
182 l-34 50 29 27 c16 15 29 31 29 36 0 5 -15 17 -32 28 l-33 20 -21 -26 -22
-27 -56 56 c-31 31 -67 64 -81 73 -30 20 -31 27 -5 62 17 23 19 31 8 53 -9 20
-20 26 -48 27 -48 2 -70 31 -70 91 0 55 -15 80 -50 83 -24 3 -25 0 -28 -50 -4
-63 -14 -70 -78 -52 -52 15 -73 5 -56 -27 9 -16 3 -26 -39 -62 -34 -29 -60
-44 -81 -45 -29 -1 -33 3 -42 39 -5 22 -10 112 -10 200 0 132 4 174 21 241 49
186 157 359 343 549 69 72 145 155 167 185 59 79 103 118 237 206 138 91 143
94 216 126 30 12 94 51 142 86 49 35 110 74 136 87 49 25 132 44 132 30 0 -4
-9 -24 -21 -45 -22 -39 -58 -65 -124 -90 l-40 -16 3 -62 c4 -65 -4 -150 -16
-169 -4 -6 -40 -14 -79 -18 -69 -7 -73 -6 -73 13 0 52 -18 61 -77 40 -38 -14
-44 -41 -13 -58 29 -15 25 -37 -10 -55 -65 -34 -106 -143 -81 -218 14 -42 63
-87 94 -87 37 0 51 -14 38 -38 -15 -28 -5 -49 26 -57 36 -9 61 18 65 68 l3 41
80 23 c44 12 96 30 116 39 33 14 40 14 83 0 92 -31 136 -20 261 64 77 52 145
74 159 51 11 -16 43 -13 50 5 3 9 6 27 6 40 0 17 8 27 25 34 14 5 42 21 63 35
47 32 75 32 96 0 9 -14 47 -41 85 -59 l69 -35 4 -93 c3 -84 8 -100 40 -161
l36 -68 -39 -25 c-40 -25 -48 -41 -27 -62 17 -17 53 -15 90 4 17 9 40 13 54
10 39 -10 93 -65 105 -107 13 -41 31 -49 58 -25 23 19 75 3 88 -27 9 -18 22
-26 53 -30 25 -3 62 -19 89 -39 45 -32 49 -33 146 -33 81 0 105 -4 128 -19 36
-25 155 -33 239 -17 99 19 160 53 208 117 39 52 64 64 82 40 6 -10 59 25 110
72 22 20 25 29 17 43 -13 25 -61 24 -84 -1 -10 -11 -26 -20 -36 -20 -15 0 -16
5 -8 32 5 18 9 45 9 60 0 23 4 28 24 28 13 0 29 7 36 15 8 9 22 12 41 8 16 -3
42 0 59 7 64 26 20 64 -75 65 -58 0 -60 1 -57 25 1 14 20 41 43 62 32 29 39
41 34 61 -5 19 -2 25 16 30 21 6 111 -7 129 -18 36 -22 148 107 175 200 10 36
21 55 31 55 9 0 25 23 39 55 13 29 45 82 70 115 46 64 72 127 62 153 -21 54
-369 143 -413 106 -9 -8 -46 -30 -83 -49 -47 -25 -70 -44 -81 -67 -8 -17 -30
-38 -47 -47 -21 -10 -49 -40 -76 -83 -59 -91 -68 -98 -104 -79 -16 8 -42 33
-58 56 -41 60 -61 70 -131 70 -69 0 -81 8 -113 80 -34 76 -30 91 47 156 68 57
95 90 113 132 9 22 11 23 126 17 65 -3 168 -11 228 -16z m-1698 -227 c80 -41
129 -84 143 -128 6 -19 20 -39 31 -44 20 -11 24 -51 13 -122 -6 -34 -11 -38
-80 -67 -40 -17 -78 -31 -83 -31 -6 0 -29 -13 -53 -28 -24 -16 -58 -35 -76
-42 -18 -7 -37 -21 -43 -32 -6 -11 -17 -17 -25 -14 -8 3 -17 0 -20 -8 -3 -7
-22 -16 -43 -20 -21 -3 -57 -19 -82 -36 -24 -16 -48 -30 -53 -30 -5 0 -18 -7
-27 -16 -17 -15 -22 -15 -70 5 -28 13 -60 20 -71 18 -16 -5 -24 5 -44 46 -28
61 -31 126 -9 211 44 167 146 282 313 353 83 35 192 29 279 -15z m2104 -49
c45 -15 84 -34 86 -41 10 -24 -28 -102 -62 -128 -19 -14 -39 -42 -46 -62 -6
-20 -24 -57 -39 -82 -15 -25 -42 -73 -60 -108 -18 -34 -35 -60 -38 -57 -3 3
-11 0 -19 -6 -19 -16 -109 -3 -169 25 -55 25 -142 108 -150 142 -13 51 31 135
122 231 49 52 66 63 102 69 26 4 48 14 55 25 18 30 118 26 218 -8z m-1759
-188 c15 -30 15 -35 2 -46 -33 -27 -37 -50 -14 -74 23 -24 21 -60 -2 -53 -31
11 -52 60 -56 127 -4 66 -3 70 19 74 13 2 26 5 29 5 3 1 13 -14 22 -33z m981
2 c31 -13 221 -184 301 -270 46 -50 46 -37 -16 -332 l-41 -200 -45 -44 c-91
-89 -224 -124 -318 -85 -23 10 -92 20 -178 25 l-140 10 -86 53 c-351 218 -361
226 -396 301 -50 105 -13 317 68 392 27 26 88 53 118 53 11 0 50 19 86 41 36
23 84 47 107 55 60 18 495 19 540 1z m2679 -292 c-4 -41 -3 -45 17 -45 18 0
20 -4 15 -25 -13 -53 21 -104 60 -89 32 12 17 80 -20 94 -21 8 -22 13 -14 35
5 14 9 31 7 37 -4 21 29 19 57 -3 l29 -22 -7 -123 c-4 -68 -4 -148 -1 -179 7
-54 8 -55 39 -55 73 0 146 -146 146 -294 0 -55 -1 -56 -36 -71 -46 -19 -68
-19 -84 0 -19 22 -33 18 -52 -15 -15 -26 -22 -30 -63 -30 -33 0 -51 6 -66 21
-18 18 -25 20 -40 10 -31 -19 -39 -13 -39 28 0 22 -4 42 -8 45 -17 11 -57 -20
-60 -47 -3 -27 -8 -29 -99 -50 -35 -8 -28 17 12 47 40 31 45 60 13 77 -19 10
-25 8 -45 -15 -13 -15 -23 -39 -23 -53 0 -21 -3 -24 -22 -19 -13 3 -39 9 -59
12 -35 6 -37 8 -48 63 -6 31 -12 67 -13 81 -2 19 -11 27 -35 35 -18 5 -33 14
-33 21 0 6 16 42 36 80 47 90 43 122 -21 177 -40 34 -44 41 -34 60 15 30 70
87 83 87 6 0 20 -41 32 -90 17 -75 19 -98 10 -131 -10 -37 -9 -43 12 -60 41
-33 52 -16 52 82 0 76 -3 92 -20 109 -16 16 -18 25 -10 40 10 20 26 20 78 4
21 -6 37 42 24 71 -14 31 -38 32 -69 3 -18 -17 -26 -19 -35 -10 -9 9 -7 18 8
39 34 45 70 66 123 71 l51 5 -5 -29 c-7 -38 2 -50 48 -57 l39 -6 -4 57 -3 57
35 6 c19 4 38 7 41 8 4 0 4 -19 1 -44z m-4669 -18 c9 -30 17 -61 17 -70 0 -17
-62 -38 -189 -64 -70 -15 -75 -15 -88 3 -20 27 -16 78 9 109 32 41 112 75 179
75 l55 0 17 -53z m4144 -572 c12 -9 27 -32 33 -53 13 -48 13 -153 0 -188 -8
-20 -7 -41 2 -77 12 -48 12 -50 -15 -73 -16 -13 -39 -24 -53 -24 -16 0 -24 -6
-24 -17 0 -30 31 -53 71 -53 36 0 38 -2 44 -39 8 -50 -9 -112 -41 -151 -24
-28 -105 -90 -118 -90 -2 0 -6 15 -8 33 -3 28 -7 32 -36 35 -51 5 -62 -2 -53
-35 5 -18 15 -29 29 -31 27 -4 28 -12 1 -46 -24 -31 -67 -34 -143 -11 -27 8
-68 15 -91 15 -39 0 -43 3 -60 39 -18 41 -61 68 -90 57 -17 -6 -19 -24 -5 -61
12 -32 -1 -39 -55 -27 -29 6 -44 15 -53 35 -11 23 -19 28 -44 25 -26 -2 -33
-9 -43 -38 -8 -25 -18 -36 -36 -38 -13 -2 -29 -8 -35 -13 -19 -15 -178 103
-205 154 -16 29 21 68 129 140 55 36 110 78 123 94 13 16 50 42 83 58 44 21
65 38 85 71 32 54 209 237 248 257 16 9 71 18 123 23 64 5 104 13 125 25 37
23 83 24 112 4z m-5016 -696 c22 -34 58 -69 111 -106 60 -42 95 -77 153 -154
98 -130 99 -143 15 -289 -33 -58 -60 -109 -60 -115 -1 -30 -16 -36 -64 -23
-44 12 -49 11 -62 -6 -13 -18 -16 -16 -61 34 -133 147 -230 307 -283 469 -22
67 -27 97 -20 111 5 9 47 43 92 74 110 74 134 75 179 5z m5182 -521 c25 -34
34 -118 17 -168 -7 -21 -28 -53 -46 -71 -48 -46 -103 -50 -198 -13 -72 28 -75
30 -85 71 -28 107 -7 135 132 180 120 38 152 38 180 1z m-209 -462 c22 -9 59
-32 82 -51 23 -19 52 -35 64 -35 32 0 60 -18 60 -40 0 -27 -52 -65 -144 -105
-43 -19 -89 -44 -102 -56 -13 -12 -27 -20 -30 -16 -4 3 -16 1 -28 -5 -11 -7
-25 -11 -29 -10 -4 1 -22 -9 -40 -22 -18 -13 -79 -43 -137 -66 -58 -23 -114
-50 -126 -61 -12 -11 -35 -19 -55 -19 -19 0 -72 -14 -119 -30 -46 -17 -99 -30
-116 -30 -18 0 -49 -10 -69 -22 -48 -27 -55 -17 -55 81 0 75 21 172 43 202 7
9 50 36 97 59 47 23 128 69 181 101 53 33 104 59 112 59 8 0 17 6 20 14 3 7
26 18 51 25 26 6 54 20 64 31 15 18 27 20 127 16 72 -2 123 -9 149 -20z
m-1628 -516 c118 -10 206 -36 251 -74 20 -18 26 -32 27 -67 l1 -44 -81 -10
c-45 -6 -93 -19 -107 -28 -20 -13 -32 -15 -52 -7 -16 6 -34 6 -51 0 -14 -6
-73 -10 -130 -10 -58 0 -114 -5 -124 -10 -13 -7 -27 -6 -45 2 -20 9 -31 9 -45
0 -12 -7 -21 -8 -25 -2 -3 6 -37 10 -75 10 -38 0 -71 4 -74 9 -7 12 55 162 87
210 l24 36 154 -3 c85 -1 204 -7 265 -12z"/>
<path d="M3259 11032 c-24 -20 -31 -74 -12 -93 30 -30 80 35 67 87 -7 29 -24
30 -55 6z"/>
<path d="M3352 10938 c-34 -17 -39 -54 -11 -78 32 -26 33 -26 52 15 32 67 17
90 -41 63z"/>
<path d="M3213 10895 c-12 -8 -27 -32 -34 -52 l-12 -37 -27 32 c-14 18 -31 32
-37 32 -17 0 -38 -50 -28 -64 38 -51 46 -66 40 -76 -4 -7 -11 -5 -21 5 -20 19
-41 19 -61 -1 -14 -14 -12 -22 20 -87 20 -40 38 -81 39 -91 2 -15 11 -20 32
-20 28 0 30 3 32 43 1 23 12 67 24 97 13 32 20 66 18 85 -4 26 -1 32 29 44 31
13 33 17 33 59 0 50 -10 57 -47 31z m-93 -210 c0 -8 -4 -15 -10 -15 -5 0 -10
7 -10 15 0 8 5 15 10 15 6 0 10 -7 10 -15z"/>
<path d="M2968 10888 c-17 -13 -21 -28 -19 -60 1 -14 10 -18 37 -18 l35 0 -3
42 c-3 46 -21 58 -50 36z"/>
<path d="M2726 10829 c-32 -25 -30 -51 4 -59 60 -15 102 27 64 64 -21 21 -36
20 -68 -5z"/>
<path d="M3280 10770 c-12 -16 -22 -42 -23 -57 -2 -25 1 -28 35 -31 35 -3 37
-1 44 32 8 45 -2 86 -21 86 -7 0 -23 -13 -35 -30z"/>
<path d="M2905 10780 c-3 -5 -15 -10 -27 -10 -19 0 -20 -4 -14 -49 6 -46 5
-49 -18 -55 -19 -5 -27 -15 -32 -42 -7 -41 -7 -42 35 -54 26 -7 33 -6 42 12 6
12 9 38 6 59 -5 35 -3 38 21 41 21 2 28 10 35 41 8 32 6 40 -9 52 -23 17 -31
18 -39 5z"/>
<path d="M2677 10712 c-28 -29 -28 -31 -13 -61 9 -17 20 -31 24 -31 4 1 21 13
39 28 l31 27 -26 33 -27 33 -28 -29z"/>
<path d="M2981 10617 c-14 -6 -29 -24 -34 -40 -7 -23 -5 -31 15 -47 28 -24 32
-24 53 -4 11 11 15 30 13 57 -3 46 -12 52 -47 34z"/>
<path d="M3850 10866 c0 -27 34 -46 52 -28 18 18 4 47 -25 50 -23 3 -27 0 -27
-22z"/>
<path d="M4040 10815 c0 -32 3 -35 28 -35 32 0 72 25 72 44 0 15 -30 26 -72
26 -25 0 -28 -3 -28 -35z"/>
<path d="M4260 10809 c0 -23 21 -47 46 -53 30 -8 44 5 44 42 0 20 -5 22 -45
22 -25 0 -45 -5 -45 -11z"/>
<path d="M3708 10705 c-23 -51 34 -89 66 -43 15 21 15 24 -1 36 -44 33 -53 34
-65 7z"/>
<path d="M3913 10686 c-13 -6 -23 -16 -23 -22 0 -17 34 -44 56 -44 42 0 60 51
25 70 -23 12 -28 11 -58 -4z"/>
<path d="M4862 10624 c-14 -10 -22 -25 -22 -45 0 -28 2 -29 45 -29 40 0 45 3
51 27 6 20 2 31 -16 45 -27 22 -30 22 -58 2z"/>
<path d="M5363 10630 c-26 -11 -57 -55 -48 -70 10 -17 70 -12 88 8 10 10 17
31 17 45 0 29 -16 34 -57 17z"/>
<path d="M5123 10600 c-31 -19 -44 -40 -24 -40 5 0 12 -11 15 -25 5 -20 13
-25 36 -25 26 0 30 4 36 37 7 35 -2 63 -22 70 -5 2 -24 -6 -41 -17z"/>
<path d="M3833 10544 c-6 -16 24 -65 44 -71 16 -6 43 25 43 48 0 33 -75 53
-87 23z"/>
<path d="M5491 10533 c-12 -10 -23 -31 -24 -48 -2 -26 2 -30 25 -33 50 -6 105
75 62 92 -25 10 -40 7 -63 -11z"/>
<path d="M5041 10454 c-24 -31 -26 -44 -8 -67 7 -11 20 -15 33 -11 26 7 60 65
51 88 -10 25 -53 19 -76 -10z"/>
<path d="M5207 10422 c-21 -23 -21 -41 1 -69 l17 -22 33 20 c38 25 38 28 11
63 -24 31 -40 33 -62 8z"/>
<path d="M1666 10414 c-20 -20 -20 -27 2 -46 34 -30 51 -29 68 3 12 24 13 34
3 45 -15 19 -54 18 -73 -2z"/>
<path d="M5585 10379 c-20 -37 -10 -49 40 -49 47 0 61 14 49 47 -7 22 -17 29
-41 31 -27 3 -34 -2 -48 -29z"/>
<path d="M4719 10379 c-31 -31 -22 -63 20 -67 39 -4 51 9 51 56 0 28 -3 32
-25 32 -14 0 -34 -9 -46 -21z"/>
<path d="M5782 10367 c-17 -47 -15 -56 13 -69 19 -9 29 -8 50 6 26 17 37 70
12 60 -7 -2 -22 4 -32 16 -24 27 -29 26 -43 -13z"/>
<path d="M5362 10352 c-20 -15 -23 -24 -17 -54 12 -65 -31 -132 -110 -169 -57
-26 -72 -25 -72 8 0 15 -6 29 -12 31 -17 6 -13 22 10 41 17 14 19 21 10 43 -9
25 -12 26 -41 17 -17 -6 -35 -20 -41 -30 -8 -16 -5 -21 16 -31 31 -14 27 -32
-8 -36 -33 -4 -47 -28 -40 -65 5 -24 9 -28 29 -23 48 12 35 -18 -37 -85 -40
-38 -79 -69 -87 -69 -7 0 -61 -16 -119 -35 -58 -19 -113 -35 -122 -35 -25 0
-41 20 -41 52 0 25 -3 28 -34 28 -33 0 -35 -2 -43 -41 -9 -44 -19 -54 -67 -64
-15 -3 -52 -29 -82 -56 -50 -48 -55 -51 -92 -44 -43 7 -56 -2 -67 -46 -6 -23
-3 -27 19 -33 29 -7 32 -22 14 -61 -9 -20 -16 -25 -32 -19 -12 3 -34 7 -51 8
-29 1 -30 -1 -30 -39 0 -34 3 -40 23 -43 12 -2 22 -9 22 -16 0 -16 -42 -81
-79 -121 -44 -47 -61 -77 -61 -106 0 -34 36 -79 63 -79 11 0 47 -5 78 -12 54
-11 58 -14 61 -42 3 -28 7 -31 42 -34 l38 -3 -6 55 -7 56 43 0 c24 0 68 7 98
15 86 23 106 20 116 -16 14 -49 36 -57 72 -28 42 33 41 36 -13 73 -18 13 -18
16 -5 42 28 53 184 198 285 265 55 36 165 103 245 149 80 46 191 114 247 152
55 38 105 67 110 66 5 -2 26 11 46 29 29 25 37 40 37 65 0 53 -42 129 -100
181 -56 51 -70 56 -90 32 -7 -9 -23 -15 -34 -13 -19 3 -21 10 -21 78 0 68 -2
75 -20 77 -11 2 -30 -5 -43 -15z m191 -257 c44 -56 35 -81 -43 -124 -36 -19
-71 -43 -78 -53 -7 -10 -18 -16 -23 -12 -6 3 -27 -7 -47 -23 -20 -16 -71 -49
-112 -73 -41 -23 -88 -55 -105 -70 -16 -15 -52 -35 -79 -45 -26 -9 -77 -40
-113 -66 -35 -27 -88 -64 -116 -83 -29 -18 -99 -78 -156 -132 l-104 -98 -111
-28 c-61 -15 -135 -27 -163 -28 -50 0 -53 1 -53 25 0 17 8 29 25 37 16 7 25
19 25 33 0 14 14 33 35 49 43 33 59 62 86 163 26 98 53 141 96 159 18 8 33 19
33 24 0 6 11 10 24 10 14 0 31 7 40 15 8 9 33 15 58 15 24 0 49 5 56 12 8 8
15 8 25 -1 12 -9 29 -6 82 14 37 14 86 25 109 25 38 0 55 10 171 99 137 106
217 152 305 175 86 23 101 20 133 -19z"/>
<path d="M4733 10251 c-6 -16 -8 -32 -5 -35 3 -3 30 -6 59 -6 l54 0 -3 33 c-3
30 -5 32 -48 35 -42 3 -46 1 -57 -27z"/>
<path d="M4884 10253 c-2 -7 -6 -20 -9 -28 -9 -29 6 -45 41 -45 28 0 36 5 45
26 15 42 4 59 -37 59 -21 0 -38 -5 -40 -12z"/>
<path d="M1330 10221 c0 -6 -13 -11 -29 -11 -24 0 -29 -5 -35 -31 -9 -48 -9
-49 30 -49 47 0 70 13 82 49 9 24 7 30 -6 35 -10 3 -23 9 -29 12 -7 3 -13 1
-13 -5z"/>
<path d="M5720 10192 c0 -45 14 -62 51 -62 32 0 40 16 32 64 -5 34 -8 36 -44
36 -38 0 -39 -1 -39 -38z"/>
<path d="M4988 10175 c-22 -13 -48 -53 -36 -58 1 -1 14 -8 27 -16 22 -12 26
-11 43 9 21 25 24 80 6 80 -7 -1 -25 -7 -40 -15z"/>
<path d="M4573 10170 c-23 -9 -23 -28 0 -57 26 -34 103 2 95 44 -4 21 -58 28
-95 13z"/>
<path d="M2450 10101 c0 -48 9 -61 45 -61 25 0 34 5 39 23 10 36 7 43 -19 55
-45 21 -65 16 -65 -17z"/>
<path d="M4764 10092 c-67 -2 -85 -6 -100 -23 -31 -35 -9 -52 70 -55 56 -2 71
1 92 20 16 13 25 30 22 41 -3 18 -10 20 -84 17z"/>
<path d="M1123 10083 c-18 -7 -16 -62 2 -69 41 -16 100 37 72 65 -11 11 -52
14 -74 4z"/>
<path d="M2615 10066 c-14 -20 -14 -29 -4 -48 29 -55 69 -53 69 4 0 64 -36 88
-65 44z"/>
<path d="M4890 10030 c-6 -11 -17 -20 -25 -20 -21 0 -19 -34 3 -53 27 -24 44
-21 75 14 33 38 33 44 5 63 -30 21 -45 20 -58 -4z"/>
<path d="M2264 10025 c-4 -9 -1 -28 5 -42 10 -22 15 -24 49 -18 45 8 40 4 44
40 3 29 2 30 -45 33 -36 2 -49 -1 -53 -13z"/>
<path d="M4437 9974 l-22 -46 -47 6 c-55 8 -62 0 -53 -54 8 -47 19 -49 119
-24 l63 16 7 60 c5 51 3 63 -12 74 -26 20 -30 18 -55 -32z"/>
<path d="M1238 9961 c-16 -15 -28 -32 -28 -39 0 -15 33 -32 64 -32 20 0 27 7
34 33 18 65 -21 86 -70 38z"/>
<path d="M2041 9929 c-9 -27 -8 -34 7 -45 9 -7 27 -14 38 -14 36 0 47 53 17
76 -30 22 -50 16 -62 -17z"/>
<path d="M1828 9929 c-42 -24 -9 -62 49 -57 39 3 39 3 31 36 -7 26 -13 32 -36
32 -15 0 -35 -5 -44 -11z"/>
<path d="M1740 9915 c-6 -7 -10 -29 -8 -47 3 -29 7 -33 36 -36 37 -4 48 12 33
51 -13 34 -45 52 -61 32z"/>
<path d="M2437 9923 c-14 -13 -6 -53 12 -63 40 -21 98 29 68 59 -12 12 -70 15
-80 4z"/>
<path d="M946 9893 c-4 -8 -6 -25 -6 -38 0 -19 -6 -24 -32 -27 -28 -2 -34 -8
-36 -31 -4 -33 13 -57 39 -57 21 0 39 28 39 59 0 14 6 21 19 21 20 0 81 31 81
41 0 30 -94 59 -104 32z"/>
<path d="M2231 9896 c-22 -26 -10 -61 22 -64 35 -4 57 13 57 44 0 17 -6 24
-19 24 -11 0 -26 2 -34 5 -7 3 -19 -1 -26 -9z"/>
<path d="M2587 9875 c-22 -31 -10 -60 30 -70 20 -5 31 -2 40 11 19 26 16 40
-13 63 -33 26 -35 26 -57 -4z"/>
<path d="M1116 9839 c-35 -27 -33 -72 3 -77 42 -6 71 6 71 31 -1 68 -26 84
-74 46z"/>
<path d="M1295 9825 c-41 -40 -29 -75 24 -75 9 0 30 13 45 29 24 24 26 32 17
50 -16 29 -56 27 -86 -4z"/>
<path d="M2045 9832 c-32 -7 -45 -22 -45 -53 0 -22 6 -30 25 -35 41 -10 55 1
55 45 0 44 -5 50 -35 43z"/>
<path d="M5617 9777 c-23 -9 -27 -15 -22 -37 7 -31 31 -50 61 -50 28 0 31 6
40 58 6 41 6 42 -22 41 -16 -1 -42 -6 -57 -12z"/>
<path d="M1784 9761 c-16 -7 -20 -16 -16 -41 4 -30 6 -31 46 -28 40 3 41 4 41
38 0 30 -3 35 -25 37 -14 1 -34 -2 -46 -6z"/>
<path d="M2410 9719 c-9 -20 -10 -33 -3 -40 16 -16 64 -6 77 14 9 15 7 22 -13
38 -32 27 -47 24 -61 -12z"/>
<path d="M5460 9737 c-14 -7 -31 -25 -39 -41 -12 -25 -11 -30 7 -48 19 -20 19
-20 56 12 37 33 45 57 24 78 -15 15 -17 15 -48 -1z"/>
<path d="M1045 9732 c-33 -7 -65 -43 -65 -74 0 -25 3 -28 33 -28 42 0 67 26
67 68 0 35 -6 40 -35 34z"/>
<path d="M785 9695 c-14 -13 -25 -29 -25 -35 0 -13 43 -30 75 -30 20 0 25 7
31 36 11 57 -37 74 -81 29z"/>
<path d="M2030 9705 c-14 -8 -47 -15 -75 -15 -68 -1 -105 -16 -210 -85 -120
-80 -192 -154 -240 -245 -39 -73 -40 -78 -38 -165 l2 -90 -49 -34 c-28 -19
-50 -38 -50 -42 0 -18 53 -49 75 -43 19 5 24 1 30 -24 4 -19 0 -44 -9 -67 -24
-58 -21 -93 9 -101 14 -3 35 -4 48 0 20 5 25 0 36 -32 7 -20 24 -55 38 -77
l25 -40 101 6 c96 7 103 6 119 -15 14 -18 25 -21 75 -18 32 2 65 10 74 18 26
23 32 16 26 -27 -6 -49 -12 -56 -31 -40 -8 7 -32 11 -53 9 -37 -3 -38 -4 -36
-38 1 -33 33 -72 85 -105 9 -6 18 -31 22 -62 l7 -53 -41 -16 c-34 -14 -40 -20
-40 -46 0 -30 0 -30 43 -24 l44 7 20 -83 c12 -46 36 -121 54 -168 l34 -85 90
-48 c49 -26 100 -58 113 -71 l24 -23 -26 -26 c-14 -14 -26 -35 -26 -47 0 -17
6 -20 39 -20 40 0 51 11 51 50 0 40 24 31 85 -33 51 -54 61 -70 58 -93 -2 -16
3 -37 11 -47 13 -16 19 -17 55 -6 35 10 43 10 59 -4 73 -66 221 -79 372 -33
225 69 231 70 263 51 28 -17 31 -17 101 10 39 15 84 39 99 54 69 63 142 272
138 396 0 17 6 51 15 76 16 45 16 47 -10 114 -15 37 -30 92 -33 122 -3 30 -11
56 -17 58 -6 2 -22 6 -36 9 -14 3 -56 31 -93 61 -59 47 -74 55 -110 55 -23 0
-95 16 -159 37 -122 39 -133 47 -142 109 -2 13 -15 21 -45 26 -48 8 -126 72
-291 239 -58 58 -116 110 -129 114 -14 4 -40 22 -59 41 l-34 33 31 38 c86 108
111 253 53 317 -11 12 -22 33 -26 48 -3 15 -13 34 -23 43 -15 15 -17 14 -36
-17 -12 -18 -22 -35 -24 -37 -8 -11 -68 27 -98 62 -39 45 -42 59 -19 77 8 8
14 25 12 39 -4 34 -38 39 -81 12 -33 -20 -34 -20 -83 -2 -70 27 -134 33 -164
16z m155 -94 c37 -17 64 -40 112 -98 22 -26 186 -113 214 -113 19 0 20 -4 14
-52 -10 -75 -36 -130 -87 -178 -58 -57 -154 -120 -182 -120 -12 0 -51 -18 -87
-40 -35 -22 -97 -59 -138 -83 -41 -23 -106 -72 -146 -109 -60 -55 -80 -67
-118 -73 -119 -18 -202 86 -229 285 -21 160 15 300 103 395 59 64 207 160 282
184 83 26 207 27 262 2z m363 -659 c1 -4 -7 -19 -18 -32 -24 -28 -26 -58 -4
-67 22 -8 65 14 71 37 7 27 11 25 50 -12 38 -36 41 -48 14 -48 -26 0 -39 -19
-47 -70 -4 -23 -15 -51 -26 -62 -19 -19 -14 -42 15 -66 18 -16 31 -1 52 59 26
73 66 104 105 79 12 -8 9 -15 -19 -44 -31 -32 -33 -38 -23 -61 15 -32 21 -31
67 5 21 17 43 30 49 30 5 0 36 -28 68 -62 53 -57 58 -67 58 -107 0 -42 20 -81
41 -81 5 0 15 13 24 29 13 26 18 29 43 22 59 -17 112 -51 112 -72 0 -11 7 -34
16 -51 15 -29 15 -33 -15 -92 -34 -66 -48 -175 -24 -183 21 -7 50 32 57 78 4
24 14 55 22 68 10 15 14 35 10 55 -6 33 7 103 21 116 4 5 19 6 33 4 23 -5 25
-9 22 -50 -3 -37 -1 -44 14 -44 10 0 28 10 40 21 28 26 54 19 54 -15 0 -14 7
-29 16 -34 14 -8 12 -13 -14 -43 -34 -39 -38 -53 -28 -91 9 -32 45 -38 66 -13
12 15 16 117 5 135 -3 6 -2 10 4 10 13 0 71 -87 71 -106 0 -8 -9 -22 -20 -31
-19 -17 -19 -17 0 -51 11 -18 20 -42 20 -53 0 -18 -4 -21 -39 -23 -8 -1 -18
-14 -22 -29 -4 -16 -12 -34 -17 -40 -15 -19 4 -56 33 -63 28 -7 33 -34 12 -72
-12 -20 -15 -21 -32 -7 -28 20 -32 19 -50 -15 -14 -28 -14 -33 0 -52 8 -13 15
-34 15 -49 0 -40 -45 -56 -162 -61 l-97 -3 -3 45 c-2 35 -7 46 -22 48 -27 5
-46 -24 -46 -69 0 -73 -23 -88 -75 -47 -27 21 -29 21 -39 4 -28 -46 -49 -66
-71 -66 -23 0 -24 3 -22 53 2 48 0 52 -21 55 -34 5 -59 -23 -67 -75 -9 -62
-24 -43 -35 42 -7 54 -5 72 8 95 15 27 15 30 -2 49 -23 26 -27 26 -55 2 -21
-19 -22 -21 -6 -51 16 -31 12 -46 -32 -119 -1 -2 -18 7 -38 19 -33 20 -36 26
-31 54 16 81 18 114 7 120 -15 10 -61 -38 -61 -63 0 -26 -17 -36 -35 -21 -19
16 -19 50 0 77 14 19 13 22 -13 32 -15 6 -52 10 -82 9 -30 -1 -65 4 -77 11
-28 15 -30 47 -3 61 25 13 25 25 1 55 -16 22 -20 23 -39 9 -11 -8 -23 -27 -27
-44 -6 -27 -8 -28 -33 -19 -44 17 -109 88 -138 152 -32 73 -41 164 -24 238 12
50 12 53 -9 70 -23 19 -28 39 -9 39 23 0 58 43 58 72 0 26 -3 28 -36 28 l-36
0 6 38 c11 59 46 162 79 227 37 74 108 185 130 204 15 12 17 9 17 -32 0 -51
24 -72 48 -40 13 17 14 17 28 -1 8 -11 14 -25 14 -32 0 -20 24 -23 46 -5 23
18 19 46 -10 70 -13 11 -17 11 -22 -3 -10 -26 -21 -18 -28 19 -4 19 -11 35
-16 35 -19 0 -10 27 13 37 18 9 34 4 92 -27 38 -21 71 -43 73 -48z m-568 -194
c0 -16 -31 -48 -47 -48 -21 0 -15 36 10 53 23 15 37 14 37 -5z"/>
<path d="M2348 8838 c-37 -30 -27 -81 16 -83 21 0 30 5 38 24 20 54 -14 91
-54 59z"/>
<path d="M2517 8818 c-18 -14 -37 -59 -37 -89 0 -15 7 -19 35 -19 29 0 37 5
46 27 12 33 3 93 -15 93 -6 0 -20 -6 -29 -12z"/>
<path d="M2224 8795 c-15 -23 -15 -27 0 -50 10 -15 22 -23 29 -19 32 18 47 40
47 66 0 24 -4 28 -30 28 -20 0 -35 -8 -46 -25z"/>
<path d="M2296 8687 c-27 -20 -18 -61 15 -65 34 -4 68 32 53 56 -14 22 -44 26
-68 9z"/>
<path d="M2141 8631 c-6 -11 -11 -29 -11 -40 0 -16 6 -21 28 -21 33 0 65 30
60 57 -5 27 -63 30 -77 4z"/>
<path d="M2425 8618 c-12 -29 -12 -34 2 -45 26 -20 49 -15 61 12 21 46 16 65
-18 65 -25 0 -34 -6 -45 -32z"/>
<path d="M2724 8600 c-25 -10 -54 -47 -54 -69 0 -15 28 -40 45 -41 16 0 45 54
45 83 0 31 -8 37 -36 27z"/>
<path d="M2246 8577 c-22 -16 -26 -94 -6 -108 21 -13 60 34 60 71 0 36 -29 55
-54 37z"/>
<path d="M2539 8574 c-16 -19 -1 -48 27 -51 21 -3 59 41 49 57 -10 16 -61 12
-76 -6z"/>
<path d="M2822 8574 c-26 -18 -30 -69 -6 -78 46 -18 94 16 94 66 0 25 -4 28
-33 28 -18 0 -43 -7 -55 -16z"/>
<path d="M2377 8492 c-24 -27 -21 -59 8 -78 35 -23 55 -5 55 52 0 39 -2 44
-23 44 -13 0 -31 -8 -40 -18z"/>
<path d="M2477 8463 c-25 -24 14 -100 46 -88 17 7 21 33 11 73 -6 21 -42 31
-57 15z"/>
<path d="M2770 8433 c0 -65 9 -82 40 -81 42 1 56 32 34 79 -14 32 -22 39 -46
39 -26 0 -28 -3 -28 -37z"/>
<path d="M2625 8434 c-23 -23 -16 -76 10 -80 30 -4 45 15 45 57 0 32 -4 39
-19 39 -11 0 -27 -7 -36 -16z"/>
<path d="M3082 8421 c-37 -31 -25 -107 14 -99 26 5 47 52 39 88 -8 35 -23 38
-53 11z"/>
<path d="M2183 8398 c-34 -16 -32 -65 3 -78 14 -6 27 -10 29 -10 11 0 46 73
41 85 -6 17 -41 18 -73 3z"/>
<path d="M2905 8379 c-5 -23 -3 -34 12 -44 26 -20 36 -18 62 9 34 36 21 66
-29 66 -35 0 -39 -3 -45 -31z"/>
<path d="M2308 8340 c-29 -30 -30 -32 -13 -50 10 -11 31 -20 46 -20 24 0 28 5
34 40 11 68 -16 80 -67 30z"/>
<path d="M2432 8294 c-17 -12 -22 -24 -20 -47 3 -27 8 -33 32 -35 35 -4 46 10
46 61 0 42 -19 49 -58 21z"/>
<path d="M2590 8297 c-19 -9 -26 -22 -28 -50 -3 -37 -2 -38 25 -35 23 2 30 10
37 41 12 46 0 61 -34 44z"/>
<path d="M2725 8292 c-3 -7 -5 -28 -5 -47 0 -27 5 -35 30 -45 17 -7 33 -10 36
-7 4 3 7 30 8 59 l1 53 -32 0 c-19 1 -35 -5 -38 -13z"/>
<path d="M3313 8288 c-4 -7 -10 -42 -14 -78 -5 -48 -12 -68 -28 -81 -24 -20
-27 -46 -7 -71 17 -23 29 -23 51 2 14 16 16 29 11 66 -5 41 -3 48 19 66 27 21
32 56 15 89 -12 22 -35 25 -47 7z"/>
<path d="M2870 8260 c-24 -24 -27 -82 -5 -100 23 -19 49 -7 69 33 15 31 16 44
7 63 -13 29 -44 31 -71 4z"/>
<path d="M3032 8268 c-22 -28 -22 -55 -2 -79 l20 -24 20 24 c11 13 20 38 20
57 0 29 -3 34 -24 34 -13 0 -28 -6 -34 -12z"/>
<path d="M2170 8252 c0 -5 -11 -14 -25 -20 -30 -14 -32 -41 -5 -65 23 -19 40
-22 40 -7 0 6 6 10 14 10 20 0 29 58 12 76 -16 15 -36 19 -36 6z"/>
<path d="M2266 8219 c-41 -32 -29 -79 21 -79 17 0 23 7 29 35 7 37 1 65 -14
65 -5 0 -21 -9 -36 -21z"/>
<path d="M3020 8150 c0 -5 -6 -10 -14 -10 -9 0 -15 -15 -18 -45 l-3 -46 35 3
c19 2 34 6 33 10 -1 4 2 22 7 39 8 26 6 35 -8 45 -21 16 -32 17 -32 4z"/>
<path d="M2692 8137 c-20 -24 -24 -63 -8 -76 22 -19 49 -9 60 21 8 22 6 32 -9
48 -21 23 -29 25 -43 7z"/>
<path d="M2364 8114 c-7 -28 11 -74 31 -81 6 -2 19 3 30 11 16 12 18 19 10 52
-8 32 -15 40 -37 42 -23 3 -29 -2 -34 -24z"/>
<path d="M2507 8133 c-4 -3 -7 -16 -7 -29 0 -17 9 -25 33 -33 19 -7 41 -9 50
-5 20 7 22 45 5 62 -13 13 -70 17 -81 5z"/>
<path d="M2236 8085 c-3 -8 -12 -15 -21 -15 -24 0 -18 -44 9 -69 l24 -22 16
22 c19 28 21 70 4 87 -16 16 -25 15 -32 -3z"/>
<path d="M2826 8084 c-24 -24 -19 -48 13 -62 24 -11 33 -11 50 0 24 15 37 41
22 46 -6 2 -11 10 -11 18 0 19 -54 18 -74 -2z"/>
<path d="M3112 8051 c-21 -37 -21 -39 -4 -55 37 -33 62 -15 62 43 0 25 -15 51
-30 51 -4 0 -16 -17 -28 -39z"/>
<path d="M3364 8066 c-9 -36 -1 -68 19 -80 25 -15 47 16 47 66 0 36 -2 38 -30
38 -23 0 -31 -5 -36 -24z"/>
<path d="M3215 8007 c-10 -16 -14 -34 -9 -51 9 -36 20 -40 49 -19 20 14 25 25
23 53 -4 45 -38 54 -63 17z"/>
<path d="M2481 7980 c-23 -53 20 -79 67 -41 26 23 28 34 6 55 -26 26 -57 20
-73 -14z"/>
<path d="M2655 7980 c-10 -11 -20 -41 -23 -70 -5 -55 1 -60 52 -40 21 8 26 16
25 42 -1 44 -12 81 -25 85 -6 2 -19 -6 -29 -17z"/>
<path d="M2946 7954 c-34 -33 -14 -87 29 -82 50 5 59 98 10 98 -13 0 -31 -7
-39 -16z"/>
<path d="M3357 7938 c-9 -7 -19 -25 -22 -40 -6 -23 -3 -28 19 -34 50 -12 72
18 46 67 -12 22 -20 24 -43 7z"/>
<path d="M2792 7929 c-21 -8 -42 -44 -42 -73 0 -20 46 -25 70 -9 13 9 20 25
20 47 0 38 -14 48 -48 35z"/>
<path d="M3067 7902 c-32 -33 -34 -53 -9 -75 27 -25 36 -21 60 21 l22 39 -23
21 -23 22 -27 -28z"/>
<path d="M3170 7851 c-22 -42 -2 -87 37 -79 19 4 39 58 30 82 -9 23 -54 20
-67 -3z"/>
<path d="M2940 7813 c0 -7 -9 -13 -20 -13 -16 0 -20 -7 -20 -33 0 -33 24 -67
48 -67 14 0 32 32 32 58 0 21 -39 75 -40 55z"/>
<path d="M3306 7780 c-28 -34 -33 -59 -14 -78 34 -34 72 8 66 72 -4 41 -21 43
-52 6z"/>
<path d="M3010 7754 c-23 -68 12 -111 53 -66 21 23 22 51 1 80 -22 32 -41 27
-54 -14z"/>
<path d="M1381 9684 c-41 -40 -15 -83 52 -84 13 0 17 8 17 36 0 41 -15 74 -33
73 -7 -1 -23 -12 -36 -25z"/>
<path d="M1129 9649 l-33 -31 23 -19 c30 -24 63 -24 85 0 20 22 13 44 -19 65
-22 15 -25 14 -56 -15z"/>
<path d="M2540 9658 c1 -45 13 -58 51 -58 36 0 39 2 39 29 0 31 -14 41 -61 41
-17 0 -29 -5 -29 -12z"/>
<path d="M2707 9642 c-10 -10 -17 -26 -17 -34 0 -49 31 -62 70 -30 21 17 21
18 3 50 -21 37 -33 40 -56 14z"/>
<path d="M1533 9612 c-16 -13 -20 -24 -16 -45 3 -17 11 -26 18 -23 7 2 17 0
23 -6 8 -8 17 -4 31 13 25 30 26 42 3 62 -23 21 -31 21 -59 -1z"/>
<path d="M903 9580 c-36 -33 -39 -46 -19 -73 22 -29 66 -19 89 20 18 31 18 32
-4 57 -13 14 -25 26 -28 26 -3 0 -21 -14 -38 -30z"/>
<path d="M5156 9582 c-8 -25 9 -72 27 -72 25 0 57 31 57 56 0 19 -5 24 -24 24
-13 0 -31 3 -39 6 -10 3 -18 -2 -21 -14z"/>
<path d="M691 9561 c-21 -14 -2 -75 25 -79 45 -7 98 67 58 82 -23 9 -67 7 -83
-3z"/>
<path d="M1261 9506 l-23 -25 25 -25 c15 -14 33 -26 41 -26 20 0 36 31 36 69
0 27 -3 31 -28 31 -17 0 -38 -10 -51 -24z"/>
<path d="M1042 9509 c-12 -5 -27 -21 -33 -36 -8 -22 -7 -30 7 -40 28 -21 67
-15 87 12 31 42 -9 83 -61 64z"/>
<path d="M3982 9464 c-42 -39 -40 -68 4 -72 21 -2 38 4 58 23 21 20 31 23 41
15 8 -6 29 -10 47 -8 28 3 33 7 36 32 5 38 -10 45 -88 43 -58 -1 -68 -4 -98
-33z"/>
<path d="M2900 9477 c-49 -25 -33 -77 24 -77 49 0 70 20 61 58 -5 26 -11 32
-33 32 -15 0 -38 -6 -52 -13z"/>
<path d="M628 9411 c-22 -47 -22 -48 1 -60 13 -7 29 -7 50 0 25 9 31 17 31 40
0 21 -7 32 -30 44 -16 8 -30 15 -32 15 -2 0 -11 -18 -20 -39z"/>
<path d="M816 9428 c-20 -28 -20 -59 -1 -84 8 -10 15 -15 15 -10 0 5 7 3 15
-4 22 -19 45 5 45 47 0 68 -42 97 -74 51z"/>
<path d="M1380 9419 c-18 -42 -3 -64 41 -64 33 0 34 1 37 48 l3 47 -34 0 c-29
0 -37 -5 -47 -31z"/>
<path d="M3270 9440 c0 -5 -7 -7 -15 -4 -23 9 -19 -38 6 -67 15 -18 24 -21 36
-13 32 20 38 40 20 68 -17 25 -47 36 -47 16z"/>
<path d="M5128 9439 c-41 -23 -8 -89 44 -89 41 0 51 47 18 80 -22 22 -37 24
-62 9z"/>
<path d="M2668 9429 c-12 -6 -18 -22 -18 -44 0 -31 3 -35 25 -35 27 0 65 32
65 55 0 14 -29 35 -47 35 -4 0 -16 -5 -25 -11z"/>
<path d="M4866 9408 c-9 -12 -16 -27 -16 -33 0 -12 59 -37 70 -30 4 2 13 -7
20 -20 25 -47 90 -25 90 29 0 9 -16 20 -41 28 -23 6 -46 20 -53 30 -15 25 -52
23 -70 -4z"/>
<path d="M3820 9365 c-19 -20 -45 -38 -58 -42 -18 -4 -21 -10 -16 -27 10 -33
24 -46 51 -46 19 0 28 8 40 40 14 36 20 40 50 40 31 0 33 2 33 35 0 33 -2 35
-33 35 -25 0 -42 -9 -67 -35z"/>
<path d="M3060 9345 c0 -32 2 -35 30 -35 19 0 33 7 40 21 17 32 5 49 -35 49
-33 0 -35 -2 -35 -35z"/>
<path d="M1171 9356 c-23 -27 -18 -67 12 -89 33 -26 47 -15 49 38 1 26 -4 42
-17 51 -24 17 -30 17 -44 0z"/>
<path d="M3590 9340 c0 -5 -9 -10 -21 -10 -17 0 -20 -5 -17 -32 3 -29 7 -33
36 -36 59 -6 81 34 40 69 -26 21 -38 24 -38 9z"/>
<path d="M3453 9333 c-18 -7 -16 -38 3 -57 26 -27 50 -19 61 19 10 31 9 35 -7
35 -10 0 -24 2 -32 4 -7 3 -19 2 -25 -1z"/>
<path d="M922 9299 c-22 -27 -22 -29 -6 -54 19 -29 40 -32 72 -9 33 23 26 64
-13 80 -28 10 -32 9 -53 -17z"/>
<path d="M3940 9312 c-17 -13 -21 -24 -16 -40 6 -18 15 -22 47 -22 32 0 41 4
49 23 6 17 4 26 -12 40 -26 22 -40 22 -68 -1z"/>
<path d="M2737 9298 c-7 -26 17 -68 38 -68 8 0 15 4 15 9 0 5 10 11 23 13 16
2 23 11 25 33 3 29 2 30 -46 33 -44 2 -50 0 -55 -20z"/>
<path d="M1271 9235 c-27 -31 -29 -38 -19 -60 12 -26 45 -34 65 -14 13 13 33
4 33 -17 0 -9 10 -14 29 -14 44 0 61 10 61 34 0 31 -19 46 -57 46 -25 0 -33 4
-33 18 0 21 -18 42 -36 42 -7 0 -26 -16 -43 -35z"/>
<path d="M750 9231 c-16 -41 1 -71 40 -71 22 0 33 7 43 27 14 25 13 28 -20 50
-43 29 -48 29 -63 -6z"/>
<path d="M2978 9220 c-84 -51 -133 -107 -148 -172 -12 -48 -11 -50 17 -86 17
-20 37 -52 47 -69 9 -18 21 -33 27 -33 6 0 24 -11 41 -25 36 -31 71 -32 146
-4 31 12 86 32 121 44 35 12 72 32 82 44 29 35 40 88 29 137 -17 76 -28 91
-73 98 -55 9 -124 40 -169 76 -20 17 -40 30 -45 30 -4 -1 -38 -19 -75 -40z
m137 -109 c34 -22 84 -46 110 -53 l47 -14 -43 -38 c-98 -84 -176 -99 -257 -49
-48 29 -64 64 -45 97 7 13 109 92 122 95 2 1 32 -17 66 -38z"/>
<path d="M6688 9236 c-20 -46 7 -70 53 -46 35 19 13 70 -31 70 -6 0 -15 -11
-22 -24z"/>
<path d="M6864 9236 c-3 -14 -4 -33 0 -41 8 -22 50 -18 72 6 24 27 9 53 -34
57 -26 3 -32 -1 -38 -22z"/>
<path d="M600 9231 c-16 -30 -12 -59 10 -81 24 -24 36 -25 44 -4 12 30 6 71
-12 87 -24 22 -29 21 -42 -2z"/>
<path d="M6250 9196 c0 -25 3 -47 8 -49 4 -2 23 -2 44 0 29 4 38 10 43 30 8
35 -19 63 -62 63 -32 0 -33 -1 -33 -44z"/>
<path d="M6396 9224 c-20 -20 -20 -43 0 -72 28 -40 54 -23 54 37 0 26 -16 51
-31 51 -4 0 -15 -7 -23 -16z"/>
<path d="M4930 9212 c-18 -14 -20 -22 -11 -43 14 -39 40 -44 69 -15 51 50 -1
104 -58 58z"/>
<path d="M3314 9206 c-13 -34 0 -51 44 -54 47 -4 61 12 42 47 -13 25 -77 30
-86 7z"/>
<path d="M1073 9184 c-32 -14 -52 -51 -38 -73 7 -12 47 -14 83 -4 21 5 23 10
18 37 -10 46 -25 56 -63 40z"/>
<path d="M2588 9175 c-10 -22 -9 -29 10 -47 18 -18 26 -20 49 -12 36 12 42 47
11 68 -32 23 -57 20 -70 -9z"/>
<path d="M3763 9144 c-28 -43 5 -74 63 -60 37 10 49 41 24 66 -28 28 -66 26
-87 -6z"/>
<path d="M4525 9139 c-4 -5 -17 -14 -30 -19 -13 -5 -29 -18 -35 -29 -8 -17 -7
-24 10 -41 11 -11 26 -20 34 -20 22 0 66 51 66 76 0 26 -34 51 -45 33z"/>
<path d="M3596 9111 c-26 -29 -17 -54 24 -62 40 -9 50 1 50 49 0 29 -3 32 -28
32 -16 0 -37 -9 -46 -19z"/>
<path d="M4097 9103 c-13 -29 0 -57 29 -61 33 -4 47 12 40 46 -10 41 -52 51
-69 15z"/>
<path d="M1188 9066 c-18 -49 -11 -66 29 -66 34 0 49 39 32 76 -22 44 -42 41
-61 -10z"/>
<path d="M3917 9087 c-10 -16 -11 -30 -4 -52 15 -48 25 -56 53 -43 33 15 39
43 15 70 -12 12 -21 25 -21 29 0 18 -30 15 -43 -4z"/>
<path d="M6688 9090 c-15 -9 -15 -15 -4 -53 10 -37 15 -42 41 -42 27 0 30 4
33 33 2 22 -3 41 -14 53 -19 21 -31 23 -56 9z"/>
<path d="M574 9065 c-3 -8 -2 -27 3 -42 8 -23 15 -28 43 -28 28 0 35 5 43 29
8 24 6 32 -9 43 -24 17 -73 17 -80 -2z"/>
<path d="M3442 9062 c-3 -8 1 -27 9 -41 12 -20 23 -26 49 -26 30 0 35 4 38 26
2 15 -4 31 -13 39 -23 19 -76 20 -83 2z"/>
<path d="M6265 9060 c-25 -28 -13 -50 29 -50 37 0 63 28 52 56 -8 21 -60 17
-81 -6z"/>
<path d="M6556 9064 c-33 -32 -13 -74 36 -74 22 0 28 4 28 23 -1 63 -29 86
-64 51z"/>
<path d="M6877 9031 c-17 -29 -17 -30 4 -44 16 -12 28 -13 50 -5 16 5 29 12
29 14 0 11 -24 54 -31 54 -4 0 -13 2 -21 5 -8 3 -21 -7 -31 -24z"/>
<path d="M4693 9039 c-39 -15 -59 -83 -27 -96 18 -7 70 39 77 68 7 24 -20 39
-50 28z"/>
<path d="M6391 9017 c-11 -29 0 -58 27 -68 16 -6 24 -2 36 16 22 34 21 39 -19
58 -35 17 -36 17 -44 -6z"/>
<path d="M6090 8966 c-10 -25 -22 -61 -26 -81 -6 -34 -5 -35 24 -35 25 0 34 7
57 45 35 61 32 109 -8 113 -24 3 -29 -2 -47 -42z"/>
<path d="M3762 8958 c3 -38 6 -43 30 -46 18 -2 31 4 42 20 21 30 20 48 -3 48
-11 0 -23 5 -26 10 -3 6 -15 10 -26 10 -17 0 -20 -6 -17 -42z"/>
<path d="M1301 8953 c-6 -21 -11 -53 -11 -70 0 -29 3 -33 25 -33 34 0 62 31
71 76 8 42 -11 64 -52 64 -18 0 -25 -8 -33 -37z"/>
<path d="M3620 8953 c-23 -9 -50 -35 -50 -49 0 -16 60 -29 95 -20 34 9 36 61
3 70 -26 7 -27 6 -48 -1z"/>
<path d="M4397 8940 c-9 -11 -26 -20 -37 -20 -23 0 -25 -17 -6 -42 16 -22 38
-23 77 -2 35 18 36 49 4 70 -18 12 -23 11 -38 -6z"/>
<path d="M6245 8938 c-3 -8 -7 -28 -8 -44 -2 -27 1 -29 38 -32 37 -3 41 -1 53
30 14 38 8 47 -41 55 -27 4 -38 2 -42 -9z"/>
<path d="M4100 8895 c-32 -34 -96 -56 -166 -58 l-59 -2 0 -46 c0 -37 -6 -52
-32 -82 -44 -51 -57 -103 -49 -212 6 -96 68 -357 85 -363 32 -11 55 -42 60
-83 7 -49 -1 -46 106 -34 64 8 81 -3 68 -41 -12 -36 -7 -54 16 -54 24 0 41 20
41 46 0 30 7 33 62 25 63 -10 244 4 312 23 58 17 116 58 116 82 0 8 10 24 22
36 19 19 22 36 27 147 8 147 1 195 -33 245 -13 20 -28 51 -31 69 -10 43 -16
50 -91 94 -35 20 -64 40 -64 44 0 4 7 12 15 19 8 7 15 23 15 36 0 21 -4 24
-41 24 l-41 0 6 -35 c7 -35 7 -35 -31 -35 -28 0 -45 8 -69 31 -17 16 -58 41
-90 54 -43 16 -66 33 -83 59 -29 43 -40 44 -71 11z m81 -120 c24 -9 82 -43
129 -77 62 -46 93 -63 120 -64 43 -2 122 -25 133 -39 4 -5 12 -27 18 -48 5
-22 20 -57 31 -79 18 -35 20 -52 16 -146 -4 -80 -11 -120 -28 -159 l-22 -52
-77 -18 c-102 -24 -291 -23 -381 1 -50 14 -146 48 -167 61 -1 0 -19 57 -39
126 -44 148 -55 264 -30 322 8 21 46 71 83 112 67 74 68 75 119 75 28 0 70 -7
95 -15z"/>
<path d="M6690 8890 c0 -28 49 -78 60 -60 4 7 13 9 19 6 7 -5 11 2 11 18 0 45
-10 56 -51 56 -33 0 -39 -3 -39 -20z"/>
<path d="M6551 8874 c-26 -33 -26 -50 -2 -64 34 -18 48 -12 55 24 12 65 -16
87 -53 40z"/>
<path d="M1092 8858 c3 -29 7 -33 33 -33 21 0 33 7 42 24 16 33 9 41 -38 41
-39 0 -40 -1 -37 -32z"/>
<path d="M6860 8853 c0 -29 24 -73 40 -73 22 0 37 30 31 62 -6 28 -11 33 -39
36 -29 3 -32 1 -32 -25z"/>
<path d="M3342 8838 c-19 -19 -14 -36 13 -54 21 -14 31 -15 50 -6 44 20 26 72
-25 72 -14 0 -31 -5 -38 -12z"/>
<path d="M6381 8828 c-11 -30 -3 -56 22 -70 16 -8 23 -7 34 8 16 22 16 39 3
65 -14 26 -49 24 -59 -3z"/>
<path d="M3706 8797 c-9 -12 -13 -32 -9 -45 8 -32 57 -30 79 3 16 24 16 27 -1
45 -24 26 -51 25 -69 -3z"/>
<path d="M6100 8783 c-8 -3 -26 -14 -39 -24 -13 -11 -39 -19 -57 -19 -32 0
-34 -2 -34 -35 0 -35 31 -67 45 -45 3 5 31 17 61 26 l54 15 0 45 c0 44 -2 47
-30 37z"/>
<path d="M4703 8743 c9 -52 19 -56 57 -25 45 38 37 62 -21 62 l-42 0 6 -37z"/>
<path d="M3515 8744 c-52 -56 -14 -105 55 -69 27 14 31 20 25 43 -14 58 -42
67 -80 26z"/>
<path d="M6193 8763 c-18 -7 -16 -58 2 -73 13 -11 22 -10 50 3 70 33 20 100
-52 70z"/>
<path d="M1427 8722 c-24 -27 -22 -72 2 -72 35 0 69 18 76 40 14 44 -45 68
-78 32z"/>
<path d="M6671 8726 c-10 -11 -9 -21 3 -44 12 -24 20 -29 38 -25 34 9 48 23
48 48 0 33 -66 49 -89 21z"/>
<path d="M6527 8723 c-20 -19 10 -123 35 -123 13 0 28 37 28 68 0 40 -42 77
-63 55z"/>
<path d="M3155 8700 c-16 -25 34 -80 72 -80 9 0 48 60 41 64 -36 24 -102 33
-113 16z"/>
<path d="M6351 8686 c-17 -18 -22 -32 -17 -50 9 -35 54 -35 79 -1 17 23 17 26
1 50 -20 31 -34 32 -63 1z"/>
<path d="M6831 8654 c-25 -32 -26 -36 -3 -64 16 -19 21 -20 45 -9 21 9 27 19
27 44 0 57 -35 72 -69 29z"/>
<path d="M1697 8602 c-33 -24 -37 -31 -33 -60 4 -30 1 -34 -37 -54 -23 -11
-75 -43 -114 -70 -40 -26 -84 -53 -98 -58 -22 -8 -25 -16 -25 -54 0 -53 8 -76
25 -76 7 0 48 -26 90 -57 61 -46 91 -61 145 -74 59 -13 73 -14 100 -2 18 7 50
13 71 13 37 0 39 2 69 62 16 35 30 68 30 74 0 6 -20 54 -43 105 -24 52 -49
107 -55 122 -7 17 -24 32 -43 39 -25 9 -29 14 -24 32 16 52 17 68 4 77 -19 12
-19 12 -62 -19z m59 -180 c5 -4 16 -21 23 -39 7 -17 24 -46 37 -64 31 -43 31
-83 -2 -116 -24 -24 -30 -25 -99 -21 -81 5 -163 39 -205 83 l-23 25 24 26 c71
77 204 134 245 106z"/>
<path d="M3351 8606 c-34 -36 -25 -60 24 -64 35 -2 42 1 53 25 16 37 15 43 -7
43 -11 0 -23 5 -26 10 -9 15 -19 12 -44 -14z"/>
<path d="M3663 8619 c-36 -11 -38 -16 -21 -54 13 -30 47 -33 71 -7 20 22 22
43 5 60 -14 14 -12 14 -55 1z"/>
<path d="M5807 8623 c-13 -3 -16 -11 -11 -31 10 -39 12 -42 44 -42 46 0 60 10
60 41 0 21 -5 29 -17 29 -10 0 -27 2 -38 4 -11 2 -28 2 -38 -1z"/>
<path d="M4768 8609 c-10 -5 -18 -21 -18 -34 0 -21 5 -25 29 -25 30 0 61 30
61 57 0 15 -47 17 -72 2z"/>
<path d="M4927 8580 c-19 -31 -6 -60 27 -60 12 0 33 -11 46 -25 28 -30 55 -32
70 -6 16 30 13 37 -26 60 -20 12 -38 30 -41 41 -8 30 -57 23 -76 -10z"/>
<path d="M5622 8598 c-7 -7 -12 -27 -12 -44 0 -28 4 -33 27 -36 22 -2 29 -10
34 -36 9 -44 14 -48 44 -32 35 19 32 50 -10 100 -19 23 -35 46 -35 51 0 13
-34 11 -48 -3z"/>
<path d="M5973 8589 c-44 -28 -49 -51 -19 -83 l24 -27 31 40 c35 44 37 56 17
77 -17 17 -13 17 -53 -7z"/>
<path d="M6110 8570 c-33 -33 -22 -100 17 -100 28 0 63 48 63 85 0 32 -2 35
-30 35 -17 0 -39 -9 -50 -20z"/>
<path d="M1440 8514 c0 -28 3 -35 15 -31 8 4 17 2 20 -3 17 -28 80 18 70 50
-5 16 -15 20 -56 20 l-49 0 0 -36z"/>
<path d="M6633 8542 c-20 -13 -26 -60 -10 -77 14 -13 19 -12 47 11 38 32 38
68 0 72 -14 1 -30 -1 -37 -6z"/>
<path d="M6319 8528 c-35 -29 -41 -45 -24 -62 24 -24 62 -20 80 8 30 45 -16
87 -56 54z"/>
<path d="M6464 8484 c-21 -50 -11 -74 30 -74 26 0 35 6 45 26 15 34 7 58 -25
72 -34 16 -33 17 -50 -24z"/>
<path d="M5439 8463 c-3 -19 4 -49 13 -60 24 -30 67 -1 68 45 0 19 -5 22 -40
22 -22 0 -41 -3 -41 -7z"/>
<path d="M4806 8409 c-10 -53 -8 -59 25 -59 43 0 69 17 69 44 0 18 -8 27 -31
35 -48 17 -56 14 -63 -20z"/>
<path d="M5204 8374 c-8 -41 0 -51 44 -60 41 -8 51 14 29 62 -12 25 -23 34
-41 34 -21 0 -26 -6 -32 -36z"/>
<path d="M6260 8377 c-31 -16 -36 -70 -7 -75 53 -10 98 29 77 68 -12 23 -34
25 -70 7z"/>
<path d="M5350 8330 c-31 -31 -26 -57 12 -65 21 -5 33 -4 36 4 2 6 10 11 17
11 23 0 28 20 11 45 -20 30 -49 32 -76 5z"/>
<path d="M6555 8319 c-5 -23 -3 -34 12 -44 24 -19 29 -19 54 6 19 19 20 24 8
45 -8 16 -21 24 -40 24 -22 0 -29 -6 -34 -31z"/>
<path d="M5036 8316 c-7 -30 9 -76 27 -76 24 0 57 31 57 53 0 14 -10 27 -27
35 -39 17 -50 15 -57 -12z"/>
<path d="M3725 8268 c-14 -21 -14 -24 7 -40 35 -27 55 -22 63 13 11 50 -40 69
-70 27z"/>
<path d="M6371 8254 c-27 -35 -26 -50 5 -70 24 -16 26 -16 45 3 11 10 22 36
26 56 5 36 5 37 -25 37 -21 0 -37 -8 -51 -26z"/>
<path d="M5384 8211 c-28 -23 -30 -29 -21 -54 8 -25 13 -28 36 -22 32 7 51 31
51 62 0 38 -30 45 -66 14z"/>
<path d="M4756 8195 c-16 -43 -8 -55 37 -55 36 0 44 4 54 27 7 15 12 28 10 29
-1 1 -23 5 -48 9 -38 6 -47 4 -53 -10z"/>
<path d="M5200 8176 c0 -25 4 -36 15 -36 8 0 29 -16 46 -35 37 -40 49 -43 72
-17 25 28 21 41 -19 58 -20 8 -38 24 -41 35 -3 10 -10 19 -17 19 -6 0 -21 3
-33 6 -21 6 -23 3 -23 -30z"/>
<path d="M6461 8156 c-26 -28 -22 -59 10 -76 38 -21 77 24 67 77 -5 28 -50 28
-77 -1z"/>
<path d="M5041 8126 c-18 -32 -10 -60 17 -64 49 -7 70 44 30 72 -29 21 -32 20
-47 -8z"/>
<path d="M1343 8114 c-19 -8 -15 -42 7 -64 30 -30 62 -11 58 33 -2 26 -8 32
-28 34 -14 1 -31 -1 -37 -3z"/>
<path d="M6298 8099 c-12 -6 -18 -22 -18 -44 0 -30 4 -35 33 -43 28 -8 34 -6
49 17 10 14 18 38 18 54 0 24 -4 27 -32 27 -18 0 -41 -5 -50 -11z"/>
<path d="M5474 8056 c-40 -18 -48 -30 -34 -55 15 -29 48 -36 72 -15 33 31 40
51 22 68 -18 19 -20 19 -60 2z"/>
<path d="M1831 8046 c-17 -20 -10 -70 10 -74 8 -1 28 2 42 7 21 8 27 17 27 40
0 40 -53 58 -79 27z"/>
<path d="M3755 8007 c-15 -24 -12 -57 7 -57 5 0 23 7 39 16 22 11 29 21 27 37
-5 33 -52 36 -73 4z"/>
<path d="M5275 7994 c-8 -46 2 -56 51 -52 36 3 39 5 39 33 0 24 -5 31 -25 33
-14 2 -29 8 -34 13 -17 16 -24 10 -31 -27z"/>
<path d="M1566 7994 c-12 -30 -6 -53 16 -65 17 -9 24 -9 33 5 7 9 18 16 25 16
8 0 10 8 6 23 -3 12 -6 25 -6 30 0 15 -68 7 -74 -9z"/>
<path d="M4785 7971 c-15 -22 -36 -41 -48 -43 -16 -2 -22 -10 -23 -31 -1 -29
29 -56 41 -37 3 5 15 10 26 10 10 0 19 7 19 15 0 22 39 57 56 51 12 -5 15 2
12 32 -3 32 -7 37 -30 40 -22 3 -32 -4 -53 -37z"/>
<path d="M4510 7979 c-20 -35 -9 -62 27 -66 38 -5 47 8 39 53 -6 28 -11 34
-31 34 -14 0 -29 -9 -35 -21z"/>
<path d="M5165 7956 c-15 -23 -15 -27 1 -51 23 -35 58 -31 62 8 3 27 -20 67
-39 67 -5 0 -16 -11 -24 -24z"/>
<path d="M1997 7963 c-14 -14 -7 -74 9 -80 21 -8 48 9 52 31 6 31 -41 69 -61
49z"/>
<path d="M4940 7950 c-25 -25 -25 -32 -1 -54 12 -11 21 -13 25 -7 4 6 13 8 20
5 20 -8 29 12 21 46 -8 36 -35 40 -65 10z"/>
<path d="M1300 7926 c0 -13 8 -34 19 -47 18 -22 19 -22 45 -6 25 17 26 19 11
47 -12 23 -22 30 -45 30 -25 0 -30 -4 -30 -24z"/>
<path d="M6203 7939 c-23 -8 -40 -50 -28 -68 20 -34 90 8 83 50 -3 25 -22 31
-55 18z"/>
<path d="M4292 7905 c-6 -14 -17 -25 -24 -25 -6 0 -2 -11 11 -24 40 -42 91
-12 91 55 0 15 -7 19 -33 19 -26 0 -36 -6 -45 -25z"/>
<path d="M4606 7901 c-35 -37 -29 -58 20 -67 30 -5 40 -3 51 11 18 26 16 55
-4 71 -26 20 -36 17 -67 -15z"/>
<path d="M3912 7867 c-20 -56 -16 -67 23 -67 21 0 35 5 35 13 0 6 3 22 6 35 4
14 2 22 -7 22 -7 0 -20 7 -29 15 -15 13 -17 11 -28 -18z"/>
<path d="M1842 7828 c-7 -7 -12 -25 -12 -40 0 -25 3 -28 34 -28 43 0 49 9 35
49 -11 32 -36 40 -57 19z"/>
<path d="M1552 7818 c-15 -15 -16 -63 -2 -89 13 -23 46 -25 54 -3 17 45 1 104
-29 104 -6 0 -16 -5 -23 -12z"/>
<path d="M4434 7817 c-13 -15 -14 -47 -2 -47 4 0 8 -6 8 -14 0 -10 9 -14 28
-12 21 3 28 10 32 32 8 43 -38 72 -66 41z"/>
<path d="M4993 7816 c-27 -13 -28 -19 -8 -36 8 -7 15 -18 15 -24 0 -6 11 -11
25 -11 33 0 47 52 19 72 -20 15 -21 15 -51 -1z"/>
<path d="M3686 7788 c-9 -12 -16 -35 -16 -50 0 -24 4 -28 28 -28 35 0 59 25
64 65 3 27 0 30 -29 33 -23 2 -35 -3 -47 -20z"/>
<path d="M4051 7788 c-15 -5 -21 -13 -17 -24 3 -9 6 -21 6 -29 0 -9 9 -11 33
-6 25 5 33 12 35 33 4 29 -20 40 -57 26z"/>
<path d="M2090 7755 c1 -37 14 -55 41 -55 28 0 66 37 51 51 -12 12 -92 15 -92
4z"/>
<path d="M4680 7747 c0 -37 -11 -40 -41 -11 -51 49 -83 -3 -38 -60 l21 -27 24
22 c14 13 41 23 69 27 45 5 46 6 43 36 -3 28 -7 31 -40 34 -34 3 -38 1 -38
-21z"/>
<path d="M4234 7737 c-3 -8 -4 -28 -2 -44 2 -23 8 -29 34 -31 25 -2 33 2 43
24 14 32 3 49 -41 59 -20 5 -29 3 -34 -8z"/>
<path d="M4780 7741 c-13 -9 -13 -15 4 -46 15 -27 25 -35 48 -35 44 0 88 56
59 74 -19 12 -97 17 -111 7z"/>
<path d="M3831 7658 c-21 -47 -16 -60 23 -60 55 0 74 49 34 83 -32 26 -35 24
-57 -23z"/>
<path d="M4135 7659 c-12 -19 4 -59 24 -59 22 0 34 25 26 51 -7 20 -40 26 -50
8z"/>
<path d="M1790 7641 c-14 -28 -13 -38 8 -45 9 -3 25 -11 35 -18 21 -16 37 2
37 43 0 41 -60 56 -80 20z"/>
<path d="M3940 7631 c0 -28 14 -41 46 -41 9 0 14 11 14 35 0 32 -2 35 -30 35
-26 0 -30 -3 -30 -29z"/>
<path d="M4409 7616 c-5 -6 -9 -20 -9 -32 0 -17 7 -23 33 -27 17 -3 43 -8 57
-12 22 -6 28 -2 43 30 13 27 14 37 4 40 -27 9 -119 9 -128 1z"/>
<path d="M4036 7598 c-9 -12 -16 -26 -16 -30 0 -17 34 -38 61 -38 48 0 37 53
-18 84 -6 3 -19 -4 -27 -16z"/>
<path d="M4250 7595 c0 -14 13 -39 29 -57 29 -32 29 -33 50 -14 12 11 21 25
21 33 0 23 -47 63 -75 63 -20 0 -25 -5 -25 -25z"/>
<path d="M4600 7610 c-11 -7 -12 -15 -4 -37 8 -23 16 -29 47 -31 34 -3 37 -1
37 22 0 44 -43 69 -80 46z"/>
<path d="M3588 7574 c-24 -53 43 -86 69 -34 11 22 10 26 -6 32 -11 4 -22 11
-26 17 -11 18 -25 12 -37 -15z"/>
<path d="M4702 7582 c-7 -19 10 -64 25 -69 18 -6 53 34 53 61 0 21 -4 24 -36
23 -21 -1 -39 -7 -42 -15z"/>
<path d="M2214 7545 c-8 -32 -5 -35 45 -42 l41 -6 0 37 c0 35 -1 36 -40 36
-34 0 -41 -4 -46 -25z"/>
<path d="M1992 7528 c3 -29 6 -33 33 -33 27 0 30 4 33 33 3 31 2 32 -33 32
-35 0 -36 -1 -33 -32z"/>
<path d="M3139 7506 c-3 -3 -3 -21 -1 -41 4 -35 14 -41 46 -29 20 8 22 64 2
64 -8 0 -21 2 -28 5 -8 3 -16 3 -19 1z"/>
<path d="M3420 7476 c0 -35 13 -46 51 -46 46 0 64 24 34 46 -25 19 -85 18 -85
0z"/>
<path d="M3036 7465 c-7 -20 3 -44 25 -55 33 -18 49 -12 49 20 0 24 -6 33 -26
40 -34 13 -41 13 -48 -5z"/>
<path d="M3300 7455 c0 -21 28 -75 39 -75 17 0 32 30 29 57 -2 23 -8 29 -35
31 -25 2 -33 -1 -33 -13z"/>
<path d="M2944 7436 c-10 -21 -9 -28 5 -41 34 -30 76 -8 69 37 -5 35 -59 38
-74 4z"/>
<path d="M2455 7421 c-22 -43 -10 -63 34 -59 31 3 36 7 39 30 3 21 -3 30 -27
43 -30 15 -31 15 -46 -14z"/>
<path d="M2664 7425 c-22 -33 -14 -60 16 -61 48 -3 67 53 25 73 -23 10 -27 9
-41 -12z"/>
<path d="M4680 7404 c0 -14 9 -47 21 -73 19 -45 22 -48 60 -49 33 -2 39 1 39
18 0 11 -14 45 -31 75 -26 47 -35 55 -60 55 -24 0 -29 -4 -29 -26z"/>
<path d="M2728 7339 c-24 -14 -22 -31 6 -58 23 -22 25 -22 55 -7 34 18 40 33
16 42 -8 4 -15 12 -15 20 0 16 -37 18 -62 3z"/>
<path d="M3131 10251 c-9 -6 -11 -18 -7 -35 12 -46 86 -44 86 3 0 35 -45 53
-79 32z"/>
<path d="M3706 10214 c-24 -23 -20 -53 9 -66 22 -10 29 -9 47 10 19 18 20 25
10 47 -13 29 -43 33 -66 9z"/>
<path d="M3010 10050 c-8 -5 -25 -10 -37 -10 -17 0 -23 -6 -23 -23 0 -33 18
-47 60 -47 33 0 38 3 47 34 15 48 -9 71 -47 46z"/>
<path d="M3312 10028 c3 -30 6 -33 41 -36 32 -3 38 0 47 23 16 42 13 45 -41
45 l-50 0 3 -32z"/>
<path d="M3690 9940 c-42 -42 -12 -88 38 -59 31 17 47 65 25 73 -26 10 -42 7
-63 -14z"/>
<path d="M3873 9926 c-27 -13 -29 -33 -7 -64 9 -14 26 -22 43 -22 45 0 52 19
25 63 -26 40 -27 40 -61 23z"/>
<path d="M3163 9843 c-15 -5 -17 -61 -4 -82 14 -23 60 -5 67 26 5 20 2 31 -16
45 -23 19 -27 20 -47 11z"/>
<path d="M3650 9656 c0 -8 5 -27 10 -41 8 -21 16 -26 38 -23 23 3 27 8 30 41
l3 37 -40 0 c-29 0 -41 -4 -41 -14z"/>
<path d="M6360 10021 c-16 -31 -12 -81 6 -88 42 -16 68 39 40 83 -20 29 -32
30 -46 5z"/>
<path d="M6184 9938 c3 -13 9 -58 12 -101 4 -43 11 -80 16 -83 16 -10 49 8 58
32 7 16 5 32 -5 51 -8 16 -17 49 -20 76 -6 45 -8 47 -37 47 -27 0 -30 -3 -24
-22z"/>
<path d="M6480 9930 c-13 -13 -20 -33 -20 -59 0 -47 7 -53 46 -42 24 6 30 13
32 41 7 74 -18 100 -58 60z"/>
<path d="M6356 9858 c-9 -12 -16 -37 -16 -55 0 -38 20 -44 58 -17 17 12 21 21
16 42 -7 30 -22 52 -35 52 -4 0 -15 -10 -23 -22z"/>
<path d="M6453 9748 c-47 -23 -41 -88 8 -88 18 0 29 5 29 14 0 7 7 19 15 26
13 10 12 15 -3 36 -19 27 -19 26 -49 12z"/>
<path d="M6578 9739 c-12 -7 -18 -22 -18 -48 0 -21 -10 -60 -21 -86 -21 -47
-21 -49 -3 -62 39 -29 48 -19 59 60 3 26 9 47 13 47 4 0 13 -18 19 -39 11 -33
10 -44 -2 -68 -24 -45 -20 -81 10 -89 14 -3 32 -4 40 0 18 7 19 52 2 86 -11
21 -10 30 7 60 32 59 0 120 -42 78 -9 -9 -12 -7 -12 11 0 25 -17 61 -28 61 -4
0 -15 -5 -24 -11z"/>
<path d="M6301 9706 l-23 -24 30 -16 c17 -9 33 -16 36 -16 14 0 36 35 36 56 0
20 -5 24 -28 24 -17 0 -38 -10 -51 -24z"/>
<path d="M6154 9712 c-18 -12 -24 -41 -14 -68 8 -21 15 -25 42 -22 30 3 33 6
36 42 3 39 -8 56 -38 56 -8 0 -20 -4 -26 -8z"/>
<path d="M6035 9694 c-10 -11 -15 -29 -13 -53 2 -29 7 -37 27 -39 29 -5 41 12
41 59 0 25 -5 39 -16 43 -21 8 -20 8 -39 -10z"/>
<path d="M6266 9599 c-45 -35 -29 -79 30 -79 26 0 33 5 36 25 14 69 -16 93
-66 54z"/>
<path d="M6396 9598 c-17 -63 -1 -98 40 -90 20 4 24 10 24 42 0 57 -51 95 -64
48z"/>
<path d="M6095 9556 c-8 -40 1 -76 19 -76 28 0 66 26 66 45 0 49 -11 65 -46
65 -30 0 -34 -3 -39 -34z"/>
<path d="M6508 9504 c-41 -22 -52 -49 -32 -79 20 -31 38 -32 58 -3 16 23 22
98 9 98 -5 -1 -20 -7 -35 -16z"/>
<path d="M5500 9342 c0 -7 -12 -12 -26 -12 -23 0 -25 -3 -22 -32 3 -32 5 -33
51 -36 44 -3 47 -1 47 21 0 13 -11 34 -25 47 -14 13 -25 18 -25 12z"/>
<path d="M5717 9313 c-9 -8 -9 -46 -1 -67 10 -26 59 -20 78 9 22 33 20 40 -9
53 -29 13 -58 15 -68 5z"/>
<path d="M5220 9072 c0 -26 29 -62 50 -62 33 0 50 12 50 34 0 32 -19 46 -62
46 -30 0 -38 -4 -38 -18z"/>
<path d="M5838 9023 c-13 -3 -18 -14 -18 -38 0 -54 8 -65 50 -65 42 0 57 21
46 64 -4 18 -48 51 -59 45 -1 -1 -10 -3 -19 -6z"/>
<path d="M5613 8994 c-35 -15 -41 -30 -20 -57 20 -27 60 -31 88 -8 19 16 22
23 13 37 -20 34 -46 43 -81 28z"/>
<path d="M5402 8978 c-7 -7 -12 -25 -12 -40 0 -24 4 -28 29 -28 56 0 72 19 55
64 -7 19 -55 21 -72 4z"/>
<path d="M5240 8904 c-6 -15 -8 -40 -4 -56 5 -26 9 -29 42 -26 36 3 37 4 35
42 -3 44 -8 51 -40 61 -19 5 -25 1 -33 -21z"/>
<path d="M5551 8856 c-11 -12 -21 -32 -21 -44 0 -20 5 -22 55 -22 41 0 55 4
55 14 0 28 -13 47 -40 61 -25 13 -29 12 -49 -9z"/>
<path d="M10360 7850 c0 -5 -7 -10 -15 -10 -18 0 -19 -29 -2 -52 17 -21 64
-13 78 15 10 17 7 23 -12 38 -26 20 -49 24 -49 9z"/>
<path d="M10110 7660 c-8 -14 -8 -26 0 -40 15 -28 29 -25 59 13 11 14 11 20 1
32 -18 21 -47 19 -60 -5z"/>
<path d="M10259 7644 c-11 -13 -11 -20 2 -42 17 -30 47 -41 60 -20 5 7 9 28 9
46 0 29 -3 32 -29 32 -16 0 -35 -7 -42 -16z"/>
<path d="M10672 7631 c-9 -6 -11 -19 -7 -44 7 -37 33 -57 47 -35 6 10 8 10 8
1 0 -7 5 -13 10 -13 18 0 11 66 -8 83 -21 19 -31 21 -50 8z"/>
<path d="M10557 7572 c-20 -22 -22 -42 -4 -42 8 0 22 -9 32 -20 17 -19 18 -19
36 4 24 30 24 39 1 59 -24 22 -45 21 -65 -1z"/>
<path d="M10401 7571 c-35 -9 -36 -26 -6 -57 l27 -27 26 27 c22 21 25 30 16
44 -13 20 -29 23 -63 13z"/>
<path d="M10795 7512 c-26 -21 -29 -59 -7 -66 31 -10 77 9 80 32 2 14 -2 22
-11 22 -8 0 -17 7 -21 15 -7 19 -16 19 -41 -3z"/>
<path d="M10147 7503 c-25 -13 -27 -19 -21 -46 10 -47 13 -49 46 -30 36 21 65
61 52 72 -18 17 -49 18 -77 4z"/>
<path d="M10685 7477 c-23 -17 -14 -61 16 -77 31 -17 46 -6 51 35 4 32 1 38
-20 46 -29 11 -25 12 -47 -4z"/>
<path d="M9940 7443 c0 -38 48 -63 67 -36 7 9 13 27 13 40 0 20 -5 23 -40 23
-37 0 -40 -2 -40 -27z"/>
<path d="M10305 7430 c-3 -5 -13 -6 -21 -3 -12 5 -15 -1 -12 -27 2 -26 9 -35
28 -40 32 -9 70 5 70 25 0 16 -34 55 -49 55 -6 0 -12 -4 -16 -10z"/>
<path d="M10468 7428 c-28 -10 -33 -23 -22 -52 14 -35 100 -9 93 29 -5 24 -38
34 -71 23z"/>
<path d="M10625 7381 c-3 -5 -14 -7 -25 -4 -16 4 -20 0 -20 -18 0 -13 9 -35
19 -49 17 -21 21 -22 37 -10 10 9 19 11 21 5 12 -34 31 -59 51 -66 19 -7 24
-4 32 17 13 32 -1 59 -41 79 -16 9 -39 25 -49 35 -11 11 -22 15 -25 11z"/>
<path d="M10787 7342 c-10 -10 -17 -31 -17 -45 0 -25 3 -27 44 -27 37 0 45 4
49 22 4 12 4 33 1 45 -8 29 -53 32 -77 5z"/>
<path d="M10146 7328 c-9 -12 -16 -31 -16 -41 0 -15 7 -18 42 -15 36 3 44 7
52 31 8 22 7 30 -4 37 -26 16 -58 11 -74 -12z"/>
<path d="M10326 7275 c-8 -9 -13 -22 -10 -29 7 -19 63 -29 80 -15 18 15 18 24
-2 43 -20 20 -48 20 -68 1z"/>
<path d="M10473 7273 c-17 -3 -23 -11 -23 -33 0 -26 18 -39 56 -40 17 0 27 62
12 72 -7 4 -15 7 -18 6 -3 0 -15 -3 -27 -5z"/>
<path d="M9940 7241 c0 -22 7 -35 26 -48 25 -16 27 -16 45 8 31 40 21 63 -28
67 -42 3 -43 2 -43 -27z"/>
<path d="M10573 7233 c-18 -7 -16 -38 2 -56 28 -29 82 4 70 43 -6 19 -41 26
-72 13z"/>
<path d="M10166 7148 c-9 -12 -16 -29 -16 -37 0 -28 60 -55 74 -33 3 5 8 28
12 50 6 42 6 42 -24 42 -21 0 -36 -7 -46 -22z"/>
<path d="M10338 7158 c-40 -33 -23 -82 26 -76 39 4 53 41 26 68 -23 23 -31 24
-52 8z"/>
<path d="M10451 7141 c-27 -27 -26 -42 3 -63 21 -15 26 -15 36 -3 14 17 9 77
-7 82 -6 2 -21 -5 -32 -16z"/>
<path d="M9815 7096 c-14 -20 -14 -28 -3 -45 7 -12 18 -21 25 -21 22 0 53 39
53 65 0 21 -5 25 -30 25 -20 0 -34 -8 -45 -24z"/>
<path d="M10540 7105 c-17 -20 -5 -66 15 -59 8 4 22 0 31 -7 13 -10 17 -10 25
2 10 16 11 41 3 63 -8 20 -57 21 -74 1z"/>
<path d="M9917 7022 c-23 -25 -21 -49 4 -63 18 -9 25 -7 42 10 18 17 19 24 9
46 -14 30 -33 32 -55 7z"/>
<path d="M10046 7031 c-11 -17 12 -58 35 -64 29 -8 31 -6 32 35 2 30 -1 33
-30 36 -17 2 -34 -1 -37 -7z"/>
<path d="M10164 6995 c-26 -39 -15 -60 34 -63 l42 -3 0 45 c0 44 -1 46 -30 46
-20 0 -35 -8 -46 -25z"/>
<path d="M10284 6988 c3 -18 16 -41 27 -51 21 -16 23 -16 40 -1 11 10 19 22
19 28 -1 23 -39 56 -65 56 -26 0 -27 -2 -21 -32z"/>
<path d="M10410 7002 c0 -57 63 -70 68 -14 3 31 2 32 -32 32 -28 0 -36 -4 -36
-18z"/>
<path d="M10070 6911 c0 -6 -11 -11 -25 -11 -30 0 -34 -29 -7 -53 23 -21 29
-21 48 -3 18 19 18 50 -1 66 -10 9 -15 9 -15 1z"/>
<path d="M9765 6880 c-10 -15 14 -50 34 -50 16 0 30 24 31 53 0 11 -58 9 -65
-3z"/>
<path d="M6890 7402 c0 -7 -11 -12 -25 -12 -20 0 -25 -5 -25 -25 0 -30 43 -56
62 -37 14 14 14 60 -1 75 -8 8 -11 8 -11 -1z"/>
<path d="M6987 7387 c-26 -18 -7 -67 25 -67 42 0 52 14 37 46 -16 33 -37 40
-62 21z"/>
<path d="M7632 7361 c-8 -4 -16 -27 -19 -50 l-6 -41 42 0 c41 0 41 0 41 38 0
52 -24 75 -58 53z"/>
<path d="M6965 7252 c-22 -7 -23 -14 -12 -49 11 -31 37 -37 60 -14 19 19 19
20 1 45 -11 14 -21 25 -24 25 -3 -1 -14 -4 -25 -7z"/>
<path d="M6827 7213 c-15 -14 -7 -63 12 -73 49 -26 81 3 61 56 -7 18 -17 24
-38 24 -16 0 -32 -3 -35 -7z"/>
<path d="M7200 7075 c0 -35 21 -75 40 -75 45 0 56 69 15 88 -40 18 -55 15 -55
-13z"/>
<path d="M7100 7030 c-10 -24 -10 -33 0 -45 16 -19 44 -19 60 0 11 13 10 20
-7 42 -27 38 -38 38 -53 3z"/>
<path d="M6473 5539 c-44 -16 -19 -74 29 -67 19 2 23 9 23 37 0 37 -13 45 -52
30z"/>
<path d="M6340 5381 c-5 -11 -10 -31 -10 -45 0 -23 4 -26 35 -26 33 0 35 2 35
33 0 53 -39 77 -60 38z"/>
<path d="M6440 5355 c-17 -21 -5 -45 23 -45 29 0 52 24 43 45 -7 19 -50 19
-66 0z"/>
<path d="M1026 5304 c-16 -41 -3 -94 24 -94 24 0 43 24 43 55 0 46 -52 77 -67
39z"/>
<path d="M6380 5229 c-20 -36 -9 -64 28 -67 28 -3 32 0 32 20 0 25 -25 68 -40
68 -5 0 -14 -9 -20 -21z"/>
<path d="M6216 5227 c-11 -8 -17 -23 -14 -38 3 -21 8 -24 38 -22 58 4 60 5 60
40 0 31 -2 33 -33 33 -18 0 -41 -6 -51 -13z"/>
<path d="M1114 5205 c-4 -9 -1 -27 6 -40 11 -20 18 -23 39 -18 35 8 34 8 24
40 -11 33 -59 46 -69 18z"/>
<path d="M1225 5100 c-28 -55 -8 -101 31 -69 28 23 35 57 17 79 -23 27 -30 25
-48 -10z"/>
<path d="M6122 5104 c-16 -11 -22 -24 -20 -42 3 -23 8 -27 38 -27 27 0 37 6
50 28 14 26 14 29 -4 43 -25 18 -36 18 -64 -2z"/>
<path d="M6258 5089 c-19 -11 -23 -45 -9 -67 5 -8 22 -12 42 -10 27 2 36 9 44
31 8 24 6 31 -10 43 -22 16 -43 17 -67 3z"/>
<path d="M1014 5056 c-13 -33 0 -51 39 -54 32 -3 38 0 47 23 6 15 8 31 4 36
-9 15 -84 11 -90 -5z"/>
<path d="M1161 4981 c-15 -28 -14 -39 10 -64 20 -22 20 -22 35 -2 22 30 14 79
-13 83 -14 2 -26 -4 -32 -17z"/>
<path d="M6002 4984 c-35 -24 -29 -52 13 -60 55 -10 84 25 49 60 -19 20 -34
20 -62 0z"/>
<path d="M6137 4957 c-38 -15 -34 -56 6 -70 23 -7 31 -5 47 15 11 12 19 33 20
46 0 25 -24 28 -73 9z"/>
<path d="M1266 4889 c-30 -35 -31 -39 -13 -63 13 -18 15 -18 40 -1 30 19 41
46 32 75 -9 28 -29 25 -59 -11z"/>
<path d="M1408 4843 c-21 -5 -22 -12 -8 -47 12 -32 40 -34 66 -5 31 34 -5 67
-58 52z"/>
<path d="M5919 4827 c-13 -7 -25 -23 -27 -35 -3 -20 1 -22 42 -22 42 0 46 2
46 25 0 32 -29 47 -61 32z"/>
<path d="M5785 4710 c-21 -40 -19 -50 10 -50 28 0 85 26 85 38 0 9 -54 42 -69
42 -6 0 -17 -13 -26 -30z"/>
<path d="M5984 4705 c-19 -30 -20 -28 26 -44 30 -10 37 -9 48 6 22 30 11 58
-25 61 -25 3 -35 -2 -49 -23z"/>
<path d="M1320 4701 c-22 -42 -7 -96 26 -89 41 7 44 108 4 108 -11 0 -24 -9
-30 -19z"/>
<path d="M1492 4644 c-17 -12 -22 -24 -20 -47 3 -29 6 -32 33 -30 37 3 66 38
55 67 -9 27 -39 31 -68 10z"/>
<path d="M5874 4620 c-57 -23 -20 -88 37 -66 28 10 35 28 23 60 -7 17 -27 19
-60 6z"/>
<path d="M5670 4591 c0 -27 4 -30 41 -36 45 -8 61 4 57 40 -3 16 -12 21 -50
23 -47 3 -48 3 -48 -27z"/>
<path d="M1686 4508 c-8 -31 -8 -53 1 -45 3 4 14 0 24 -9 15 -14 19 -13 39 16
18 25 19 34 10 45 -20 24 -67 19 -74 -7z"/>
<path d="M5545 4499 c-10 -29 40 -82 55 -59 19 29 23 62 9 71 -26 16 -57 10
-64 -12z"/>
<path d="M1422 4448 c-7 -7 -12 -23 -12 -37 0 -21 8 -29 39 -42 45 -19 51 -16
51 20 0 52 -11 71 -39 71 -15 0 -32 -5 -39 -12z"/>
<path d="M5733 4450 c-53 -21 -54 -86 -2 -84 36 1 52 22 47 61 -3 30 -14 35
-45 23z"/>
<path d="M1767 4322 c-22 -24 -21 -29 7 -47 19 -12 30 -14 44 -6 27 14 35 40
18 57 -20 19 -50 18 -69 -4z"/>
<path d="M2020 4245 c0 -8 -4 -15 -10 -15 -16 0 -12 -31 6 -51 17 -19 18 -18
72 17 6 4 -20 48 -32 56 -18 13 -36 9 -36 -7z"/>
<path d="M2346 4121 c-23 -26 -13 -61 18 -61 44 0 63 50 27 70 -25 13 -25 13
-45 -9z"/>
<path d="M2654 4016 c-10 -27 15 -57 44 -54 23 2 27 8 27 33 0 27 -4 30 -33
33 -21 2 -34 -2 -38 -12z"/>
<path d="M8768 5287 c-6 -30 17 -51 48 -43 19 5 24 13 24 36 0 27 -3 30 -34
30 -27 0 -35 -4 -38 -23z"/>
<path d="M9010 5287 c0 -34 18 -47 49 -36 27 11 41 26 41 47 0 8 -16 12 -45
12 -40 0 -45 -2 -45 -23z"/>
<path d="M9221 5296 c-8 -9 -20 -16 -27 -16 -8 0 -14 -9 -14 -20 0 -17 7 -20
45 -20 50 0 56 11 27 48 -16 21 -20 22 -31 8z"/>
<path d="M8253 5274 c-18 -8 -16 -28 5 -54 18 -22 19 -22 46 -5 37 25 32 59
-9 62 -16 1 -36 0 -42 -3z"/>
<path d="M8577 5266 c-30 -23 -14 -66 25 -66 13 0 18 8 18 29 0 37 -19 54 -43
37z"/>
<path d="M8410 5250 c-15 -27 -6 -50 18 -50 29 0 48 28 35 48 -15 25 -40 26
-53 2z"/>
<path d="M7996 5215 c-3 -8 -13 -15 -21 -15 -12 0 -15 -6 -10 -22 14 -45 57
-62 81 -30 19 24 17 46 -4 65 -23 21 -38 22 -46 2z"/>
<path d="M7592 5144 c-39 -27 -23 -54 33 -54 35 0 47 21 25 48 -22 26 -28 27
-58 6z"/>
<path d="M7730 5071 c-17 -33 -12 -41 25 -41 39 0 55 21 35 45 -17 21 -47 19
-60 -4z"/>
<path d="M7511 5009 c-13 -37 2 -64 34 -62 29 2 55 19 55 37 0 10 -22 24 -67
43 -7 3 -17 -5 -22 -18z"/>
<path d="M7182 4988 c-6 -6 -12 -22 -12 -34 0 -24 24 -33 68 -25 19 3 23 9 20
35 -3 26 -7 31 -33 34 -17 2 -36 -3 -43 -10z"/>
<path d="M7352 4954 c-29 -20 -28 -50 2 -69 23 -15 25 -14 56 13 28 26 30 33
21 51 -14 25 -48 27 -79 5z"/>
<path d="M10628 4937 c-35 -28 -22 -77 19 -77 29 0 54 30 42 51 -15 28 -43 40
-61 26z"/>
<path d="M10903 4923 c-7 -2 -13 -18 -13 -34 0 -22 6 -30 24 -35 38 -9 61 -1
64 24 6 41 -31 63 -75 45z"/>
<path d="M6985 4890 c-3 -5 -3 -20 0 -33 5 -19 11 -23 31 -19 26 5 49 36 39
52 -8 13 -62 13 -70 0z"/>
<path d="M10770 4762 c0 -26 26 -62 44 -62 10 0 66 42 66 50 0 10 -68 40 -90
40 -15 0 -20 -7 -20 -28z"/>
<path d="M6771 4754 c-12 -9 -21 -26 -21 -40 0 -21 5 -24 34 -24 18 0 39 7 46
15 30 36 -19 77 -59 49z"/>
<path d="M7103 4763 c-45 -9 -23 -73 24 -73 24 0 40 36 29 65 -5 15 -12 16
-53 8z"/>
<path d="M11047 4723 c-4 -3 -7 -19 -7 -34 0 -36 31 -55 60 -37 30 19 31 35 3
58 -26 21 -45 25 -56 13z"/>
<path d="M6588 4625 c-11 -11 5 -56 23 -65 13 -7 22 -6 33 6 20 19 20 29 0 48
-15 16 -45 21 -56 11z"/>
<path d="M6874 4585 c-16 -25 -16 -27 5 -46 26 -24 54 -18 69 16 23 50 -44 76
-74 30z"/>
<path d="M11260 4489 c0 -14 9 -34 20 -44 18 -16 23 -17 46 -5 31 17 46 43 38
65 -5 12 -18 15 -55 13 -45 -3 -49 -5 -49 -29z"/>
<path d="M6665 4403 c4 -21 8 -39 9 -41 2 -1 17 1 35 4 29 6 32 10 29 38 -3
28 -7 31 -42 34 l-38 3 7 -38z"/>
<path d="M6380 4294 c0 -32 17 -64 34 -64 17 0 56 43 56 62 0 19 -20 28 -61
28 -24 0 -29 -4 -29 -26z"/>
<path d="M11367 4236 c-14 -11 -15 -19 -8 -38 17 -44 66 -51 94 -13 15 20 15
28 5 45 -15 23 -63 27 -91 6z"/>
<path d="M6537 4104 c-15 -16 -6 -41 20 -53 23 -11 29 -10 40 6 21 27 11 48
-22 51 -17 2 -34 0 -38 -4z"/>
<path d="M6190 4071 c-16 -31 4 -64 33 -55 53 15 61 67 10 72 -24 2 -34 -2
-43 -17z"/>
<path d="M6224 3836 c-8 -21 24 -76 44 -76 45 0 58 60 17 78 -34 16 -54 15
-61 -2z"/>
<path d="M6492 3798 c-7 -7 -12 -26 -12 -43 0 -29 3 -32 34 -33 41 -2 53 21
35 62 -13 28 -37 34 -57 14z"/>
<path d="M6110 3541 c0 -17 5 -33 10 -36 17 -10 70 5 70 20 0 7 5 15 12 17 26
9 -6 28 -48 28 -42 0 -44 -1 -44 -29z"/>
<path d="M6087 3322 c-32 -34 -33 -42 -7 -70 22 -24 50 -29 50 -10 0 6 10 22
22 35 18 19 19 23 5 23 -9 0 -22 11 -30 25 l-13 25 -27 -28z"/>
<path d="M6440 3275 c-22 -27 -2 -68 35 -70 33 -2 45 9 45 43 0 16 -6 22 -23
22 -13 0 -28 5 -33 10 -8 8 -15 6 -24 -5z"/>
<path d="M8860 4240 c0 -5 -19 -10 -43 -10 -24 0 -48 -5 -55 -12 -9 -9 -18 -9
-36 0 -17 7 -26 8 -28 1 -5 -15 -113 -39 -173 -39 -28 0 -56 -5 -61 -10 -6 -6
-55 -21 -110 -35 -177 -45 -290 -100 -407 -200 -42 -36 -85 -65 -95 -65 -26 0
-102 -136 -102 -184 0 -20 -7 -51 -16 -68 -27 -52 -14 -105 51 -213 32 -53 68
-101 79 -107 12 -6 64 -41 116 -78 93 -65 220 -120 279 -120 12 0 34 -9 48
-20 14 -11 40 -20 57 -20 17 -1 42 -7 56 -15 14 -8 39 -15 55 -15 17 0 50 -9
74 -20 24 -11 54 -20 67 -20 12 0 26 -5 30 -11 5 -8 26 -9 68 -4 83 9 89 9
186 -5 142 -20 508 8 615 47 22 8 73 21 112 28 92 18 129 34 284 128 70 43
133 77 141 77 8 0 35 23 60 50 25 28 52 50 59 50 20 0 61 92 57 126 -2 25 -7
28 -28 25 -43 -6 -60 -20 -106 -92 -27 -43 -55 -73 -71 -80 -14 -5 -58 -33
-97 -61 -73 -54 -164 -97 -203 -98 -12 0 -39 -11 -59 -25 -25 -17 -50 -25 -79
-25 -23 0 -45 -3 -49 -7 -17 -17 -90 -34 -186 -43 -314 -29 -388 -33 -422 -21
-18 7 -96 15 -173 18 -123 4 -157 10 -276 43 -74 21 -171 46 -214 55 -44 9
-82 20 -85 25 -12 19 -114 80 -135 80 -31 0 -89 44 -164 126 -75 81 -91 114
-91 187 0 83 35 141 148 248 105 98 102 96 367 205 181 74 208 82 235 64 10
-6 20 -5 30 4 8 8 62 19 120 25 58 6 128 15 155 20 86 16 376 13 426 -4 23 -9
90 -18 148 -22 62 -3 112 -11 121 -18 18 -15 231 -85 258 -85 11 0 27 -9 37
-20 9 -10 34 -24 54 -31 20 -6 50 -24 66 -38 17 -15 44 -36 60 -46 17 -10 37
-28 45 -39 8 -12 29 -37 46 -56 17 -19 36 -56 43 -82 16 -58 53 -96 74 -77 10
10 12 24 4 64 -23 126 -102 223 -257 312 -52 30 -128 75 -169 99 -45 27 -81
42 -92 39 -9 -3 -50 6 -91 20 -49 17 -137 34 -272 51 -110 13 -203 27 -207 30
-5 3 -17 0 -27 -5 -11 -6 -23 -6 -28 -1 -5 5 -26 5 -52 -2 -32 -8 -53 -8 -81
1 -47 14 -91 14 -91 1z"/>
<path d="M4846 2984 c-11 -30 -6 -46 29 -87 45 -53 69 -132 62 -205 -9 -88
-17 -94 -123 -95 -77 -1 -95 2 -117 20 -14 11 -61 35 -104 53 -60 24 -84 40
-101 67 -27 40 -55 41 -60 3 -5 -41 49 -107 100 -122 24 -7 51 -22 60 -34 10
-12 49 -31 88 -44 90 -29 212 -25 277 8 39 21 42 24 49 78 20 161 -33 311
-126 359 -25 13 -29 13 -34 -1z"/>
</g>
</svg>
